<?xml version="1.0" standalone="no"?>
<!DOCTYPE svg PUBLIC "-//W3C//DTD SVG 1.1//EN" "http://www.w3.org/Graphics/SVG/1.1/DTD/svg11.dtd" >
<svg xmlns="http://www.w3.org/2000/svg">
<metadata>Generated by IcoMoon</metadata>
<defs>
<font id="icomoon" horiz-adv-x="1024">
<font-face units-per-em="1024" ascent="960" descent="-64" />
<missing-glyph horiz-adv-x="1024" />
<glyph unicode="&#x20;" horiz-adv-x="512" d="" />
<glyph unicode="&#xe900;" d="M222.5 139.5q-52 0-52-51.5v-0.5q0-51.5 52-51.5h579q51.5 0 51.5 51.5v0.5q0 51.5-51.5 51.5h-579zM760 191.5l43-16.5q35 0 60.25-25.25t25.25-60.25v0q0-35.5-25.25-60.5t-60.25-25h-582q-36 0-61 25t-25 60.5v0q0 35 25 60.25t61 25.25l45 16.5q21.5 116 28 217.5t13.5 209v68h-69v203.5h136.5v-100h69.5v100h135v-100h69.5v100h136.5v-203.5h-69v-68q3.5-112.5 11.75-211.5t31.75-215zM335.5 519.5l23.5 0.5v76.5h-17.5zM326 403.5l100.5 0.5v78l-94-0.5zM317.5 289.5h41.5v76h-35.5zM307.5 175h119v76.5l-112.5-0.5zM688.5 520l-5.5 76.5h-18v-76.5h23.5zM699.5 404l-7 78h-95.5v-78h102.5zM708.5 289.5l-7.5 76h-36v-76h43.5zM716.5 175l-6.5 76.5h-113v-76.5h119.5zM393 596.5v-76.5h101v76.5h-101zM529.5 596.5v-76.5h101.5v76.5h-101.5zM393 365.5v-76h101v76h-101zM529.5 365.5v-76h101.5v76h-101.5zM460.5 482v-78h103v78h-103zM460.5 251.5v-76.5h103v76.5h-103zM341.5 634h341v84h67.5v139h-67.5v-103.5h-137v103.5h-67.5v-103.5h-136.5v103.5h-67.5v-139h67.5v-84z" />
<glyph unicode="&#xe901;" d="M186.243 51.951c-10.65 10.65-12.683 16.175-12.683 34.47 0 27.025 11.907 42.66 36.881 48.428 22.475 5.191 580.338 5.267 602.689 0.082 26.965-6.255 35.142-17.523 35.142-48.431 0-23.425-1.326-27.43-12.174-36.761l-12.174-10.472h-624.997l-12.683 12.683z" />
<glyph unicode="&#xe902;" d="M311.246 194.386c0.79 8.949 2.47 24.569 3.734 34.712l2.298 18.441h107.943v-69.424h-115.41l1.436 16.271z" />
<glyph unicode="&#xe903;" d="M464.271 212.827v34.712h95.458v-69.424h-95.458v34.712z" />
<glyph unicode="&#xe904;" d="M598.78 212.827v34.712h107.943l2.298-18.441c1.264-10.142 2.944-25.763 3.734-34.712l1.436-16.271h-115.41v34.712z" />
<glyph unicode="&#xe905;" d="M668.203 327.81v36.881h14.921c16.357 0 15.176 3.060 21.353-55.322l1.951-18.441h-38.225v36.881z" />
<glyph unicode="&#xe906;" d="M533.695 327.81v36.881h95.458v-73.763h-95.458v36.881z" />
<glyph unicode="&#xe907;" d="M394.847 327.81v36.881h95.458v-73.763h-95.458v36.881z" />
<glyph unicode="&#xe908;" d="M321.122 305.030c0.021 7.756 1.269 24.353 2.774 36.881 2.693 22.419 2.967 22.78 17.318 22.78h14.582v-73.763h-17.356c-16.696 0-17.354 0.536-17.318 14.102z" />
<glyph unicode="&#xe909;" d="M331.485 439.354c1.633 19.586 3.379 35.912 3.878 36.28s20.922 1.834 45.383 3.258l44.475 2.589v-72.126l-33.197-2.806c-18.258-1.543-40.017-2.806-48.353-2.806h-15.156l2.97 35.612z" />
<glyph unicode="&#xe90a;" d="M464.271 444.963v36.881h95.458v-73.763h-95.458v36.881z" />
<glyph unicode="&#xe90b;" d="M598.78 444.963v36.881h45.559c33.412 0 45.631-1.446 45.828-5.424 0.148-2.983 1.688-19.58 3.422-36.881l3.154-31.458h-97.963v36.881z" />
<glyph unicode="&#xe90c;" d="M668.203 557.776c0 28.171 1.391 36.881 5.89 36.881 4.020 0 6.776-8.469 8.678-26.67 4.446-42.536 3.876-47.092-5.89-47.092-7.997 0-8.678 2.893-8.678 36.881z" />
<glyph unicode="&#xe90d;" d="M533.695 557.776v36.881h95.458v-73.763h-95.458v36.881z" />
<glyph unicode="&#xe90e;" d="M394.847 557.776v36.881h95.458v-73.763h-95.458v36.881z" />
<glyph unicode="&#xe90f;" d="M339.992 547.565c1.533 14.669 2.788 31.265 2.788 36.881 0 6.184 2.567 10.211 6.508 10.211 5.275 0 6.508-6.991 6.508-36.881 0-34.806-0.523-36.881-9.296-36.881-8.796 0-9.146 1.434-6.508 26.67z" />
<glyph unicode="&#xe910;" d="M342.78 679.268v41.22h-65.085v134.508h60.746v-104.136h143.186v104.136h60.746v-104.136h143.186v104.136h60.746v-134.508h-65.085v-82.441h-338.441v41.22z" />
<glyph unicode="&#xe911;" d="M512 807q-39.5 0-39.5-39 0-39.5 39.5-39.5 39 0 39 39.5 0 39-39 39zM626 590.5q-3 43-36 72.75t-78 29.75q-45.5 0-77.25-29.75t-28.25-72.75q42.5-1 65.25 16.75t40.25 46.25q16.5-29.5 46.5-47.75t67.5-15.25zM570 720q41-16.5 67-50.5t26.5-76.5q23 7.5 39 23.5t31 37q17-66 75-66 27 0 57 17t48 45.5l-195.5-374.5q26.5-2 47-21.25t20.5-46.75v0q0-15.5-9-32.5h26.5q35 0 60.25-25.25t25.25-60.25v0q0-35.5-25.25-60.5t-60.25-25h-582q-36 0-61 25t-25 60.5v0q0 35 25 60.25t61 25.25h24.5q-7.5 10-7.5 32.5v0q0 27.5 20.5 46.75t47.5 20.75l-195.5 375q42.5-62.5 103.5-62.5 59 0 76.5 65.5 26.5-42 72-59.5-1 42 24.5 76t66.5 50.5q-16.5 22-16.5 48 0 31 21.75 53t53.25 22q31 0 53-22t22-53q0-26.5-17-48zM309 429.5l67.5 34 69-34-69-34zM578 429.5l67.5 34 69.5-34-69.5-34zM444.5 392l67.5 34 69-34-69-34zM444.5 474l67.5 34 69-34-69-34zM222.5 139.5q-52 0-52-51.5v-0.5q0-51.5 52-51.5h579q51.5 0 51.5 51.5v0.5q0 51.5-51.5 51.5h-579zM682.5 275l153 287.5q-17.5-8.5-36.5-9-36.5-2.5-65 43-12-19.5-49.5-34t-74-9q-31.5 4-57.5 13.5t-41 29q-35-43.5-99-42.5-92.5 0-121.5 46.5-25-41-66.5-46.5-13.5-2.5-36.5 9l153-287.5h341zM307.5 243q-33.5 0-33.5-34v0q0-34 33.5-34h408.5q34 0 34 34v0q0 34-34 34h-408.5z" />
<glyph unicode="&#xe912;" d="M200.733 42.315c-23.234 6.807-34.262 41.093-22.862 71.077 9.135 24.028 7.868 23.937 333.342 23.937 207.554 0 303.097-1.47 312.678-4.809 22.906-7.985 32.569-37.372 22.133-67.311-9.262-26.569 4.863-25.436-327.516-26.258-181.127-0.448-309.399 0.91-317.776 3.364z" />
<glyph unicode="&#xe913;" d="M295.051 179.391c-17.027 6.085-23.301 34.929-11.197 51.482 5.958 8.147 13.411 8.423 228.146 8.423s222.189-0.275 228.146-8.423c6.535-8.937 8.165-31.763 2.838-39.741-9.297-13.924-22.59-14.75-231.784-14.409-115.303 0.188-212.57 1.389-216.15 2.669z" />
<glyph unicode="&#xe914;" d="M270.497 413.615c-40.19 75.591-73.691 138.95-74.446 140.797s4.482 1.679 11.639-0.373c19.966-5.726 46.865 3.145 66.673 21.988l17.348 16.502 16.239-13.050c20.805-16.72 53.968-25.579 97.745-26.111 42.29-0.515 64.656 5.1 88.168 22.132l17.912 12.975 15.565-10.562c24.151-16.39 60.529-25.619 101.813-25.832 31.439-0.162 40.706 1.587 62.798 11.851 14.254 6.623 29.436 15.226 33.738 19.119 7.321 6.626 8.888 6.037 24.503-9.21 18.761-18.32 40.496-25.127 63.595-19.917 8.477 1.912 14.823 2.048 14.102 0.303s-34.194-65.020-74.384-140.611l-73.073-137.438h-336.86l-73.073 137.438zM546.808 371.682c19.039 9.572 34.616 19.004 34.616 20.958s-15.791 10.656-35.090 19.335l-35.090 15.781-34.333-17.263c-18.883-9.494-34.334-18.193-34.334-19.331 0-1.635 63.792-35.816 68.435-36.669 0.65-0.119 16.758 7.615 35.797 17.188zM412.3 410.733c19.039 9.572 34.616 18.429 34.616 19.682s-15.831 9.933-35.18 19.29l-35.18 17.013-34.692-17.443c-19.081-9.594-33.519-18.616-32.085-20.051 4.138-4.138 60.846-35.507 64.556-35.711 1.843-0.101 18.928 7.648 37.966 17.22v0zM681.317 410.733c19.039 9.572 34.616 18.429 34.616 19.682s-15.831 9.933-35.18 19.29l-35.18 17.013-34.692-17.443c-19.081-9.594-33.519-18.616-32.085-20.051 4.138-4.138 60.846-35.507 64.556-35.711 1.843-0.101 18.928 7.648 37.966 17.22zM546.808 454.123c19.039 9.572 34.616 18.337 34.616 19.477s-15.62 9.926-34.712 19.525l-34.712 17.453-34.712-17.453c-19.092-9.599-34.712-18.384-34.712-19.521 0-1.635 63.792-35.816 68.435-36.669 0.65-0.119 16.758 7.615 35.797 17.187z" />
<glyph unicode="&#xe915;" d="M407.96 602.685c0.141 14.487 14.299 42.753 28.572 57.044 55.454 55.527 159.046 28.959 181.793-46.624l6.074-20.183-16.064 0.095c-23.476 0.139-49.947 13.849-74.88 38.783l-21.955 21.955-24.699-25.703c-17.261-17.963-29.926-27.115-42.055-30.392-27.757-7.499-36.896-6.251-36.786 5.025z" />
<glyph unicode="&#xe916;" d="M485.966 740.447c-13.23 13.23-13.047 40.371 0.364 54.139 11.033 11.326 39.049 11.551 51.357 0.412 6.502-5.885 9.024-13.436 9.024-27.020 0-24.734-11-36.209-34.712-36.209-11.571 0-20.249 2.893-26.034 8.678z" />
<glyph unicode="&#xe917;" d="M222.5 139.5q-52 0-52-51.5v-0.5q0-51.5 52-51.5h579q51.5 0 51.5 51.5v0.5q0 51.5-51.5 51.5h-579zM611.5 482.5h-202.5q-10-106-37-188.25t-63-119.25h407.5q-38.5 37.5-68.25 119.75t-36.75 187.75zM307.5 582q-33.5 0-33.5-33.5v0q0-34 33.5-34h408.5q34 0 34 34v0q0 33.5-34 33.5h-408.5zM649 482.5q3.5-129 45-218.25t96-89.25h13q35 0 60.25-25.25t25.25-60.25v0q0-35.5-25.25-60.5t-60.25-25h-582q-36 0-61 25t-25 60.5v0q0 35 25 60.25t61 25.25h14.5q53 0 94.75 89.25t46.75 218.25h-71q-28.5 0-48.25 19.5t-19.75 48v0q0 28 19.75 48t48.25 20h107.5q-57 46-57 119.5 0 64 45.5 109.75t110 45.75q64 0 109.5-45.75t45.5-109.75q0-73-56-119.5h107q27.5 0 47.5-20t20-48v0q0-28.5-20-48t-47.5-19.5h-69zM512 857q-49.5 0-84.5-35t-35-84.5 35-84.5 84.5-35q49 0 84.25 35t35.25 84.5-35.25 84.5-84.25 35z" />
<glyph unicode="&#xe918;" d="M186.243 51.951c-10.65 10.65-12.683 16.175-12.683 34.47 0 27.025 11.907 42.66 36.881 48.428 22.475 5.191 580.338 5.267 602.689 0.082 26.965-6.255 35.142-17.523 35.142-48.431 0-23.425-1.326-27.43-12.174-36.761l-12.174-10.472h-624.997l-12.683 12.683z" />
<glyph unicode="&#xe919;" d="M330.263 198.367c30.504 44.337 61.543 139.944 73.012 224.9 2.9 21.478 6.132 43.444 7.183 48.814l1.911 9.763h97.681c74.436 0 98.045-1.291 99.21-5.424 0.841-2.983 3.771-25.144 6.511-49.246 10.146-89.269 42.443-179.666 85.494-239.297l7.048-9.763h-391.984l13.934 20.252z" />
<glyph unicode="&#xe91a;" d="M286.373 525.234c-8.747 8.747-11.66 31.983-5.269 42.034 8.247 12.97 30.505 14.373 227.953 14.373 195.747 0 225.87-1.808 233.622-14.022 6.581-10.368 3.822-33.51-5.052-42.384-8.447-8.447-14.463-8.678-225.627-8.678s-217.181 0.231-225.627 8.678z" />
<glyph unicode="&#xe91b;" d="M466.35 630.921c-25.744 11.988-46.513 31.644-59.637 56.441-12.585 23.779-13.401 75.644-1.545 98.211 20.776 39.543 66.757 69.424 106.832 69.424s86.056-29.881 106.832-69.424c11.753-22.37 11.044-74.485-1.329-97.627-30.899-57.793-96.42-82.512-151.153-57.024z" />
<glyph unicode="&#xe91c;" d="M425.5 751.5q32 18.5 41.5 3.5 9-15.5-23.5-34.5-32-18.5-41-3-9.5 15.5 23 34zM431 316.5q-29.5 49 23 139.5 20 34 39.5 52-9-6.5 5.5-1t14.5-17.5q-5-5.5-13.5-20t-13-22.5q-19.5-33.5-19.25-67.5t10.75-58q-8-13-22-11.25t-25.5 6.25zM580.5 647q7-14-15.5-37.75t-58.5-28.75q-10.5-1.5-16.25-4.5t-12.25-3.5q-4-3-11.75-6.25t-18.25-8.75q-27.5-14.5-49.75-39.5t-38.75-53.5q-11.5-35.5-16.25-94.5t-1.75-95h341q-2 11-3.75 22.25t-3.25 22.75q-21.5 24-35.25 66.5t-13.25 78q6 37 28.25 85.25t34.25 75.25q1.5 20 0 43t-21 44.5q-11 20-44.75 49.5t-81.75 32.5q7 33.5-17.5 52-3.5-22-35-42t-64.5-22.5q-28.5-33.5-77.75-45.5t-98.25-24q-15-25.5 0.75-36t18.75-26.5q13-9.5 10.75-16.25t40.75 0.25q28.5 13 43.5 10t47-8q10-7.5 16.5-9 26.5-22.5 70.5-14.5 54 9 61.5 52 18.5 0 21.5-17.5zM307.5 243q-33.5 0-33.5-34v0q0-34 33.5-34h408.5q34 0 34 34v0q0 34-34 34h-408.5zM649.5 139.5h-427q-52 0-52-51.5v0q0-52 52-52h579q51.5 0 51.5 52v0q0 51.5-51.5 51.5h-152zM721.5 275q23.5-3.5 43.75-21.75t20.25-45.75v0q0-17-7.5-32.5h23q35.5 0 60.75-25.25t25.25-60.25v0q0-35.5-25.25-60.5t-60.75-25h-578.5q-35.5 0-60.5 25t-25 60.5v0q0 35 25 60.25t60.5 25.25h23.5q-8 16.5-8 32.5v0q0 27.5 20.25 48t50.25 23.5q-2.5 46.5-1.5 93t15.5 90q28.5 60.5 59.5 88t71.5 41q-33.5 1.5-37.75 2t-28.25 14q-24 6.5-32 7t-42.5-10q-37.5-6-55.5-4t-19 36q-15 21-31.25 45.25t13.25 58.25q79.5 25 115.25 27.5t74.75 40q49.5 10.5 70 26.75t20.5 59.25q27-5.5 47.5-23.75t20.5-47.75q55.5-13.5 74.25-32.75t46.25-42.25q34.5-45.5 35.75-79.5t-3.75-68.5q-15.5-33.5-31.5-62.25t-24-73.75q0-43.5 13.5-78.5t35.5-64z" />
<glyph unicode="&#xe91d;" d="M207.342 39.757c-19.33 2.942-33.783 24.179-33.783 49.642 0 18.227 2.041 23.737 12.767 34.462l12.767 12.767 629.415-2.337 9.882-9.883c8.037-8.038 9.882-14.635 9.882-35.341 0-29.704-7.714-41.239-32.108-48.015-14.974-4.159-582.078-5.365-608.821-1.295v0z" />
<glyph unicode="&#xe91e;" d="M295.173 180.342c-5.899 2.354-12.215 6.624-14.035 9.488-6.421 10.101-3.533 33.321 5.235 42.089 8.447 8.447 14.463 8.678 225.627 8.678s217.181-0.231 225.627-8.678c8.747-8.747 11.66-31.983 5.269-42.034-1.802-2.834-8.733-7.227-15.402-9.763-15.904-6.047-417.129-5.843-432.32 0.22v0z" />
<glyph unicode="&#xe91f;" d="M342.864 313.275c0.13 58.43 10.902 129.187 23.627 155.194 24.841 50.774 79.302 92.504 144.215 110.504 43.416 12.039 72.164 36.447 72.164 61.27 0 24.073-24.66 36.152-30.041 14.715-3.552-14.154-23.906-31.036-44.218-36.678-28.59-7.94-50.041-5.466-76.906 8.87-28.376 15.142-76.422 21.516-102.312 13.572-26.030-7.986-47.358-10.372-47.358-5.298 0 5.604-15.505 27.628-29.558 41.984-8.898 9.090-10.114 22.776-2.765 31.119 0.721 0.819 28.103 8.24 60.849 16.492 64.25 16.19 76.317 21.156 105.521 43.419 10.486 7.993 22.201 14.535 26.034 14.537 14.688 0.007 60.154 25.52 72.783 40.842 11.939 14.484 13.646 15.259 19.109 8.677 3.299-3.975 5.999-14.792 5.999-24.036 0-14.505 1.329-16.808 9.699-16.808 34.963 0 86.376-36.145 117.639-82.703 16.919-25.197 18.216-29.213 18.216-56.434 0-25.759-2.564-34.998-21.186-76.339-39.25-87.132-43.529-107.253-33.422-157.134 7.642-37.716 19.054-67.86 33.225-87.76 4.879-6.851 10.418-22.247 12.309-34.213l3.439-21.756h-337.145l0.085 37.966zM477.13 316.339c2.884 3.475 3.993 8.342 2.465 10.815s-4.654 16.137-6.945 30.365c-5.611 34.839 0.359 59.501 24.539 101.373 21.151 36.628 22.265 50.722 4.009 50.722-21.34 0-64.504-67.735-77.421-121.492-7.793-32.431-4.244-63.212 8.349-72.421 10.423-7.621 38.479-7.224 45.004 0.638zM442.462 717.827c19.917 10.161 30.367 23.444 27.392 34.818-4.136 15.817-30.635 12.689-55.928-6.603-13.822-10.543-19.366-26.425-11.848-33.943 5.45-5.45 23.49-2.891 40.383 5.727v0z" />
<glyph unicode="&#xe920;" d="M592 345.5l-78-39-80 39 80 39.5zM697 311l-68.5 34.5 80 39.5 11-6.5q3.5 9 7.25 18t6.75 16.5l-438.5-0.5q6.5-24.5 11-35.5l13.5 8 78-39.5-68.5-34q2.5-9 5.25-18.25t5.75-18.75l345.5 0.5q6.5 23 11.5 36zM753 447q15.5 27 32 45.5t34.5 38q12 14.5 22.75 26.25t10.75 26.25v0q0 35-34.5 35h-613q-35 0-35-35v0q0-14.5 10.25-26.25t25.25-26.25q18.5-19.5 35.75-37.75t32.25-46.25zM511 685.5q-28.5 0-48.5-5.5t-20-13q0-8 20-13.5t48.5-5.5q28 0 48.25 5.5t20.25 13.5q0 7.5-20.25 13t-48.25 5.5zM426.5 770.5v68.5l59.5-8.5-8 60.5h67.5l-8-60.5 59.5 8.5v-68.5l-59.5 9v-61.5h-51.5v61.5zM307 241.5q-33 0-33-33v-0.5q0-33 33-33h410q33 0 33 33v0.5q0 33-33 33h-410zM222.5 139.5q-52 0-52-51.5v-0.5q0-51.5 52-51.5h579q51.5 0 51.5 51.5v0.5q0 51.5-51.5 51.5h-579zM247 175q-9 15.5-9 32.5v0q0 27.5 20 47.25t48.5 18.25q-27.5 91.5-44.5 128.5t-56 79q-32 36-51.5 54.75t-19.5 46.75v0.5q0 27.5 19.75 47.5t48.25 20h214.5q-8.5 10-8.5 18v0q0 50 50 50h106q50 0 50-50v0q0-8.5-9-18h215q27.5 0 47.5-20t20-47.5v-0.5q0-28-20.75-45.75t-53.75-53.75q-36-44.5-54-83.5t-42-126q27.5 1.5 47.5-18.25t20-47.25v0q0-17-7.5-32.5h25q35 0 60.25-25.25t25.25-60.25v0q0-35.5-25.25-60.5t-60.25-25h-582q-36 0-61 25t-25 60.5v0q0 35 25 60.25t61 25.25h26z" />
<glyph unicode="&#xe921;" d="M207.342 39.757c-19.33 2.942-33.783 24.179-33.783 49.642 0 18.227 2.041 23.737 12.767 34.462l12.767 12.767 629.415-2.337 9.882-9.883c8.037-8.038 9.882-14.635 9.882-35.341 0-29.704-7.714-41.239-32.108-48.015-14.974-4.159-582.078-5.365-608.821-1.295v0z" />
<glyph unicode="&#xe922;" d="M295.173 180.342c-13.59 5.423-17.346 11.423-17.346 27.712 0 32.866-2.329 32.542 234.172 32.542s234.172 0.324 234.172-32.542c0-16.686-3.716-22.243-18.679-27.932-15.904-6.047-417.129-5.843-432.32 0.22v0z" />
<glyph unicode="&#xe923;" d="M341.26 278.596c-1.117 1.808-3.325 10.18-4.905 18.605l-2.874 15.318 32.853 14.438c18.069 7.941 32.853 15.73 32.853 17.309 0 5.631-76.112 41.453-85.695 40.332-6.177-0.723-9.763 1.178-9.763 5.175 0 3.475-1.185 9.406-2.634 13.181-2.38 6.202 18.119 6.863 212.61 6.863 118.384 0 215.244-0.884 215.244-1.965 0-9.111-11.282-23.862-16.996-22.221-3.778 1.085-25.374-7.428-47.992-18.918l-41.123-20.89 70.559-35.476-8.893-35.037h-170.606c-93.833 0-171.52 1.479-172.638 3.287zM555.929 325.478c21.679 10.888 38.725 20.425 37.879 21.194s-19.125 10.192-40.621 20.94l-39.084 19.542-40.102-18.747c-22.056-10.311-40.102-20.398-40.102-22.416 0-4.093 68.45-39.651 77.104-40.053 3.031-0.141 23.248 8.652 44.927 19.54v0z" />
<glyph unicode="&#xe924;" d="M266.967 462.851c-4.543 7.691-27.418 35.092-50.834 60.891-45.085 49.674-49.841 60.344-35.819 80.364l6.755 9.643h649.863l6.755-9.643c14.514-20.721 7.652-35.437-41.024-87.984-13.264-14.319-30.488-35.308-38.276-46.644l-14.159-20.61h-475l-8.26 13.984z" />
<glyph unicode="&#xe925;" d="M492.475 651.36c-21.258 2.45-45.559 10.173-45.559 14.479 0 19.958 124.754 22.065 127.219 2.148 1.284-10.37-48.316-20.469-81.66-16.627z" />
<glyph unicode="&#xe926;" d="M512 757q50 0 50 50 0 50.5-50 50.5t-50-50.5q0-50 50-50zM307.5 243q-33.5 0-33.5-34v0q0-34 33.5-34h408.5q34 0 34 34v0q0 34-34 34h-408.5zM220.5 139.5q-50 0-50-50v0q0-50 50-50h582.5q50 0 50 50v0q0 50-50 50h-582.5zM556.5 501.5l97 110.5q16-15.5 33-44 14-22.5 27-50 13-28 20-53.5-4.5-53-33-104t-73.5-82.5l90-1q28.5 0 48.5-20.25t20-48.25v-0.5q0-13-9-33h26.5q35 0 60.25-25.25t25.25-60.25v0q0-35.5-25.25-60.5t-60.25-25h-582q-36 0-61 25t-25 60.5v0q0 35 25 60.25t61 25.25h28q-10.5 12.5-10.5 33v0.5q0 28 20 48.25t48.5 20.25h87.5q-47 28.5-75.5 78t-28 109.5q29.5 93.5 74.75 162.25t62.75 91.25q6.5 20 23.5 30.5-26 22-26 58.5 0 35.5 25 60.75t61 25.25q35 0 60.25-25.25t25.25-60.75q0-32.5-24.5-64 10-20 12-23.5 15.5-22 40.5-70l-106-117.5q-17-17 3.5-33 18.5-16.5 33.5 2.5zM575.5 478.5q-14.5-15-38.25-14.75t-34.25 10.25-15.25 30.75 8.75 38.25l95.5 112.5q1.5 1.5-5.75 7.75t-10.75 11.25q-6.5 10.5-14.75 25.25t-17.25 26.75q-17-5-31.5-5-17.5 0-32.5 6.5-24-16-44-56.5-79-101.5-108-208.5-13-69 52.75-128t131.75-59 129.25 62.75 58.25 127.75q-7.5 22.5-21 49.75t-24.5 48.25z" />
<glyph unicode="&#xe927;" d="M208.271 43.903c-24.757 6.255-34.712 20.121-34.712 48.349 0 14.082 2.747 20.722 12.683 30.658l12.683 12.683h624.997l11.647-10.018c8.895-7.652 12.128-15.083 13.686-31.458 2.503-26.32-8.313-42.713-32.639-49.469-17.542-4.872-589.24-5.572-608.345-0.745z" />
<glyph unicode="&#xe928;" d="M284.876 186.918c-9.705 10.723-9.278 36.551 0.754 45.63 7.163 6.482 29.255 7.181 227.124 7.181 206.837 0 219.594-0.447 226.37-7.935 9.705-10.723 9.278-36.551-0.754-45.63-7.163-6.482-29.255-7.181-227.124-7.181-206.837 0-219.594 0.447-226.37 7.935z" />
<glyph unicode="&#xe929;" d="M466.384 286.585c-33.773 11.678-62.647 30.383-91.275 59.129-58.219 58.459-59.933 107.461-7.447 212.931 16.958 34.077 92.638 149.455 104.261 158.952 5.454 4.456 16.62 5.737 40.445 4.64l32.911-1.516 16.087-26.801c8.848-14.74 18.231-29.894 20.85-33.675 3.901-5.631-4.459-17.718-46.227-66.833l-50.989-59.959 1.927-23.234c2.279-27.481 14.008-42.635 36.222-46.803 30.316-5.687 45.176 2.874 89.049 51.301l40.817 45.055 9.573-17.92c5.265-9.856 15.627-32.207 23.027-49.669 12.799-30.205 13.209-32.949 8.436-56.407-6.504-31.963-24.002-62.305-52.708-91.398-56.452-57.213-117.922-77.518-174.961-57.794z" />
<glyph unicode="&#xe92a;" d="M480.267 770.884c-28.169 26.107-16.85 75.046 19.017 82.22 29.676 5.935 53.667-8.027 58.553-34.075 6.487-34.578-12.313-58.622-45.837-58.622-15.583 0-23.109 2.485-31.733 10.478z" />
<glyph unicode="&#xe92b;" d="M759 191.5l44-16.5q35 0 60.25-25.25t25.25-60.25v0q0-35.5-25.25-60.5t-60.25-25h-582q-36 0-61 25t-25 60.5v0q0 35 25 60.25t61 25.25l46 16.5q21 116 27.25 217.5t13.25 209v68h-69v203.5h136.5v-100h69.5v100h135v-100h69.5v100h136.5v-203.5h-69v-68q6-112.5 13-211.5t29.5-215zM460.5 276h103v-79.5h-103v79.5zM460.5 497.5h103v-77h-103v77zM529.5 387h101.5v-77h-101.5v77zM393 387h101v-77h-101v77zM529.5 609h101.5v-76.5h-101.5v76.5zM393 609h101v-76.5h-101v76.5zM684.5 609v34h-343l-1-34h18.5v-76.5h-25.5l-1-35h94v-77h-99.5l-2.5-33.5h34.5v-77h-41.5l-2-34h111v-79.5h-138.5v-39h448v39h-139v79.5h115l-3.5 34h-43.5v77h36l-2.5 33.5h-101.5v77h94.5v35h-26.5v76.5h19.5z" />
<glyph unicode="&#xe92c;" d="M290.712 175.512v17.356h138.847v86.78h-56.407c-59.479 0-59.222-0.099-53.672 20.61 2.209 8.242 5.58 9.763 21.636 9.763h19.019v78.102h-17.862c-16.406 0-17.649 0.796-15.246 9.763 1.439 5.37 2.643 12.203 2.676 15.186 0.044 4.021 12.963 5.424 49.958 5.424h49.898v82.441h-95.458v15.186c0 13.981 1.033 15.186 13.017 15.186h13.017v39.051c0 36.158-0.643 39.051-8.678 39.051-7.025 0-8.678 2.893-8.678 15.186v15.186h338.441v-15.186c0-12.294-1.653-15.186-8.678-15.186-8.035 0-8.678-2.893-8.678-39.051v-39.051h13.017c11.984 0 13.017-1.205 13.017-15.186v-15.186h-95.458v-82.441h104.136v-15.186c0-14.825-0.413-15.186-17.356-15.186h-17.356v-78.102h43.39v-30.373h-112.814v-86.78h138.847v-34.712h-442.576v17.356zM564.068 236.258v43.39h-104.136v-86.78h104.136v43.39zM494.644 349.071v39.051h-104.136v-78.102h104.136v39.051zM633.492 349.071v39.051h-104.136v-78.102h104.136v39.051zM564.068 459.715v41.22h-104.136v-82.441h104.136v41.22zM494.644 570.359v39.051h-104.136v-78.102h104.136v39.051zM633.492 570.359v39.051h-104.136v-78.102h104.136v39.051z" />
<glyph unicode="&#xe92d;" d="M383 605l-6.5-39q20.5-2.5 36.5-2.5 65 0 99 43 15-19.5 41-29.25t57.5-13.75q20-3 38 1.5l-8.5 40q-37.5-9.5-74.5 9.75t-53.5 48.75q-17.5-28-51.5-47.25t-77.5-11.25zM438 480l74-39 76 39-76 39zM438 386l74-39 76 39-76 39zM585 428.5l74-38.5 76.5 38.5-76.5 39.5zM288.5 428.5l74.5-38.5 76 38.5-76 39.5zM570 720q41-16.5 67-50.5t26.5-76.5q23 7.5 39 23.5t31 37q17-66 75-66 27 0 57 17t48 45.5l-195.5-374.5q26.5-2 47-21.25t20.5-46.75v0q0-15.5-9-32.5h26.5q35 0 60.25-25.25t25.25-60.25v0q0-35.5-25.25-60.5t-60.25-25h-582q-36 0-61 25t-25 60.5v0q0 35 25 60.25t61 25.25h24.5q-7.5 10-7.5 32.5v0q0 27.5 20.5 46.75t47.5 20.75l-195.5 375q42.5-62.5 103.5-62.5 59 0 76.5 65.5 26.5-42 72-59.5-1 42 24.5 76t66.5 50.5q-16.5 22-16.5 48 0 31 21.75 53t53.25 22q31 0 53-22t22-53q0-26.5-17-48zM567.5 702.5l-16.5 27q-17-15-39-15-20.5 0-35.5 13.5l-21.5-25.5q23.5-22 57-22t55.5 22zM332 305q-17.5 0-17.5-18.5v0q0-18.5 17.5-18.5h360q17.5 0 17.5 18.5v0q0 18.5-17.5 18.5h-360zM274.5 183q-18.5 0-18.5-20.5v0q0-21 18.5-21h474.5q19 0 19 21v0q0 20.5-19 20.5h-474.5z" />
<glyph unicode="&#xe92e;" d="M267.305 147.306c-5.129 3.751-7.222 9.923-6.253 18.441l1.457 12.803h498.983l1.457-12.803c2.792-24.532 7.521-24.078-250.948-24.078-187.537 0-238.594 1.176-244.695 5.638z" />
<glyph unicode="&#xe92f;" d="M318.089 278.936c-1.498 3.904-0.736 10.25 1.694 14.102 3.955 6.269 24.103 7.004 192.218 7.004s188.263-0.734 192.218-7.004c2.43-3.852 3.192-10.198 1.694-14.102-2.465-6.423-20.91-7.098-193.911-7.098s-191.447 0.675-193.911 7.098z" />
<glyph unicode="&#xe930;" d="M625.898 409.721c-17.302 8.732-31.458 17.047-31.458 18.477s14.608 10.278 32.462 19.662l32.462 17.061 32.623-16.697c17.943-9.183 32.623-18.030 32.623-19.659 0-2.463-63.095-35.781-66.241-34.98-0.557 0.142-15.169 7.402-32.471 16.134z" />
<glyph unicode="&#xe931;" d="M478.25 367.567c-17.369 9.633-30.717 18.911-29.662 20.619s15.813 9.826 32.794 18.041l30.875 14.937 71.298-35.344-35.681-17.94c-19.625-9.867-36.213-17.914-36.862-17.883s-15.392 7.939-32.762 17.571v0z" />
<glyph unicode="&#xe932;" d="M476.215 462.239c-16.102 8.635-29.273 16.676-29.27 17.869s14.8 9.764 32.88 19.046l32.873 16.877 32.146-16.877c17.68-9.282 32.134-17.853 32.119-19.046-0.045-3.69-59.993-34.746-65.901-34.14-3.065 0.314-18.746 7.636-34.848 16.271v0z" />
<glyph unicode="&#xe933;" d="M328.69 410.171c-16.102 8.635-29.282 17.18-29.288 18.99s14.674 10.557 32.624 19.438l32.636 16.149 32.412-17.269c17.827-9.498 32.429-18.305 32.449-19.572 0.046-2.898-64.059-34.782-68.374-34.007-1.75 0.314-16.357 7.636-32.459 16.271v0z" />
<glyph unicode="&#xe934;" d="M381.49 583.159l2.632 16.271 28.143 2.477c34.121 3.004 56.397 13.086 81.002 36.661l18.574 17.797 16.243-16.635c23.881-24.456 54.105-38.132 84.272-38.132 20.005 0 25.305-1.49 27.007-7.593 1.165-4.176 3.474-12.281 5.131-18.010l3.014-10.417-34.658 2.375c-38.161 2.616-69.673 14.090-88.678 32.289l-11.691 11.196-19.802-17.431c-22.674-19.958-45.401-27.121-86.054-27.121h-27.768l2.632 16.271z" />
<glyph unicode="&#xe935;" d="M478.894 690.052c-18.068 8.18-19.706 11.869-10.622 23.913 6.665 8.836 8.935 9.475 17.458 4.913 8.673-4.641 32.471-4.436 58.154 0.501 4.645 0.893 10.714-2.435 14.424-7.91 5.939-8.764 5.554-10.009-5.295-17.117-15.253-9.994-56.285-12.375-74.119-4.301z" />
<glyph unicode="&#xe936;" d="M509 625q-40 0-68-5.75t-28-13.75q0-8.5 28-14t68-5.5q39 0 67.5 5.5t28.5 14q0 8-28.5 13.75t-67.5 5.75zM649 482.5q3.5-129 45-218.25t96-89.25h13q35 0 60.25-25.25t25.25-60.25v0q0-35.5-25.25-60.5t-60.25-25h-582q-36 0-61 25t-25 60.5v0q0 35 25 60.25t61 25.25h14.5q53 0 94.75 89.25t46.75 218.25h-71q-28.5 0-48.25 19.5t-19.75 48v0q0 28 19.75 48t48.25 20h107.5q-57 46-57 119.5 0 64 45.5 109.75t110 45.75q64 0 109.5-45.75t45.5-109.75q0-73-56-119.5h107q27.5 0 47.5-20t20-48v0q0-28.5-20-48t-47.5-19.5h-69zM410 490q-17 0-17-19v0q0-18.5 17-18.5h204q17 0 17 18.5v0q0 19-17 19h-204zM307.5 193q-17.5 0-17.5-19.5v0q0-19.5 17.5-19.5h409q17.5 0 17.5 19.5v0q0 19.5-17.5 19.5h-409z" />
<glyph unicode="&#xe937;" d="M295.051 165.098c-3.3 6.166-3.3 11.19 0 17.356 4.547 8.496 9.085 8.678 216.949 8.678s212.402-0.182 216.949-8.678c3.3-6.166 3.3-11.19 0-17.356-4.547-8.496-9.085-8.678-216.949-8.678s-212.402 0.182-216.949 8.678z" />
<glyph unicode="&#xe938;" d="M397.383 462.93c-1.503 3.916-1.58 10.75-0.172 15.186 2.409 7.589 9.201 8.067 114.617 8.067 99.879 0 112.354-0.774 114.789-7.12 1.503-3.916 1.58-10.75 0.172-15.186-2.409-7.589-9.201-8.067-114.617-8.067-99.879 0-112.354 0.774-114.789 7.12z" />
<glyph unicode="&#xe939;" d="M438.92 594.636c-22.089 5.222-26.122 11.738-11.152 18.018 18.424 7.728 124.718 9.68 151.486 2.781 46.772-12.054 11.278-24.497-69.424-24.339-31.024 0.061-62.933 1.654-70.91 3.54z" />
<glyph unicode="&#xe93a;" d="M416.5 344q13-4.5 29.25-6.5t25.25 11.5q-12 25.5-12.5 60.25t22 69.25q5 9 15 23.75t15.5 20.75q0 24-16.5 18t-6.5 1q-23-19.5-45-54-30-46-38.25-80.25t11.75-63.75zM414 764q-37.5-21-26.5-39 10-18 47 3.5 36.5 21.5 27 39.5-11 18-47.5-4zM340.5 305q-17 0-17-18.5v0q0-18.5 17-18.5h343q17 0 17 18.5v0q0 18.5-17 18.5h-343zM274 183q-18 0-18-20v0q0-19.5 18-19.5h476q18 0 18 19.5v0q0 20-18 20h-476zM721.5 275q23.5-3.5 43.75-21.75t20.25-45.75v0q0-17-7.5-32.5h23q35.5 0 60.75-25.25t25.25-60.25v0q0-35.5-25.25-60.5t-60.75-25h-578.5q-35.5 0-60.5 25t-25 60.5v0q0 35 25 60.25t60.5 25.25h23.5q-8 16.5-8 32.5v0q0 27.5 20.25 48t50.25 23.5q-2.5 46.5-1.5 93t15.5 90q28.5 60.5 59.5 88t71.5 41q-33.5 1.5-37.75 2t-28.25 14q-24 6.5-32 7t-42.5-10q-37.5-6-55.5-4t-19 36q-15 21-31.25 45.25t13.25 58.25q79.5 25 115.25 27.5t74.75 40q49.5 10.5 70 26.75t20.5 59.25q27-5.5 47.5-23.75t20.5-47.75q55.5-13.5 74.25-32.75t46.25-42.25q34.5-45.5 35.75-79.5t-3.75-68.5q-15.5-33.5-31.5-62.25t-24-73.75q0-43.5 13.5-78.5t35.5-64zM480 580.5q6 0 11-0.75t15.5 0.75q36 5 59.75 29t16.75 38q-3 18.5-25.5 18.5-8.5-49-58-57-8-1.5-12.5-2.5t-14-4q-22.5-15 7-22z" />
<glyph unicode="&#xe93b;" d="M262.043 152.164c-1.315 3.426-1.748 10.764-0.962 16.307l1.428 10.078h498.983v-30.373l-248.529-1.12c-212.673-0.959-248.874-0.222-250.919 5.108z" />
<glyph unicode="&#xe93c;" d="M326.767 278.936c-1.498 3.904-0.736 10.25 1.694 14.102 3.949 6.261 23.411 7.004 183.54 7.004s179.59-0.743 183.54-7.004c2.43-3.852 3.192-10.198 1.694-14.102-2.462-6.416-20.266-7.098-185.234-7.098s-182.771 0.682-185.233 7.098z" />
<glyph unicode="&#xe93d;" d="M424.392 344.203c-4.035 1.064-10.626 10.548-14.646 21.074-6.209 16.257-6.526 22.249-2.11 39.788 14.244 56.567 77.354 144.951 95.496 133.738 7.915-4.892 5.026-13.263-15.164-43.949-25.211-38.318-34.257-68.423-30.235-100.62 1.663-13.313 4.649-28.477 6.634-33.699 2.26-5.945 1.782-11.322-1.28-14.384-4.797-4.797-24.191-5.773-38.695-1.948v0z" />
<glyph unicode="&#xe93e;" d="M483.797 583.223c-27.506 4.848-22.196 14.858 12.147 22.897 32.069 7.507 45.327 16.497 55.586 37.69 4.935 10.195 11.659 18.535 14.942 18.535 6.6 0 14.952-13.086 14.952-23.428 0-9.058-24.517-36.31-39.754-44.19-14.588-7.544-45.492-13.687-57.873-11.505z" />
<glyph unicode="&#xe93f;" d="M390.493 727.46c-3.827 7.15-2.686 10.681 6.383 19.75 16.006 16.006 45.497 28.365 55.241 23.149 16.281-8.713 5.205-26.551-26.544-42.748-21.784-11.113-29.196-11.145-35.080-0.151v0z" />
<glyph unicode="&#xe940;" d="M520.5 534q-21-20.5-0.5-40.5 19-20.5 43 1.5l98 110.5q10-9.5 14-17.5t11.5-20q14-22.5 27-50 13-28 20-53.5-4.5-53-33-104t-73.5-82.5l90-1q28.5 0 48.5-20.25t20-48.25v-0.5q0-13-9-33h26.5q35 0 60.25-25.25t25.25-60.25v0q0-35.5-25.25-60.5t-60.25-25h-582q-36 0-61 25t-25 60.5v0q0 35 25 60.25t61 25.25h28q-10.5 12.5-10.5 33v0.5q0 28 20 48.25t48.5 20.25h87.5q-47 28.5-75.5 78t-28 109.5q29.5 93.5 74.75 162.25t62.75 91.25q6.5 20 23.5 30.5-26 22-26 58.5 0 35.5 25 60.75t61 25.25q35 0 60.25-25.25t25.25-60.75q0-32.5-24.5-64 10-20 12-23.5 15.5-22 40.5-70zM558 715l-17.5 35q-10.5-9-28.5-9-14.5 0-26 7.5l-22-33.5q23-13.5 48-13.5 26 0 46 13.5zM426 296.5q-17 0-17-18.5v0q0-19 17-19h172q17 0 17 19v0q0 18.5-17 18.5h-172zM290.5 182.5q-16.5 0-16.5-18.5v0q0-18.5 16.5-18.5h442.5q17 0 17 18.5v0q0 18.5-17 18.5h-442.5z" />
<glyph unicode="&#xe941;" d="M487.264 707.709c-18.475 5.638-19.599 8.563-9.448 24.595 7.9 12.477 9.673 13.235 21.399 9.147 8.933-3.114 16.919-3.016 26.506 0.326 7.546 2.631 14.132 4.286 14.635 3.679s4.103-7.375 8-15.040c6.744-13.263 6.674-14.156-1.443-18.5-12.736-6.816-43.897-9.015-59.648-4.208z" />
<glyph unicode="&#xe942;" d="M417.494 265.679c-7.031 7.031-6.709 18.671 0.686 24.808 4.165 3.457 33.282 4.604 96.073 3.785 80.316-1.047 90.616-1.999 94.883-8.768 3.489-5.535 3.488-9.652 0-15.186-4.269-6.773-14.595-7.719-95.569-8.761-66.955-0.862-92.171 0.22-96.073 4.122z" />
<glyph unicode="&#xe943;" d="M280.625 150.597c-6.027 6.027-2.632 23.033 5.462 27.365 5.467 2.926 84.596 4.492 226.967 4.492 235.236 0 235.668-0.041 232.577-21.938l-1.497-10.604-230.29-1.122c-126.66-0.617-231.609 0.196-233.22 1.808z" />
<glyph unicode="&#xe944;" d="M592 345.5l-78 39.5-80-39.5 80-39zM327 310l70.5 35.5-78 39.5-15.5-8zM702 309l21.5 65.5-15 10.5-80-39.5zM340.5 275.5q-17 0-17-17v0q0-17 17-17h343q17 0 17 17v0q0 17-17 17h-343zM273 174.5q-17 0-17-18v0q0-18.5 17-18.5h478q17 0 17 18.5v0q0 18-17 18h-478zM443.5 652q-17 0-17-17v0q0-17 17-17h137q16.5 0 16.5 17v0q0 17-16.5 17h-137zM426.5 770.5v68.5l59.5-8.5-8 60.5h67.5l-8-60.5 59.5 8.5v-68.5l-59.5 9v-61.5h-51.5v61.5zM247 175q-9 15.5-9 32.5v0q0 27.5 20 47.25t48.5 18.25q-27.5 91.5-44.5 128.5t-56 79q-32 36-51.5 54.75t-19.5 46.75v0.5q0 27.5 19.75 47.5t48.25 20h214.5q-8.5 10-8.5 18v0q0 50 50 50h106q50 0 50-50v0q0-8.5-9-18h215q27.5 0 47.5-20t20-47.5v-0.5q0-28-20.75-45.75t-53.75-53.75q-36-44.5-54-83.5t-42-126q27.5 1.5 47.5-18.25t20-47.25v0q0-17-7.5-32.5h25q35 0 60.25-25.25t25.25-60.25v0q0-35.5-25.25-60.5t-60.25-25h-582q-36 0-61 25t-25 60.5v0q0 35 25 60.25t61 25.25h26zM290.5 446.5q-16.5 0-16.5-17v0q0-17 16.5-17h442.5q17 0 17 17v0q0 17-17 17h-442.5z" />
<glyph unicode="&#xe945;" d="M436.425 623.799c-4.295 3.141-7.082 9.487-6.194 14.102 1.528 7.934 5.979 8.391 81.768 8.391s80.24-0.457 81.768-8.391c3.2-16.618-9.984-19.812-81.768-19.812-49.179 0-69.907 1.566-75.575 5.711z" />
<glyph unicode="&#xe946;" d="M279.376 420.373c-1.328 3.461-1.735 9.824-0.904 14.14 1.435 7.453 13.156 7.847 233.587 7.847h232.076v-26.034l-231.172-1.123c-198.688-0.965-231.512-0.239-233.587 5.17z" />
<glyph unicode="&#xe947;" d="M475.225 328.138l-34.605 17.684 73.537 36.974 34.718-17.366c19.095-9.552 35.408-17.992 36.252-18.757 1.886-1.711-67.278-36.736-71.946-36.434-1.843 0.119-18.923 8.175-37.956 17.9v0z" />
<glyph unicode="&#xe948;" d="M317.169 345.294c-13.127 40.757-9.188 42.966 36.156 20.283 19.258-9.633 35.702-18.139 36.543-18.902 1.344-1.219-57.656-32.317-61.313-32.317-0.783 0-5.907 13.921-11.387 30.935z" />
<glyph unicode="&#xe949;" d="M666.156 330.304l-30.251 15.518 32.421 16.596c32.633 16.705 45.19 20.108 49.351 13.375 2.534-4.1-15.203-61.554-18.9-61.221-1.303 0.117-15.983 7.197-32.621 15.732z" />
<glyph unicode="&#xe94a;" d="M328.363 247.782c-5.81 5.81-2.775 18.631 5.454 23.035 5.378 2.878 69.768 4.492 179.239 4.492 180.62 0 188.501-0.845 184.85-19.812-1.562-8.115-7.613-8.428-184.109-9.522-100.372-0.622-183.816 0.191-185.433 1.808z" />
<glyph unicode="&#xe94b;" d="M262.019 147.019c-1.328 3.46-1.734 9.822-0.903 14.137 1.437 7.461 13.769 7.847 250.943 7.847h249.432v-26.034l-248.529-1.12c-213.805-0.964-248.867-0.241-250.943 5.17z" />
<glyph unicode="&#xe951;" horiz-adv-x="1025" d="M512.247 891.474h69.034v-68.033h103.551v68.033h119.058v-178.587l-80.539-93.045q26.013-33.016 1-69.534-4.002-6.503-4.002-12.006 0-6.503 4.002-12.506 10.505-15.508 10.005-44.021 0-28.014-10.505-44.021-3.502-5.003-3.502-10.505 0-7.004 4.502-13.007 23.511-35.517-1-70.034-3.502-6.003-3.502-11.506t3.502-11.506q11.005-16.508 11.005-46.022 0-29.014-12.006-43.021l81.040-40.52v-43.021h33.516v-145.071h-650.818v144.571h34.017v43.021l80.539 41.020q-12.006 14.007-12.006 43.021t11.005 45.522q4.002 5.503 4.002 11.506 0 5.002-4.002 11.505-24.512 35.017-0.5 70.034 4.502 8.004 4.502 13.006t-3.502 11.006q-11.005 16.008-11.506 44.021 0 28.514 10.505 44.021 4.502 6.003 4.502 12.506 0 5.503-4.002 11.505-25.512 36.518 1.001 70.034l-80.539 92.545v178.587h119.058v-67.533l103.050-0.5v68.033z" />
<glyph unicode="&#xe952;" horiz-adv-x="1025" d="M327.657 644.353q85.542 13.507 184.59 13.507 100.549 0 186.091-13.507l29.014 36.518q-102.050 18.009-215.105 18.009-114.056 0-215.605-18.009z" />
<glyph unicode="&#xe953;" horiz-adv-x="1025" d="M222.106 114.094v-76.537h579.783v76.537z" />
<glyph unicode="&#xe954;" horiz-adv-x="1025" d="M512.247 216.144q-104.051 0-188.592-7.004l-67.533-36.017v-25.012h512.25v25.012q-17.008 9.004-34.017 18.009t-33.516 18.009q-90.044 7.004-188.592 7.004z" />
<glyph unicode="&#xe955;" horiz-adv-x="1025" d="M768.372 857.457h-51.525v-70.034h-171.083v69.534h-67.533v-69.534h-170.583v70.034h-51.525q0-32.016 0-64.031 0-31.515 0-63.031 64.031 4.002 127.562 7.504 64.031 3.502 128.563 3.502 121.559 0 256.125-11.005z" />
<glyph unicode="&#xe956;" horiz-adv-x="1025" d="M602.791 617.84q-16.508-12.006-16.508-34.017t16.508-34.017q15.508-12.006 46.022-12.006t46.523 12.006 16.008 34.017-16.008 34.017q-16.008 11.506-46.523 11.506t-46.022-11.506z" />
<glyph unicode="&#xe957;" horiz-adv-x="1025" d="M468.226 617.84q-15.508-12.006-15.508-34.017t15.508-34.017q15.007-12.006 43.521-12.006 29.014 0 44.522 12.006 15.007 12.006 15.007 34.017t-15.007 34.017q-15.508 11.506-44.522 11.506-28.514 0-43.521-11.506z" />
<glyph unicode="&#xe958;" horiz-adv-x="1025" d="M329.158 617.84q-16.508-12.006-16.508-34.017t16.508-34.017q15.508-12.006 45.522-12.006 30.515 0 47.023 12.006 16.008 12.006 16.008 34.017t-16.008 34.017q-16.508 11.506-47.023 11.506-30.015 0-45.522-11.506z" />
<glyph unicode="&#xe959;" horiz-adv-x="1025" d="M665.322 516.291q-6.003-12.006-6.003-34.517 0-22.011 6.003-33.516 5.503-12.006 17.508-12.006t18.009 12.006q6.003 11.506 6.003 33.516 0 22.511-6.003 34.517-6.003 11.005-18.009 11.005t-17.508-11.005z" />
<glyph unicode="&#xe95a;" horiz-adv-x="1025" d="M537.26 516.291q-15.007-12.006-15.007-34.517 0-22.011 15.007-33.516 15.007-12.006 43.021-12.006 28.514 0 43.521 12.006 15.007 11.506 15.007 33.516 0 22.511-15.007 34.517-15.007 11.506-43.521 11.506-28.014 0-43.021-11.506z" />
<glyph unicode="&#xe95b;" horiz-adv-x="1025" d="M400.693 516.291q-15.007-12.006-15.007-34.517 0-22.011 15.007-33.516 14.507-12.006 43.021-12.006t43.521 12.006q14.507 11.506 14.507 33.516 0 22.511-14.507 34.517-15.007 11.506-43.521 11.506t-43.021-11.506z" />
<glyph unicode="&#xe95c;" horiz-adv-x="1025" d="M323.655 516.291q-6.003-12.006-6.003-34.517 0-22.011 6.003-33.516 6.003-12.006 17.509-12.006 12.006 0 18.009 12.006 6.003 11.506 6.003 33.516 0 22.511-6.003 34.517-6.003 11.005-18.009 11.005-11.506 0-17.509-11.005z" />
<glyph unicode="&#xe95d;" horiz-adv-x="1025" d="M665.322 310.69q-6.003-11.505-6.003-34.016t6.003-34.017q5.503-11.506 17.508-11.506t18.009 11.506 6.003 34.017-6.003 34.016q-6.003 11.006-18.009 11.006t-17.508-11.006z" />
<glyph unicode="&#xe95e;" horiz-adv-x="1025" d="M323.655 310.69q-6.003-11.505-6.003-34.016t6.003-34.017 17.509-11.506q12.006 0 18.009 11.506t6.003 34.017-6.003 34.016q-6.003 11.006-18.009 11.006-11.506 0-17.509-11.006z" />
<glyph unicode="&#xe95f;" horiz-adv-x="1025" d="M400.693 310.69q-15.007-12.006-15.007-36.017t15.007-32.016q14.007-8.004 44.022-8.004 30.515 0 42.521 8.004 11.506 8.004 13.006 32.016t-13.006 36.017q-15.007 11.506-43.521 11.506t-43.021-11.506z" />
<glyph unicode="&#xe960;" horiz-adv-x="1025" d="M537.26 310.69q-15.007-12.006-15.007-36.017t15.007-32.016q14.507-8.004 43.021-8.004 29.014 0 43.521 8.004 14.007 8.004 14.507 32.016t-14.507 36.017q-15.007 11.506-43.521 11.506-28.014 0-43.021-11.506z" />
<glyph unicode="&#xe961;" horiz-adv-x="1025" d="M602.791 412.74q-16.508-12.006-16.508-34.517 0-22.011 16.508-33.516 15.508-12.006 46.022-12.006t46.523 12.006q16.008 11.506 16.008 33.516 0 22.511-16.008 34.517-16.008 11.506-46.523 11.506t-46.022-11.506z" />
<glyph unicode="&#xe962;" horiz-adv-x="1025" d="M468.226 412.74q-15.508-12.006-15.508-34.517 0-22.011 15.508-33.516 15.007-12.006 43.521-12.006 29.014 0 44.522 12.006 15.007 11.506 15.007 33.516 0 22.511-15.007 34.517-15.508 11.506-44.522 11.506-28.514 0-43.521-11.506z" />
<glyph unicode="&#xe963;" horiz-adv-x="1025" d="M329.158 412.74q-16.508-12.006-16.508-34.517 0-22.011 16.508-33.516 15.508-12.006 45.522-12.006 30.515 0 47.023 12.006 16.008 11.506 16.008 33.516 0 22.511-16.008 34.517-16.508 11.506-47.023 11.506-30.015 0-45.522-11.506z" />
<glyph unicode="&#xe964;" horiz-adv-x="1025" d="M512.247 891.474h69.034v-68.033h103.551v68.033h119.058v-178.587l-80.539-93.045q26.013-33.016 1-69.534-4.002-6.503-4.002-12.006 0-6.503 4.002-12.506 10.505-15.508 10.005-44.021 0-28.014-10.505-44.021-3.502-5.003-3.502-10.505 0-7.004 4.502-13.007 23.511-35.517-1-70.034-3.502-6.003-3.502-11.506t3.502-11.506q11.005-16.508 11.005-46.022 0-29.014-12.006-43.021l81.040-40.52v-43.021h33.516v-145.071h-650.818v144.571h34.017v43.021l80.539 41.020q-12.006 14.007-12.006 43.021t11.005 45.522q4.002 5.503 4.002 11.506 0 5.002-4.002 11.505-24.512 35.017-0.5 70.034 4.502 8.004 4.502 13.006t-3.502 11.006q-11.005 16.008-11.506 44.021 0 28.514 10.505 44.021 4.502 6.003 4.502 12.506 0 5.503-4.002 11.505-25.512 36.518 1.001 70.034l-80.539 92.545v178.587h119.058v-67.533l103.050-0.5v68.033zM327.657 644.353q85.542 13.507 184.59 13.507 100.549 0 186.091-13.507l29.014 36.518q-102.050 18.009-215.105 18.009-114.056 0-215.605-18.009zM222.106 114.094v-76.537h579.783v76.537zM512.247 216.144q-104.051 0-188.592-7.004l-67.533-36.017v-25.012h512.25v25.012q-17.008 9.004-34.017 18.009t-33.516 18.009q-90.044 7.004-188.592 7.004zM768.372 857.457h-51.525v-70.034h-171.083v69.534h-67.533v-69.534h-170.583v70.034h-51.525q0-32.016 0-64.031 0-31.515 0-63.031 64.031 4.002 127.562 7.504 64.031 3.502 128.563 3.502 121.559 0 256.125-11.005zM602.791 617.84q-16.508-12.006-16.508-34.017t16.508-34.017q15.508-12.006 46.022-12.006t46.523 12.006 16.008 34.017-16.008 34.017q-16.008 11.506-46.523 11.506t-46.022-11.506zM468.226 617.84q-15.508-12.006-15.508-34.017t15.508-34.017q15.007-12.006 43.521-12.006 29.014 0 44.522 12.006 15.007 12.006 15.007 34.017t-15.007 34.017q-15.508 11.506-44.522 11.506-28.514 0-43.521-11.506zM329.158 617.84q-16.508-12.006-16.508-34.017t16.508-34.017q15.508-12.006 45.522-12.006 30.515 0 47.023 12.006 16.008 12.006 16.008 34.017t-16.008 34.017q-16.508 11.506-47.023 11.506-30.015 0-45.522-11.506zM665.322 516.291q-6.003-12.006-6.003-34.517 0-22.011 6.003-33.516 5.503-12.006 17.508-12.006t18.009 12.006q6.003 11.506 6.003 33.516 0 22.511-6.003 34.517-6.003 11.005-18.009 11.005t-17.508-11.005zM537.26 516.291q-15.007-12.006-15.007-34.517 0-22.011 15.007-33.516 15.007-12.006 43.021-12.006 28.514 0 43.521 12.006 15.007 11.506 15.007 33.516 0 22.511-15.007 34.517-15.007 11.506-43.521 11.506-28.014 0-43.021-11.506zM400.693 516.291q-15.007-12.006-15.007-34.517 0-22.011 15.007-33.516 14.507-12.006 43.021-12.006t43.521 12.006q14.507 11.506 14.507 33.516 0 22.511-14.507 34.517-15.007 11.506-43.521 11.506t-43.021-11.506zM323.655 516.291q-6.003-12.006-6.003-34.517 0-22.011 6.003-33.516 6.003-12.006 17.509-12.006 12.006 0 18.009 12.006 6.003 11.506 6.003 33.516 0 22.511-6.003 34.517-6.003 11.005-18.009 11.005-11.506 0-17.509-11.005zM665.322 310.69q-6.003-11.505-6.003-34.016t6.003-34.017q5.503-11.506 17.508-11.506t18.009 11.506 6.003 34.017-6.003 34.016q-6.003 11.006-18.009 11.006t-17.508-11.006zM323.655 310.69q-6.003-11.505-6.003-34.016t6.003-34.017 17.509-11.506q12.006 0 18.009 11.506t6.003 34.017-6.003 34.016q-6.003 11.006-18.009 11.006-11.506 0-17.509-11.006zM400.693 310.69q-15.007-12.006-15.007-36.017t15.007-32.016q14.007-8.004 44.022-8.004 30.515 0 42.521 8.004 11.506 8.004 13.006 32.016t-13.006 36.017q-15.007 11.506-43.521 11.506t-43.021-11.506zM537.26 310.69q-15.007-12.006-15.007-36.017t15.007-32.016q14.507-8.004 43.021-8.004 29.014 0 43.521 8.004 14.007 8.004 14.507 32.016t-14.507 36.017q-15.007 11.506-43.521 11.506-28.014 0-43.021-11.506zM602.791 412.74q-16.508-12.006-16.508-34.517 0-22.011 16.508-33.516 15.508-12.006 46.022-12.006t46.523 12.006q16.008 11.506 16.008 33.516 0 22.511-16.008 34.517-16.008 11.506-46.523 11.506t-46.022-11.506zM468.226 412.74q-15.508-12.006-15.508-34.517 0-22.011 15.508-33.516 15.007-12.006 43.521-12.006 29.014 0 44.522 12.006 15.007 11.506 15.007 33.516 0 22.511-15.007 34.517-15.508 11.506-44.522 11.506-28.514 0-43.521-11.506zM329.158 412.74q-16.508-12.006-16.508-34.517 0-22.011 16.508-33.516 15.508-12.006 45.522-12.006 30.515 0 47.023 12.006 16.008 11.506 16.008 33.516 0 22.511-16.008 34.517-16.508 11.506-47.023 11.506-30.015 0-45.522-11.506z" />
<glyph unicode="&#xe965;" horiz-adv-x="1025" d="M306.64 408.23q-14.007 12.006-43.021 47.523-50.525 57.028-56.528 57.028-5.002 0-5.002-7.004 0-9.004 16.008-36.518 14.007-39.519 23.011-72.535 22.511 4.502 65.532 11.506z" />
<glyph unicode="&#xe966;" horiz-adv-x="1025" d="M424.698 418.234q-13.006 11.006-25.012 36.518-14.507 29.514-35.017 91.545-8.004 24.512-15.007 41.52t-10.005 16.508q-1.501-0.5-1.501-8.004 0.5-7.504 0.5-12.006 0-13.507 12.506-68.533 12.006-57.028 12.006-81.54 0.5-15.007-3.001-21.51 26.013 3.502 64.532 5.503z" />
<glyph unicode="&#xe967;" horiz-adv-x="1025" d="M553.26 419.735q-14.507 16.508-19.009 55.527-2.001 15.507-5.503 44.522-3.001 29.514-4.502 73.036-1.501 31.515-5.002 54.527t-7.003 24.012q-4.002-1-7.003-24.012-2.501-23.011-4.002-54.527-2.501-43.521-6.003-73.036-3.502-29.014-5.002-44.522-4.502-42.021-19.009-55.527 10.005 0 20.010 1.5 10.505 2.001 21.010 2.001t20.51-2.001q10.505-1.5 20.51-1.5z" />
<glyph unicode="&#xe968;" horiz-adv-x="1025" d="M664.815 413.232q-3.502 7.504-3.502 21.010 0 25.512 12.506 81.54 12.006 56.027 12.006 68.533 0 16.008-0.5 16.508-7.004 1.5-25.512-54.527-19.009-58.028-35.017-91.545-11.506-24.012-24.512-37.018 23.511-1 64.531-4.502z" />
<glyph unicode="&#xe969;" horiz-adv-x="1025" d="M784.873 396.724q4.502 18.509 10.005 36.518 6.003 18.509 12.006 36.518 16.008 29.514 16.008 36.017 0 7.004-5.002 7.004-8.004 0-56.528-56.528-15.007-17.508-25.512-30.015-10.505-12.006-17.509-19.009 34.017-4.502 66.533-10.505z" />
<glyph unicode="&#xe96a;" horiz-adv-x="1025" d="M131.555 653.349q-33.516 0-33.516-33.516 0-34.017 33.516-34.017 34.017 0 34.017 34.017 0 33.516-34.017 33.516z" />
<glyph unicode="&#xe96b;" horiz-adv-x="1025" d="M536.752 776.409q7.504-81.040 15.007-162.079 8.004-80.539 16.008-161.079 0.5-11.506 11.506-11.506 8.004 0.5 11.005 7.004 43.521 105.051 64.031 162.579 21.010 58.028 25.512 71.535-23.011 22.011-23.011 49.524 0 24.012 17.008 41.020 17.508 17.509 42.020 17.509 24.012 0 41.020-17.509 17.508-17.008 17.508-41.020 0-43.521-45.022-59.029l-36.518-218.106q-2.501-15.007 10.505-15.007 10.505 0 16.008 5.503 60.029 60.029 86.042 93.045 26.513 33.016 37.018 46.023-11.006 14.507-11.006 35.017 0 58.529 58.529 58.529 24.012 0 41.020-17.508 17.508-17.008 17.508-41.020 0-24.512-17.508-41.52-17.008-17.008-41.020-17.008-7.504 0-13.506 1.5-40.020-86.542-64.031-177.086-20.51-73.536-25.512-139.568 3.002-14.007 3.502-14.507-1.5 6.003 2.001-11.506 2.001-8.004 2.001-15.508-3.002-8.004-12.506-18.009-8.504-9.504-12.506-37.518 18.509-26.013 18.509-42.020 0-42.020-81.040-72.035t-194.595-30.015q-114.056 0-195.095 30.015-80.539 30.015-80.539 72.035 0 16.508 19.51 43.021-6.003 28.514-13.006 36.518-10.005 10.005-13.006 18.009 0 6.503 1.501 15.007 1.001 4.002 1.501 7.004 0.5 3.502 1.001 5.003 2.001 5.503 4.002 15.507-5.002 63.031-24.512 138.568-26.013 95.046-64.532 178.087-8.504-2.501-17.509-2.501-58.529 0-58.529 58.529t58.529 58.529 58.529-58.529q0-18.009-9.004-32.516 29.514-37.518 59.029-70.034 30.015-32.016 66.032-70.534 4.502-6.503 13.006-6.503 14.507 0 13.006 15.007-1.001 4.502-12.506 71.535t-25.012 146.071q-47.523 13.006-47.523 59.529 0 24.012 17.008 41.020 17.509 17.509 41.52 17.509 58.529 0 58.529-58.529 0-26.013-20.010-47.523 2.501-10.505 12.506-42.020 10.005-31.015 31.015-82.040 11.506-28.014 23.011-56.528 12.006-28.014 24.012-55.527 3.001-6.503 10.505-6.503 10.505 0.5 12.006 11.005 1.001 6.003 30.515 322.658-35.517 19.009-35.517 56.528 0 24.012 17.008 41.52t41.52 17.509q24.012 0 41.020-17.509 17.509-17.508 17.509-41.52 0-34.017-32.516-56.027z" />
<glyph unicode="&#xe96c;" horiz-adv-x="1025" d="M401.686 259.157q-26.513 0-26.513-28.014t26.513-28.014q27.013 0 27.013 28.014t-27.013 28.014z" />
<glyph unicode="&#xe96d;" horiz-adv-x="1025" d="M249.112 359.206q6.003-24.512 10.505-44.522 5.002-19.509 8.504-42.521 4.002-2.001 9.004-2.001 89.043 33.516 234.614 33.516 147.572 0 238.616-34.017 5.003 1 7.504 2.501 3.001 22.511 8.004 41.020 5.003 19.009 11.005 44.021-57.028 16.008-124.561 26.513-67.533 11.005-140.068 11.005t-138.568-10.505-124.561-25.012z" />
<glyph unicode="&#xe96e;" horiz-adv-x="1025" d="M751.357 207.632l-36.017 34.517-46.022-18.509 36.518-34.517z" />
<glyph unicode="&#xe96f;" horiz-adv-x="1025" d="M575.771 243.149l-64.532 33.516-62.030-33.516 64.532-34.016z" />
<glyph unicode="&#xe970;" horiz-adv-x="1025" d="M359.666 223.139l-50.525 17.008-40.020-31.515 50.024-17.008z" />
<glyph unicode="&#xe971;" horiz-adv-x="1025" d="M889.925 653.349q-34.017 0-34.017-33.516 0-34.017 34.017-34.017 33.516 0 33.516 34.017 0 33.516-33.516 33.516z" />
<glyph unicode="&#xe972;" horiz-adv-x="1025" d="M305.639 766.404q-33.516 0-33.516-34.017 0-33.516 33.516-33.516 34.017 0 34.017 33.516 0 34.017-34.017 34.017z" />
<glyph unicode="&#xe973;" horiz-adv-x="1025" d="M510.74 866.453q-33.516 0-33.516-34.016 0-33.516 33.516-33.516t33.516 33.516q0 34.016-33.516 34.016z" />
<glyph unicode="&#xe974;" horiz-adv-x="1025" d="M715.84 766.404q-34.017 0-34.017-34.017 0-33.516 34.017-33.516 33.516 0 33.516 33.516 0 34.017-33.516 34.017z" />
<glyph unicode="&#xe975;" horiz-adv-x="1025" d="M622.294 259.157q-26.513 0-26.513-28.014t26.513-28.014q27.013 0 27.013 28.014t-27.013 28.014z" />
<glyph unicode="&#xe976;" horiz-adv-x="1025" d="M512.24 169.613q-95.046 0-161.579-14.507-66.032-14.507-66.032-41.52 0-28.014 66.032-45.022 66.532-17.008 161.579-17.008 94.546 0 162.579 17.008 68.533 17.008 68.533 45.022 0 27.013-68.533 41.52-68.033 14.507-162.579 14.507z" />
<glyph unicode="&#xe977;" horiz-adv-x="1025" d="M306.64 408.23q-14.007 12.006-43.021 47.523-50.525 57.028-56.528 57.028-5.002 0-5.002-7.004 0-9.004 16.008-36.518 14.007-39.519 23.011-72.535 22.511 4.502 65.532 11.506zM424.698 418.234q-13.006 11.006-25.012 36.518-14.507 29.514-35.017 91.545-8.004 24.512-15.007 41.52t-10.005 16.508q-1.501-0.5-1.501-8.004 0.5-7.504 0.5-12.006 0-13.507 12.506-68.533 12.006-57.028 12.006-81.54 0.5-15.007-3.001-21.51 26.013 3.502 64.532 5.503zM553.26 419.735q-14.507 16.508-19.009 55.527-2.001 15.507-5.503 44.522-3.001 29.514-4.502 73.036-1.501 31.515-5.002 54.527t-7.003 24.012q-4.002-1-7.003-24.012-2.501-23.011-4.002-54.527-2.501-43.521-6.003-73.036-3.502-29.014-5.002-44.522-4.502-42.021-19.009-55.527 10.005 0 20.010 1.5 10.505 2.001 21.010 2.001t20.51-2.001q10.505-1.5 20.51-1.5zM664.815 413.232q-3.502 7.504-3.502 21.010 0 25.512 12.506 81.54 12.006 56.027 12.006 68.533 0 16.008-0.5 16.508-7.004 1.5-25.512-54.527-19.009-58.028-35.017-91.545-11.506-24.012-24.512-37.018 23.511-1 64.531-4.502zM784.873 396.724q4.502 18.509 10.005 36.518 6.003 18.509 12.006 36.518 16.008 29.514 16.008 36.017 0 7.004-5.002 7.004-8.004 0-56.528-56.528-15.007-17.508-25.512-30.015-10.505-12.006-17.509-19.009 34.017-4.502 66.533-10.505zM131.555 653.349q-33.516 0-33.516-33.516 0-34.017 33.516-34.017 34.017 0 34.017 34.017 0 33.516-34.017 33.516zM536.752 776.409q7.504-81.040 15.007-162.079 8.004-80.539 16.008-161.079 0.5-11.506 11.506-11.506 8.004 0.5 11.005 7.004 43.521 105.051 64.031 162.579 21.010 58.028 25.512 71.535-23.011 22.011-23.011 49.524 0 24.012 17.008 41.020 17.508 17.509 42.020 17.509 24.012 0 41.020-17.509 17.508-17.008 17.508-41.020 0-43.521-45.022-59.029l-36.518-218.106q-2.501-15.007 10.505-15.007 10.505 0 16.008 5.503 60.029 60.029 86.042 93.045 26.513 33.016 37.018 46.023-11.006 14.507-11.006 35.017 0 58.529 58.529 58.529 24.012 0 41.020-17.508 17.508-17.008 17.508-41.020 0-24.512-17.508-41.52-17.008-17.008-41.020-17.008-7.504 0-13.506 1.5-40.020-86.542-64.031-177.086-20.51-73.536-25.512-139.568 3.002-14.007 3.502-14.507-1.5 6.003 2.001-11.506 2.001-8.004 2.001-15.508-3.002-8.004-12.506-18.009-8.504-9.504-12.506-37.518 18.509-26.013 18.509-42.020 0-42.020-81.040-72.035t-194.595-30.015q-114.056 0-195.095 30.015-80.539 30.015-80.539 72.035 0 16.508 19.51 43.021-6.003 28.514-13.006 36.518-10.005 10.005-13.006 18.009 0 6.503 1.501 15.007 1.001 4.002 1.501 7.004 0.5 3.502 1.001 5.003 2.001 5.503 4.002 15.507-5.002 63.031-24.512 138.568-26.013 95.046-64.532 178.087-8.504-2.501-17.509-2.501-58.529 0-58.529 58.529t58.529 58.529 58.529-58.529q0-18.009-9.004-32.516 29.514-37.518 59.029-70.034 30.015-32.016 66.032-70.534 4.502-6.503 13.006-6.503 14.507 0 13.006 15.007-1.001 4.502-12.506 71.535t-25.012 146.071q-47.523 13.006-47.523 59.529 0 24.012 17.008 41.020 17.509 17.509 41.52 17.509 58.529 0 58.529-58.529 0-26.013-20.010-47.523 2.501-10.505 12.506-42.020 10.005-31.015 31.015-82.040 11.506-28.014 23.011-56.528 12.006-28.014 24.012-55.527 3.001-6.503 10.505-6.503 10.505 0.5 12.006 11.005 1.001 6.003 30.515 322.658-35.517 19.009-35.517 56.528 0 24.012 17.008 41.52t41.52 17.509q24.012 0 41.020-17.509 17.509-17.508 17.509-41.52 0-34.017-32.516-56.027zM401.686 259.157q-26.513 0-26.513-28.014t26.513-28.014q27.013 0 27.013 28.014t-27.013 28.014zM249.112 359.206q6.003-24.512 10.505-44.522 5.002-19.509 8.504-42.521 4.002-2.001 9.004-2.001 89.043 33.516 234.614 33.516 147.572 0 238.616-34.017 5.003 1 7.504 2.501 3.001 22.511 8.004 41.020 5.003 19.009 11.005 44.021-57.028 16.008-124.561 26.513-67.533 11.005-140.068 11.005t-138.568-10.505-124.561-25.012zM751.357 207.632l-36.017 34.517-46.022-18.509 36.518-34.517zM575.771 243.149l-64.532 33.516-62.030-33.516 64.532-34.016zM359.666 223.139l-50.525 17.008-40.020-31.515 50.024-17.008zM889.925 653.349q-34.017 0-34.017-33.516 0-34.017 34.017-34.017 33.516 0 33.516 34.017 0 33.516-33.516 33.516zM305.639 766.404q-33.516 0-33.516-34.017 0-33.516 33.516-33.516 34.017 0 34.017 33.516 0 34.017-34.017 34.017zM510.74 866.453q-33.516 0-33.516-34.016 0-33.516 33.516-33.516t33.516 33.516q0 34.016-33.516 34.016zM715.84 766.404q-34.017 0-34.017-34.017 0-33.516 34.017-33.516 33.516 0 33.516 33.516 0 34.017-33.516 34.017zM622.294 259.157q-26.513 0-26.513-28.014t26.513-28.014q27.013 0 27.013 28.014t-27.013 28.014zM512.24 169.613q-95.046 0-161.579-14.507-66.032-14.507-66.032-41.52 0-28.014 66.032-45.022 66.532-17.008 161.579-17.008 94.546 0 162.579 17.008 68.533 17.008 68.533 45.022 0 27.013-68.533 41.52-68.033 14.507-162.579 14.507z" />
<glyph unicode="&#xe978;" horiz-adv-x="1025" d="M512.241 38.045h231.113q-15.007 59.529-57.528 105.552-16.508 19.009-31.015 31.515-48.023 39.019-78.538 92.045-32.016-12.006-64.031-12.006-33.016 0-64.031 12.006-32.516-54.026-78.538-92.045-15.007-12.506-31.015-31.515-43.021-46.022-57.528-105.552z" />
<glyph unicode="&#xe979;" horiz-adv-x="1025" d="M512.241 288.667q56.528 0 96.547 40.020t40.020 97.047q0 46.523-29.014 83.541-33.516 43.021-51.525 91.044-30.015 4.002-56.027 4.002-27.513 0-56.027-4.002-20.51-51.025-52.025-91.044-29.014-37.018-29.014-83.541 0-57.028 40.020-97.047t97.047-40.020z" />
<glyph unicode="&#xe97a;" horiz-adv-x="1025" d="M512.241 756.396q51.025 0 51.025 51.025t-51.025 51.025-51.025-51.025 51.025-51.025z" />
<glyph unicode="&#xe97b;" horiz-adv-x="1025" d="M512.241 638.338q38.019 0 67.533-9.505-11.506 21.010-24.012 46.523-12.006 26.013-15.508 51.525-14.007-4.002-28.014-4.002-15.007 0-28.514 4.002-4.002-25.512-16.008-51.525-12.006-25.512-23.011-46.523 39.519 9.505 67.533 9.505z" />
<glyph unicode="&#xe97c;" horiz-adv-x="1025" d="M512.241 4.529h-272.633q9.505 107.553 91.545 181.589 13.507 12.506 15.007 13.507 42.521 35.017 72.535 83.541-77.038 50.525-77.038 142.57 0 57.028 34.517 102.55 11.506 14.507 24.512 33.016 13.507 18.509 21.51 36.018-12.006-3.001-36.518-9.505-24.012-6.503-35.517-11.005 34.517 32.016 65.532 76.037 31.515 44.021 37.018 93.546-25.512 26.013-25.512 61.030t24.512 60.029q25.012 25.012 60.53 25.012 34.517 0 59.529-25.012t25.012-60.029q0-35.517-25.512-61.030 5.503-49.524 37.018-93.546 32.016-44.022 66.532-76.037-11.506 4.502-36.518 11.005-24.512 6.503-36.518 9.505 8.004-17.509 21.010-36.018 13.507-18.509 25.512-33.016 34.517-45.522 34.517-102.55 0-92.045-77.038-142.57 28.514-48.023 72.035-83.541 7.504-6.003 15.007-13.507 82.54-74.036 91.545-181.589z" />
<glyph unicode="&#xe97d;" horiz-adv-x="1025" d="M512.241 38.045h231.113q-15.007 59.529-57.528 105.552-16.508 19.009-31.015 31.515-48.023 39.019-78.538 92.045-32.016-12.006-64.031-12.006-33.016 0-64.031 12.006-32.516-54.026-78.538-92.045-15.007-12.506-31.015-31.515-43.021-46.022-57.528-105.552zM512.241 288.667q56.528 0 96.547 40.020t40.020 97.047q0 46.523-29.014 83.541-33.516 43.021-51.525 91.044-30.015 4.002-56.027 4.002-27.513 0-56.027-4.002-20.51-51.025-52.025-91.044-29.014-37.018-29.014-83.541 0-57.028 40.020-97.047t97.047-40.020zM512.241 756.396q51.025 0 51.025 51.025t-51.025 51.025-51.025-51.025 51.025-51.025zM512.241 638.338q38.019 0 67.533-9.505-11.506 21.010-24.012 46.523-12.006 26.013-15.508 51.525-14.007-4.002-28.014-4.002-15.007 0-28.514 4.002-4.002-25.512-16.008-51.525-12.006-25.512-23.011-46.523 39.519 9.505 67.533 9.505zM512.241 4.529h-272.633q9.505 107.553 91.545 181.589 13.507 12.506 15.007 13.507 42.521 35.017 72.535 83.541-77.038 50.525-77.038 142.57 0 57.028 34.517 102.55 11.506 14.507 24.512 33.016 13.507 18.509 21.51 36.018-12.006-3.001-36.518-9.505-24.012-6.503-35.517-11.005 34.517 32.016 65.532 76.037 31.515 44.021 37.018 93.546-25.512 26.013-25.512 61.030t24.512 60.029q25.012 25.012 60.53 25.012 34.517 0 59.529-25.012t25.012-60.029q0-35.517-25.512-61.030 5.503-49.524 37.018-93.546 32.016-44.022 66.532-76.037-11.506 4.502-36.518 11.005-24.512 6.503-36.518 9.505 8.004-17.509 21.010-36.018 13.507-18.509 25.512-33.016 34.517-45.522 34.517-102.55 0-92.045-77.038-142.57 28.514-48.023 72.035-83.541 7.504-6.003 15.007-13.507 82.54-74.036 91.545-181.589z" />
<glyph unicode="&#xe97e;" horiz-adv-x="1025" d="M200.604 361.215q-4.002-5.003-10.505-9.505-14.007-10.505-20.010 2.001-3.502 6.003 0.5 18.509 7.003 6.003 9.505 8.004 15.508 18.509 25.512 32.516 5.002 1 7.504 0.5 17.509-3.002 9.004-21.51-4.502-9.005-11.005-16.508-6.003-7.003-10.505-14.007z" />
<glyph unicode="&#xe97f;" horiz-adv-x="1025" d="M348.676 583.323q10.005 31.015 38.019 33.516 19.009 1.5 33.016 1.5t30.015 5.003q-16.008-45.022-36.518-58.529-11.005-6.503-30.515-8.004-14.507-1-22.511 2.001t-11.506 24.512z" />
<glyph unicode="&#xe980;" horiz-adv-x="1025" d="M315.66 317.194q24.012 17.008 34.017 35.517 10.505 19.009 28.514 36.018 0.5 6.003 1.5 13.506t2.001 16.008q3.502 3.502 5.503 4.002 14.507 4.502 17.008-13.006 0-5.003-1-10.005-0.5-4.502 0.5-8.004 3.002-3.502 22.511-7.504 72.035-2.501 132.565 54.026 0 0.5 3.002 4.502 3.502 4.002 4.002 5.003 15.007 22.511 24.012 93.546 1 2.001 5.503 4.502 13.006 4.502 16.508-13.006-4.502-64.531-19.509-92.045-8.004-14.507-18.009-25.512 8.504 4.502 17.008 8.504t16.508 9.005q25.512 15.507 36.518 60.029 5.503 9.505 16.008 8.504 11.005-2.001 8.504-16.508-11.506-62.53-49.024-81.040-12.006-6.003-24.512-11.005-12.006-4.502-23.511-9.004 29.514 1.5 64.031 9.505 6.503 0 9.004-5.503 4.502-10.005-9.505-18.009-70.534-19.509-89.544-17.508-13.507-42.521-66.032-93.546-29.014-28.014-60.029-54.527-31.015-26.013-61.030-52.025-66.532-58.529-81.040-114.056 114.556-0.5 190.093-0.5 76.037 0 139.568 0t128.063 0q64.532 0.5 157.077 0.5 7.004 0 5.503 25.012-1 25.012-3.502 46.523-27.013-3.002-51.025 28.014-24.012 31.515-22.011 72.035 0.5 105.051-13.507 189.092-13.506 84.541-54.026 146.572-66.032 100.049-209.602 170.083-2.001-12.506-4.502-23.011-4.002-16.008-15.007-10.505-10.505 3.502-11.005 13.507 2.001 9.004 2.501 13.506-0.5 1.5-1 3.502-0.5 2.501-0.5 4.502-5.003 26.013-28.514 59.029-4.002-21.010-8.004-28.514t-7.003-13.006q-5.503-8.004-10.005-15.507-4.002-7.504-9.505-16.508-5.503 6.003-12.006 14.007-6.003 8.504-11.005 14.507-4.502 4.502-9.005 8.504-4.002 4.502-16.008 7.504 10.505-39.019-5.503-53.526-8.004-8.004-17.508-21.51-9.505-13.007-21.51-24.012-7.004-7.504-17.509-17.508-10.005-9.505-17.008-25.012-9.505-29.014-37.518-58.529-27.513-29.014-60.53-58.528-72.035-64.031-81.54-93.046-13.006-35.017 1.501-68.033 13.507-29.514 37.018-38.519 14.007-5.503 34.517 21.010 22.011 26.513 29.014 24.512 13.006-3.502 8.504-18.509-2.501-8.504-16.008-24.512-14.007-15.508-14.507-20.51-2.501-6.003 10.005-9.505 15.508-4.002 58.028 37.518 5.002 5.003 10.505 9.004 6.003 4.502 12.006 10.005z" />
<glyph unicode="&#xe981;" horiz-adv-x="1025" d="M332.168 293.182q-7.003-7.504-11.506-11.005-4.002-3.002-7.504-6.003-4.502-4.002-32.016-33.016-11.506-12.006-27.513-16.008-11.506-3.001-29.514 2.501-62.531 16.508-98.548 66.032-14.507 18.509-20.51 44.522-5.503 26.513 6.003 67.033 11.005 41.52 79.039 93.546 74.536 56.528 88.043 90.544 11.005 19.509 25.012 43.021t33.516 45.522q12.006 8.504 22.511 19.509 11.005 11.506 22.011 23.511v61.53q28.014-5.503 40.020-16.008 6.003-6.503 13.507-12.006t13.506-12.006q12.506 22.511 16.008 37.518 0.5 3.502 3.002 14.007 3.002 10.505 6.003 34.517 7.504 1.501 13.006-4.002 23.511-25.512 44.021-58.028 91.545-36.518 167.082-86.542 76.037-50.024 116.057-104.051 115.056-156.076 115.056-458.224 0-63.531-6.503-116.057h-682.833q-6.503 65.032 69.034 138.067 34.017 33.016 70.534 64.031 37.018 31.015 72.035 63.031 65.032 60.029 72.035 96.047-2.501 6.003-9.505 8.004-17.508-10.505-35.017-13.507t-34.517-4.002q-11.005-0.5-22.011-1-10.505 0-25.012 5.003-19.509-22.011-33.516-38.018-13.506-15.508-31.015-28.014z" />
<glyph unicode="&#xe982;" horiz-adv-x="1025" d="M200.604 361.215q-4.002-5.003-10.505-9.505-14.007-10.505-20.010 2.001-3.502 6.003 0.5 18.509 7.003 6.003 9.505 8.004 15.508 18.509 25.512 32.516 5.002 1 7.504 0.5 17.509-3.002 9.004-21.51-4.502-9.005-11.005-16.508-6.003-7.003-10.505-14.007zM348.676 583.323q10.005 31.015 38.019 33.516 19.009 1.5 33.016 1.5t30.015 5.003q-16.008-45.022-36.518-58.529-11.005-6.503-30.515-8.004-14.507-1-22.511 2.001t-11.506 24.512zM315.66 317.194q24.012 17.008 34.017 35.517 10.505 19.009 28.514 36.018 0.5 6.003 1.5 13.506t2.001 16.008q3.502 3.502 5.503 4.002 14.507 4.502 17.008-13.006 0-5.003-1-10.005-0.5-4.502 0.5-8.004 3.002-3.502 22.511-7.504 72.035-2.501 132.565 54.026 0 0.5 3.002 4.502 3.502 4.002 4.002 5.003 15.007 22.511 24.012 93.546 1 2.001 5.503 4.502 13.006 4.502 16.508-13.006-4.502-64.531-19.509-92.045-8.004-14.507-18.009-25.512 8.504 4.502 17.008 8.504t16.508 9.005q25.512 15.507 36.518 60.029 5.503 9.505 16.008 8.504 11.005-2.001 8.504-16.508-11.506-62.53-49.024-81.040-12.006-6.003-24.512-11.005-12.006-4.502-23.511-9.004 29.514 1.5 64.031 9.505 6.503 0 9.004-5.503 4.502-10.005-9.505-18.009-70.534-19.509-89.544-17.508-13.507-42.521-66.032-93.546-29.014-28.014-60.029-54.527-31.015-26.013-61.030-52.025-66.532-58.529-81.040-114.056 114.556-0.5 190.093-0.5 76.037 0 139.568 0t128.063 0q64.532 0.5 157.077 0.5 7.004 0 5.503 25.012-1 25.012-3.502 46.523-27.013-3.002-51.025 28.014-24.012 31.515-22.011 72.035 0.5 105.051-13.507 189.092-13.506 84.541-54.026 146.572-66.032 100.049-209.602 170.083-2.001-12.506-4.502-23.011-4.002-16.008-15.007-10.505-10.505 3.502-11.005 13.507 2.001 9.004 2.501 13.506-0.5 1.5-1 3.502-0.5 2.501-0.5 4.502-5.003 26.013-28.514 59.029-4.002-21.010-8.004-28.514t-7.003-13.006q-5.503-8.004-10.005-15.507-4.002-7.504-9.505-16.508-5.503 6.003-12.006 14.007-6.003 8.504-11.005 14.507-4.502 4.502-9.005 8.504-4.002 4.502-16.008 7.504 10.505-39.019-5.503-53.526-8.004-8.004-17.508-21.51-9.505-13.007-21.51-24.012-7.004-7.504-17.509-17.508-10.005-9.505-17.008-25.012-9.505-29.014-37.518-58.529-27.513-29.014-60.53-58.528-72.035-64.031-81.54-93.046-13.006-35.017 1.501-68.033 13.507-29.514 37.018-38.519 14.007-5.503 34.517 21.010 22.011 26.513 29.014 24.512 13.006-3.502 8.504-18.509-2.501-8.504-16.008-24.512-14.007-15.508-14.507-20.51-2.501-6.003 10.005-9.505 15.508-4.002 58.028 37.518 5.002 5.003 10.505 9.004 6.003 4.502 12.006 10.005zM332.168 293.182q-7.003-7.504-11.506-11.005-4.002-3.002-7.504-6.003-4.502-4.002-32.016-33.016-11.506-12.006-27.513-16.008-11.506-3.001-29.514 2.501-62.531 16.508-98.548 66.032-14.507 18.509-20.51 44.522-5.503 26.513 6.003 67.033 11.005 41.52 79.039 93.546 74.536 56.528 88.043 90.544 11.005 19.509 25.012 43.021t33.516 45.522q12.006 8.504 22.511 19.509 11.005 11.506 22.011 23.511v61.53q28.014-5.503 40.020-16.008 6.003-6.503 13.507-12.006t13.506-12.006q12.506 22.511 16.008 37.518 0.5 3.502 3.002 14.007 3.002 10.505 6.003 34.517 7.504 1.501 13.006-4.002 23.511-25.512 44.021-58.028 91.545-36.518 167.082-86.542 76.037-50.024 116.057-104.051 115.056-156.076 115.056-458.224 0-63.531-6.503-116.057h-682.833q-6.503 65.032 69.034 138.067 34.017 33.016 70.534 64.031 37.018 31.015 72.035 63.031 65.032 60.029 72.035 96.047-2.501 6.003-9.505 8.004-17.508-10.505-35.017-13.507t-34.517-4.002q-11.005-0.5-22.011-1-10.505 0-25.012 5.003-19.509-22.011-33.516-38.018-13.506-15.508-31.015-28.014z" />
<glyph unicode="&#xe983;" d="M357.683 233.144l-48.524 16.008-37.518-30.015 47.523-16.008z" />
<glyph unicode="&#xe984;" d="M790.394 231.644q3.502-10.505 3.502-20.010 0-29.514-21.51-45.522-2.001-8.504-3.002-17.008 18.509-26.013 18.509-42.020 0-42.021-81.040-72.035t-194.595-30.015q-114.056 0-195.095 30.015-80.539 30.015-80.539 72.035 0 16.508 19.51 43.021-1.001 5.503-3.001 15.508-22.011 16.008-22.011 46.022 0 9.505 3.001 19.509 5.002 12.506-2.001 19.509t-16.008 19.51q-8.004 25.012-8.004 34.517 0.5 4.502 1.501 10.005 1.501 5.503 1.501 13.007-22.011 22.011-46.022 41.52-23.511 20.010-37.018 48.023-16.008 33.016-29.514 66.533-13.006 34.017-13.006 66.532 0 61.53 32.516 104.051t88.043 66.532q74.036 5.003 62.531 5.003 87.042 0 158.077-64.532v175.586h170.583v-176.086q71.035 65.032 159.078 65.032-12.506 0 62.53-5.003 54.527-24.012 87.043-66.532 33.016-42.521 33.016-104.051 0-32.516-13.507-66.032-13.006-33.516-28.514-66.532-13.506-28.514-37.518-49.524t-45.522-42.021q-0.5-6.003 0.5-11.506 1.5-5.503 2.001-10.005 0.5-7.004-8.004-34.517-9.004-12.506-16.008-19.51-6.503-7.003-2.001-19.009z" />
<glyph unicode="&#xe985;" d="M512.258 665.355q-51.525 0-51.525-51.525t51.525-51.525 51.525 51.525-51.525 51.525z" />
<glyph unicode="&#xe986;" d="M492.248 755.899l-35.517 34.517v-76.537l35.517 28.514q-1.501 2.001-1.501 6.503 0 3.002 1.501 7.004z" />
<glyph unicode="&#xe987;" d="M503.754 729.386l-30.015-32.516h77.038l-32.016 32.016q-5.002-1-6.503-1-5.002 0-8.504 1.5z" />
<glyph unicode="&#xe988;" d="M532.268 740.892l35.517-27.013v76.537l-36.018-33.016q1.501-4.002 1.501-8.504 0-3.002-1.001-8.004z" />
<glyph unicode="&#xe989;" d="M518.261 769.406l32.516 38.519h-77.038l30.515-39.019q3.001 1.5 8.004 1.5 2.001 0 6.003-1z" />
<glyph unicode="&#xe98a;" d="M572.788 248.652l-61.53 29.514-59.029-29.514 61.030-29.514z" />
<glyph unicode="&#xe98b;" d="M472.739 384.718q-0.5 61.53-10.505 123.56-10.005 62.53-20.010 76.037-62.030 68.533-140.068 68.533-67.033 0-102.050-45.022-23.011-29.514-23.011-77.538 0-100.049 74.536-187.091 8.504 4.002 16.508 7.004 8.504 3.001 17.008 6.003-4.502 10.005-9.004 19.009t-9.505 23.511q-9.505 28.014-7.504 53.026 3.502 15.507 17.008 15.507 6.003 0 16.008-10.505-2.501 13.507-2.501 17.008 0 46.523 39.519 57.528 41.52-2.001 55.027-62.030 4.502 15.007 12.506 17.008t10.505 2.001q6.003 0 10.505-3.002 17.008-21.010 21.010-61.030 1.001-9.004 1.001-17.508 0.5-8.504 2.001-24.012 15.508 3.002 31.015 2.001z" />
<glyph unicode="&#xe98c;" d="M323.166 367.71q-4.502 11.506-9.505 25.512-4.502 14.007-12.006 30.015-4.002 8.004-10.005 8.004-8.504 0-9.004-14.007-1.001-12.006 24.512-55.027 4.002 1.5 8.004 2.501 4.502 1.5 8.004 3.002z" />
<glyph unicode="&#xe98d;" d="M373.19 375.213q-2.001 65.532-19.51 106.052-6.003 10.505-17.509 10.505-14.507 0-14.507-14.507-0.5-0.5-0.5-13.006 0-21.511 24.512-94.046 21.010 4.002 27.513 5.003z" />
<glyph unicode="&#xe98e;" d="M420.213 380.216q2.501 38.519-4.002 65.032-2.001 8.504-9.505 10.505-10.505 1.5-14.007-11.506-4.002-21.51 7.003-66.533 10.005 2.501 20.51 2.501z" />
<glyph unicode="&#xe98f;" d="M735.367 132.095q-4.002 36.018-100.049 55.027-30.015 6.003-60.53 7.003t-62.531 2.501q-31.515-3.002-59.529-4.502-27.513-1.5-50.024-6.003-110.554-22.511-113.055-54.026-4.002-6.003-4.002-12.506 0-22.511 36.018-45.022 0 23.011 8.004 34.517 4.502 5.503 9.004 11.005 5.002 6.003 10.005 12.006 45.022 27.013 164.58 24.012 117.057 3.002 163.080-24.012 11.005-14.007 19.009-23.011 8.004-12.506 8.004-34.517 36.018 22.511 36.018 45.022 0 6.503-4.002 12.506z" />
<glyph unicode="&#xe990;" d="M677.339 85.572q0 45.022-166.081 45.022-163.58 0-163.58-45.022 10.505-44.522 165.581-44.522 152.574 0 164.080 44.522z" />
<glyph unicode="&#xe991;" d="M671.336 233.144l38.019-30.015 48.023 16.008-38.019 30.015z" />
<glyph unicode="&#xe992;" d="M772.385 343.698q71.535 88.543 71.535 186.591 0 48.023-23.011 77.538-35.517 45.022-102.050 45.022-78.538 0-140.068-68.533-10.505-13.507-20.51-76.037-10.005-62.030-10.505-123.56 18.009 1.5 32.016-2.001 0.5 15.508 0.5 24.012 0.5 8.504 2.001 17.508 3.502 40.020 21.010 61.030 4.002 3.002 10.505 3.002 2.501 0 10.505-2.001t12.506-17.008q13.006 60.029 55.027 62.030 39.519-11.005 39.519-57.528 0-3.502-2.501-17.008 9.505 10.505 16.008 10.505 13.006 0 17.008-15.507 1.5-25.012-7.504-53.026-5.503-14.507-10.005-23.511-4.002-9.004-8.504-18.009 9.005-3.502 18.009-7.003 9.505-3.002 18.509-6.503z" />
<glyph unicode="&#xe993;" d="M697.849 367.71q3.002-1.5 7.003-3.002 4.502-1 9.005-2.501 25.012 43.021 24.512 55.027-1 14.007-9.005 14.007-6.503 0-10.005-8.004-8.004-16.008-13.006-30.015-4.502-14.007-8.504-25.512z" />
<glyph unicode="&#xe994;" d="M647.824 375.213q6.003-1 27.513-5.003 24.512 72.535 24.512 94.046 0 12.506-0.5 13.006 0 14.507-14.507 14.507-12.006 0-17.509-10.505-18.009-40.52-19.51-106.052z" />
<glyph unicode="&#xe995;" d="M600.801 380.216q10.505 0 20.51-2.501 10.505 45.022 7.003 66.533-4.002 13.006-14.007 11.506-8.004-2.001-9.505-10.505-7.003-26.513-4.002-65.032z" />
<glyph unicode="&#xe996;" d="M750.374 269.662q22.511 2.501 22.511 25.012 0 14.507-13.006 22.011-42.020 17.008-107.052 27.513-64.531 11.005-141.069 11.005-160.578 0-249.122-39.519-11.005-8.504-11.005-21.010 0-25.512 25.512-24.512 89.043 33.516 234.614 33.516 147.572 0 238.616-34.017z" />
<glyph unicode="&#xe997;" d="M357.683 233.144l-48.524 16.008-37.518-30.015 47.523-16.008zM790.394 231.644q3.502-10.505 3.502-20.010 0-29.514-21.51-45.522-2.001-8.504-3.002-17.008 18.509-26.013 18.509-42.020 0-42.021-81.040-72.035t-194.595-30.015q-114.056 0-195.095 30.015-80.539 30.015-80.539 72.035 0 16.508 19.51 43.021-1.001 5.503-3.001 15.508-22.011 16.008-22.011 46.022 0 9.505 3.001 19.509 5.002 12.506-2.001 19.509t-16.008 19.51q-8.004 25.012-8.004 34.517 0.5 4.502 1.501 10.005 1.501 5.503 1.501 13.007-22.011 22.011-46.022 41.52-23.511 20.010-37.018 48.023-16.008 33.016-29.514 66.533-13.006 34.017-13.006 66.532 0 61.53 32.516 104.051t88.043 66.532q74.036 5.003 62.531 5.003 87.042 0 158.077-64.532v175.586h170.583v-176.086q71.035 65.032 159.078 65.032-12.506 0 62.53-5.003 54.527-24.012 87.043-66.532 33.016-42.521 33.016-104.051 0-32.516-13.507-66.032-13.006-33.516-28.514-66.532-13.506-28.514-37.518-49.524t-45.522-42.021q-0.5-6.003 0.5-11.506 1.5-5.503 2.001-10.005 0.5-7.004-8.004-34.517-9.004-12.506-16.008-19.51-6.503-7.003-2.001-19.009zM512.258 665.355q-51.525 0-51.525-51.525t51.525-51.525 51.525 51.525-51.525 51.525zM492.248 755.899l-35.517 34.517v-76.537l35.517 28.514q-1.501 2.001-1.501 6.503 0 3.002 1.501 7.004zM503.754 729.386l-30.015-32.516h77.038l-32.016 32.016q-5.002-1-6.503-1-5.002 0-8.504 1.5zM532.268 740.892l35.517-27.013v76.537l-36.018-33.016q1.501-4.002 1.501-8.504 0-3.002-1.001-8.004zM518.261 769.406l32.516 38.519h-77.038l30.515-39.019q3.001 1.5 8.004 1.5 2.001 0 6.003-1zM572.788 248.652l-61.53 29.514-59.029-29.514 61.030-29.514zM472.739 384.718q-0.5 61.53-10.505 123.56-10.005 62.53-20.010 76.037-62.030 68.533-140.068 68.533-67.033 0-102.050-45.022-23.011-29.514-23.011-77.538 0-100.049 74.536-187.091 8.504 4.002 16.508 7.004 8.504 3.001 17.008 6.003-4.502 10.005-9.004 19.009t-9.505 23.511q-9.505 28.014-7.504 53.026 3.502 15.507 17.008 15.507 6.003 0 16.008-10.505-2.501 13.507-2.501 17.008 0 46.523 39.519 57.528 41.52-2.001 55.027-62.030 4.502 15.007 12.506 17.008t10.505 2.001q6.003 0 10.505-3.002 17.008-21.010 21.010-61.030 1.001-9.004 1.001-17.508 0.5-8.504 2.001-24.012 15.508 3.002 31.015 2.001zM323.166 367.71q-4.502 11.506-9.505 25.512-4.502 14.007-12.006 30.015-4.002 8.004-10.005 8.004-8.504 0-9.004-14.007-1.001-12.006 24.512-55.027 4.002 1.5 8.004 2.501 4.502 1.5 8.004 3.002zM373.19 375.213q-2.001 65.532-19.51 106.052-6.003 10.505-17.509 10.505-14.507 0-14.507-14.507-0.5-0.5-0.5-13.006 0-21.511 24.512-94.046 21.010 4.002 27.513 5.003zM420.213 380.216q2.501 38.519-4.002 65.032-2.001 8.504-9.505 10.505-10.505 1.5-14.007-11.506-4.002-21.51 7.003-66.533 10.005 2.501 20.51 2.501zM735.367 132.095q-4.002 36.018-100.049 55.027-30.015 6.003-60.53 7.003t-62.531 2.501q-31.515-3.002-59.529-4.502-27.513-1.5-50.024-6.003-110.554-22.511-113.055-54.026-4.002-6.003-4.002-12.506 0-22.511 36.018-45.022 0 23.011 8.004 34.517 4.502 5.503 9.004 11.005 5.002 6.003 10.005 12.006 45.022 27.013 164.58 24.012 117.057 3.002 163.080-24.012 11.005-14.007 19.009-23.011 8.004-12.506 8.004-34.517 36.018 22.511 36.018 45.022 0 6.503-4.002 12.506zM677.339 85.572q0 45.022-166.081 45.022-163.58 0-163.58-45.022 10.505-44.522 165.581-44.522 152.574 0 164.080 44.522zM671.336 233.144l38.019-30.015 48.023 16.008-38.019 30.015zM772.385 343.698q71.535 88.543 71.535 186.591 0 48.023-23.011 77.538-35.517 45.022-102.050 45.022-78.538 0-140.068-68.533-10.505-13.507-20.51-76.037-10.005-62.030-10.505-123.56 18.009 1.5 32.016-2.001 0.5 15.508 0.5 24.012 0.5 8.504 2.001 17.508 3.502 40.020 21.010 61.030 4.002 3.002 10.505 3.002 2.501 0 10.505-2.001t12.506-17.008q13.006 60.029 55.027 62.030 39.519-11.005 39.519-57.528 0-3.502-2.501-17.008 9.505 10.505 16.008 10.505 13.006 0 17.008-15.507 1.5-25.012-7.504-53.026-5.503-14.507-10.005-23.511-4.002-9.004-8.504-18.009 9.005-3.502 18.009-7.003 9.505-3.002 18.509-6.503zM697.849 367.71q3.002-1.5 7.003-3.002 4.502-1 9.005-2.501 25.012 43.021 24.512 55.027-1 14.007-9.005 14.007-6.503 0-10.005-8.004-8.004-16.008-13.006-30.015-4.502-14.007-8.504-25.512zM647.824 375.213q6.003-1 27.513-5.003 24.512 72.535 24.512 94.046 0 12.506-0.5 13.006 0 14.507-14.507 14.507-12.006 0-17.509-10.505-18.009-40.52-19.51-106.052zM600.801 380.216q10.505 0 20.51-2.501 10.505 45.022 7.003 66.533-4.002 13.006-14.007 11.506-8.004-2.001-9.505-10.505-7.003-26.513-4.002-65.032zM750.374 269.662q22.511 2.501 22.511 25.012 0 14.507-13.006 22.011-42.020 17.008-107.052 27.513-64.531 11.005-141.069 11.005-160.578 0-249.122-39.519-11.005-8.504-11.005-21.010 0-25.512 25.512-24.512 89.043 33.516 234.614 33.516 147.572 0 238.616-34.017z" />
<glyph unicode="&#xe998;" horiz-adv-x="1025" d="M515.751 246.159q-56.528 0-96.547-10.005t-40.020-24.012 40.020-24.012q40.020-9.505 96.547-9.505t96.547 9.505q40.52 10.005 40.52 24.012t-40.52 24.012q-40.020 10.005-96.547 10.005z" />
<glyph unicode="&#xe999;" horiz-adv-x="1025" d="M628.806 862.459q-21.511 0-21.511-21.010 0-21.511 21.511-21.511t21.51 21.511q0 21.010-21.51 21.010z" />
<glyph unicode="&#xe99a;" horiz-adv-x="1025" d="M508.747 863.96q-20.51 0-20.51-20.51t20.51-20.51 20.51 20.51-20.51 20.51z" />
<glyph unicode="&#xe99b;" horiz-adv-x="1025" d="M590.287 579.321v25.512h-64.031v85.542h-25.512v-85.542h-64.031v-25.512h64.031v-119.558h25.512v119.558z" />
<glyph unicode="&#xe99c;" horiz-adv-x="1025" d="M611.797 557.811h-64.031v-119.558h-68.533v119.558h-64.031v68.033h64.031v85.542h68.533v-85.542h64.031z" />
<glyph unicode="&#xe99d;" horiz-adv-x="1025" d="M561.773 285.678l-48.524 20.010-48.023-20.010 48.023-20.010z" />
<glyph unicode="&#xe99e;" horiz-adv-x="1025" d="M707.844 554.309q5.503 27.013-17.008 99.549-22.011 73.036-65.532 121.059-6.503 4.002-11.506 3.502-7.504-1.001-14.007-7.504-6.003-6.503-1.501-15.508 53.026-36.018 81.040-103.55t28.514-97.548z" />
<glyph unicode="&#xe99f;" horiz-adv-x="1025" d="M401.695 362.716q48.023 16.008 111.554 16.008 66.032 0 112.555-16.008 61.030 123.060 61.030 193.094 0 118.558-171.584 230.612-171.084-112.055-171.084-230.612 0-75.537 57.528-193.094z" />
<glyph unicode="&#xe9a0;" horiz-adv-x="1025" d="M616.3 311.691l-9.004 31.515q-42.021 10.005-94.546 10.005-51.525 0-90.544-9.005l-10.005-32.015q41.52 11.005 100.549 11.005 62.030 0 103.551-11.506z" />
<glyph unicode="&#xe9a1;" horiz-adv-x="1025" d="M634.308 258.165l-11.005 35.517-44.522-9.505 44.021-28.514z" />
<glyph unicode="&#xe9a2;" horiz-adv-x="1025" d="M395.192 257.664l9.004-2.001 44.021 28.514-42.521 9.505z" />
<glyph unicode="&#xe9a3;" horiz-adv-x="1025" d="M512.749 57.066q-37.018-53.526-100.049-53.526-6.503 0-13.006 0.5-6.003 1-12.006 1.5-14.507 0.5-42.521 5.003-28.014 5.003-62.531 22.511-30.515 26.513-77.538 26.513-36.018 0-62.531-17.008-7.504-3.502-18.509-14.507-20.010-21.51-32.516-23.511-10.005 5.003-10.505 17.008-2.501 23.511 34.517 60.53-6.503-1-24.512-6.003-15.007-4.502-20.010-4.502-16.508-2.501-17.509-0.5-5.503 5.503 4.002 22.511 8.004 14.507 31.015 25.512 3.001 1.5 19.009 8.504 46.523 24.512 97.548 24.512 74.536 0 134.566-50.525 24.012-8.004 48.524-8.004 75.037 0 77.538 62.030-48.524 4.502-81.040 16.508-32.016 12.006-32.016 28.014l40.020 133.065q-35.017 55.027-58.028 112.055t-23.011 108.053q0 153.075 166.081 235.115 0 6.503 1.501 19.51-17.008 14.007-17.008 35.517 0 46.022 46.523 46.022 46.022 0 46.022-46.022 0-20.010-14.507-33.516 0-15.508 4.002-21.010 8.504-12.006 22.511-12.506 14.507 0.5 24.012 13.006 2.001 3.001 4.002 18.509-13.006 13.507-13.006 33.516 0 47.023 47.023 47.023t47.023-47.023q0-26.513-23.011-41.020-2.001-10.005-1.001-16.008 84.541-100.049 73.536-231.113-3.502-37.518-11.506-74.036-8.004-36.018-28.014-68.033-7.504-17.008-23.511-38.519-15.508-21.010-27.013-39.519l39.519-133.065q-0.5-16.008-33.016-28.014t-82.040-16.508q2.501-62.030 78.038-62.030 24.512 0 48.524 8.004 59.529 50.525 134.566 50.525 51.025 0 97.047-24.512 6.003-3.002 10.505-5.003t9.004-3.502q22.511-11.506 31.015-25.512 1.501-4.502 4.502-11.506t-0.5-11.005q-1.501-2.001-17.509 0.5-5.002 0-20.010 4.502-18.509 5.003-25.012 6.003 37.018-37.518 35.017-60.53-1.001-11.506-11.005-17.008-12.506 2.001-32.516 23.511-10.005 10.005-18.009 14.507-28.014 17.008-62.531 17.008-48.023 0-78.038-26.513-34.517-17.508-62.531-22.511-28.014-4.502-42.020-5.003-6.003-0.5-12.506-1.5-6.503-0.5-12.506-0.5-64.531 0-100.549 53.526z" />
<glyph unicode="&#xe9a4;" horiz-adv-x="1025" d="M512.749 93.584q1.501 0 33.016-30.515 29.014-27.513 71.035-27.513 3.502 0 10.005 0t10.505 0q21.511 1.5 41.020 5.003 19.51 4.002 46.523 15.007 52.025 36.018 96.047 36.018 19.009 0 35.017-4.502 6.503-1.5 7.504-3.502 1.501-1.5 11.506-6.003 31.015-16.008 15.508-3.502-15.007 13.007-11.506 19.009 3.001 6.503 23.011 14.007 20.51 7.504-29.014 12.006-25.012 8.504-52.025 8.504-60.029 0-122.56-48.524-22.011-12.006-37.518-13.507-15.007-1.5-28.514-0.5-39.019 1.5-52.526 10.505-13.006 9.505-23.511 21.010-10.005 10.505-19.51 40.52-5.002 16.008-24.012 18.009-19.51-2.001-24.012-18.009-9.004-30.015-19.51-40.52-10.505-11.505-24.012-21.010-13.006-9.005-51.525-10.505-14.007-1-29.514 0.5-15.007 1.5-36.518 13.507-63.531 48.524-122.56 48.524-27.513 0-52.025-8.504-50.024-4.502-30.015-12.006 20.51-7.504 24.012-14.007 3.001-6.003-12.506-19.009-15.007-12.506 16.508 3.502 9.004 4.502 10.505 6.003 1.501 2.001 8.004 3.502 15.508 4.502 35.517 4.502 43.521 0 95.547-36.018 27.013-11.005 46.022-15.007 19.51-3.502 42.021-5.003 3.502 0 9.505 0 6.503 0 11.005 0 41.52 0 71.035 27.513 31.015 30.515 32.516 30.515z" />
<glyph unicode="&#xe9a5;" horiz-adv-x="1025" d="M515.751 246.159q-56.528 0-96.547-10.005t-40.020-24.012 40.020-24.012q40.020-9.505 96.547-9.505t96.547 9.505q40.52 10.005 40.52 24.012t-40.52 24.012q-40.020 10.005-96.547 10.005zM628.806 862.459q-21.511 0-21.511-21.010 0-21.511 21.511-21.511t21.51 21.511q0 21.010-21.51 21.010zM508.747 863.96q-20.51 0-20.51-20.51t20.51-20.51 20.51 20.51-20.51 20.51zM590.287 579.321v25.512h-64.031v85.542h-25.512v-85.542h-64.031v-25.512h64.031v-119.558h25.512v119.558zM611.797 557.811h-64.031v-119.558h-68.533v119.558h-64.031v68.033h64.031v85.542h68.533v-85.542h64.031zM561.773 285.678l-48.524 20.010-48.023-20.010 48.023-20.010zM707.844 554.309q5.503 27.013-17.008 99.549-22.011 73.036-65.532 121.059-6.503 4.002-11.506 3.502-7.504-1.001-14.007-7.504-6.003-6.503-1.501-15.508 53.026-36.018 81.040-103.55t28.514-97.548zM401.695 362.715q48.023 16.008 111.554 16.008 66.032 0 112.555-16.008 61.030 123.060 61.030 193.094 0 118.558-171.584 230.613-171.084-112.055-171.084-230.613 0-75.537 57.528-193.094zM616.3 311.691l-9.004 31.515q-42.021 10.005-94.546 10.005-51.525 0-90.544-9.005l-10.005-32.015q41.52 11.005 100.549 11.005 62.030 0 103.551-11.506zM634.308 258.164l-11.005 35.517-44.522-9.505 44.021-28.514zM395.192 257.664l9.004-2.001 44.021 28.514-42.521 9.505zM512.749 57.066q-37.018-53.526-100.049-53.526-6.503 0-13.006 0.5-6.003 1-12.006 1.5-14.507 0.5-42.521 5.003-28.014 5.003-62.531 22.511-30.515 26.513-77.538 26.513-36.018 0-62.531-17.008-7.504-3.502-18.509-14.507-20.010-21.51-32.516-23.511-10.005 5.003-10.505 17.008-2.501 23.511 34.517 60.53-6.503-1-24.512-6.003-15.007-4.502-20.010-4.502-16.508-2.501-17.509-0.5-5.503 5.503 4.002 22.511 8.004 14.507 31.015 25.512 3.001 1.5 19.009 8.504 46.523 24.512 97.548 24.512 74.536 0 134.566-50.525 24.012-8.004 48.524-8.004 75.037 0 77.538 62.030-48.524 4.502-81.040 16.508-32.016 12.006-32.016 28.014l40.020 133.065q-35.017 55.027-58.028 112.055t-23.011 108.053q0 153.075 166.081 235.115 0 6.503 1.501 19.51-17.008 14.007-17.008 35.517 0 46.022 46.523 46.022 46.022 0 46.022-46.022 0-20.010-14.507-33.516 0-15.508 4.002-21.010 8.504-12.006 22.511-12.506 14.507 0.5 24.012 13.006 2.001 3.001 4.002 18.509-13.006 13.507-13.006 33.516 0 47.023 47.023 47.023t47.023-47.023q0-26.513-23.011-41.020-2.001-10.005-1.001-16.008 84.541-100.049 73.536-231.113-3.502-37.518-11.506-74.036-8.004-36.018-28.014-68.033-7.504-17.008-23.511-38.519-15.508-21.010-27.013-39.519l39.519-133.065q-0.5-16.008-33.016-28.014t-82.040-16.508q2.501-62.030 78.038-62.030 24.512 0 48.524 8.004 59.529 50.525 134.566 50.525 51.025 0 97.047-24.512 6.003-3.002 10.505-5.003t9.004-3.502q22.511-11.506 31.015-25.512 1.501-4.502 4.502-11.506t-0.5-11.005q-1.501-2.001-17.509 0.5-5.002 0-20.010 4.502-18.509 5.003-25.012 6.003 37.018-37.518 35.017-60.53-1.001-11.506-11.005-17.008-12.506 2.001-32.516 23.511-10.005 10.005-18.009 14.507-28.014 17.008-62.531 17.008-48.023 0-78.038-26.513-34.517-17.508-62.531-22.511-28.014-4.502-42.020-5.003-6.003-0.5-12.506-1.5-6.503-0.5-12.506-0.5-64.531 0-100.549 53.526zM512.749 93.584q1.501 0 33.016-30.515 29.014-27.513 71.035-27.513 3.502 0 10.005 0t10.505 0q21.511 1.5 41.020 5.003 19.51 4.002 46.523 15.007 52.025 36.018 96.047 36.018 19.009 0 35.017-4.502 6.503-1.5 7.504-3.502 1.501-1.5 11.506-6.003 31.015-16.008 15.508-3.502-15.007 13.007-11.506 19.009 3.001 6.503 23.011 14.007 20.51 7.504-29.014 12.006-25.012 8.504-52.025 8.504-60.029 0-122.56-48.524-22.011-12.006-37.518-13.507-15.007-1.5-28.514-0.5-39.019 1.5-52.526 10.505-13.006 9.505-23.511 21.010-10.005 10.505-19.51 40.52-5.002 16.008-24.012 18.009-19.51-2.001-24.012-18.009-9.004-30.015-19.51-40.52-10.505-11.505-24.012-21.010-13.006-9.005-51.525-10.505-14.007-1-29.514 0.5-15.007 1.5-36.518 13.507-63.531 48.524-122.56 48.524-27.513 0-52.025-8.504-50.024-4.502-30.015-12.006 20.51-7.504 24.012-14.007 3.001-6.003-12.506-19.009-15.007-12.506 16.508 3.502 9.004 4.502 10.505 6.003 1.501 2.001 8.004 3.502 15.508 4.502 35.517 4.502 43.521 0 95.547-36.018 27.013-11.005 46.022-15.007 19.51-3.502 42.021-5.003 3.502 0 9.505 0 6.503 0 11.005 0 41.52 0 71.035 27.513 31.015 30.515 32.516 30.515z" />
<glyph unicode="&#xe9a6;" horiz-adv-x="1025" d="M512.247 891.474h69.034v-68.033h103.551v68.033h119.058v-178.587l-80.539-93.045q26.013-33.016 1-69.534-4.002-6.503-4.002-12.006 0-6.503 4.002-12.506 10.505-15.507 10.005-44.021 0-28.014-10.505-44.021-3.502-5.003-3.502-10.505 0-7.004 4.502-13.006 23.511-35.517-1-70.034-3.502-6.003-3.502-11.506t3.502-11.506q11.005-16.508 11.005-46.022 0-29.014-12.006-43.021l81.040-40.52v-43.021h33.516v-145.071h-650.818v144.571h34.017v43.021l80.539 41.020q-12.006 14.007-12.006 43.021t11.005 45.522q4.002 5.503 4.002 11.506 0 5.002-4.002 11.505-24.512 35.017-0.5 70.034 4.502 8.004 4.502 13.006t-3.502 11.006q-11.005 16.008-11.506 44.021 0 28.514 10.505 44.021 4.502 6.003 4.502 12.506 0 5.503-4.002 11.506-25.512 36.518 1.001 70.034l-80.539 92.545v178.587h119.058v-67.533l103.050-0.5v68.033z" />
<glyph unicode="&#xe9a7;" horiz-adv-x="1025" d="M256.122 764.412v-43.521q64.031 3.002 127.562 6.003 64.031 3.502 128.563 3.502 63.031 0 127.062-4.002 64.532-4.002 129.063-5.503 0 16.508 0 21.51 0 5.503 0 22.011z" />
<glyph unicode="&#xe9a8;" horiz-adv-x="1025" d="M277.633 175.124q-21.511-2.001-21.511-21.511 0-21.51 21.511-21.51l234.615 8.004 234.615-8.004q21.51 0 21.51 21.51 0 19.51-21.51 21.511-58.529 3.502-117.557 6.003-58.529 3.002-117.057 3.002t-117.557-3.002q-58.529-2.501-117.057-6.003z" />
<glyph unicode="&#xe9a9;" horiz-adv-x="1025" d="M537.76 310.69q14.507 11.505 42.521 11.505 28.514 0 43.521-11.505 15.007-12.006 15.007-36.018 0.5-24.012-15.007-31.515-16.008-8.504-43.521-8.504t-42.521 8.504q-16.008 7.504-15.507 31.515t15.507 36.018z" />
<glyph unicode="&#xe9aa;" horiz-adv-x="1025" d="M400.693 310.69q15.007 11.505 43.021 11.505t43.021-11.505q15.007-12.006 13.507-36.018-1-24.012-13.507-31.515-13.006-8.504-44.021-8.004-30.515 1-42.021 8.004-12.006 6.503-13.507 31.015t13.507 36.518z" />
<glyph unicode="&#xe9ab;" horiz-adv-x="1025" d="M512.247 671.366q-47.523 0-110.054-6.503-62.531-6.003-78.538-11.005-16.508-6.003-15.007-19.009t15.007-17.008q13.507-4.502 53.526 1t49.524-1q9.004-7.003 9.004-33.016 0-25.512-9.004-35.017-9.505-9.505-51.525-2.501-41.52 7.004-51.525 2.501t-8.004-16.508q2.001-11.506 8.004-17.008 6.003-6.003 17.509 2.501 12.006 8.504 18.009-2.501 6.003-12.006 6.003-34.517t-6.003-33.516q-6.003-11.505-18.009-3.001-11.506 9.004-17.509 3.001-6.503-6.503-7.003-19.509 0-12.506 7.003-16.008 6.503-4.502 50.024 2.001 43.521 7.004 53.026-2.001 9.004-9.505 9.004-33.516t-9.004-34.517q-9.505-11.005-53.526-3.502-43.521 8.004-49.524 3.502-19.51-16.008 0-34.016 6.003-6.003 17.509 2.501 12.006 8.504 18.009-2.501 6.003-11.506 6.003-34.017t-6.003-33.516q-6.003-12.006-18.009-3.502-11.506 9.004-17.509 3.502-6.003-6.003-9.505-18.009-3.502-11.505 9.505-16.008 10.005-4.002 66.032 1.5t122.56 5.503q66.032 0 123.56-4.502 57.528-4.002 65.032-2.501 10.505 1.5 8.004 14.507-2.001 13.507-8.004 19.509-6.503 5.503-18.509-3.502-11.506-8.504-17.008 3.502-6.003 11.006-6.003 33.516t6.003 34.017q5.503 11.005 17.508 2.501t18.009-2.501q18.509 18.509 0 34.016-6.003 4.502-51.525-2.501t-52.025 2.501q-6.503 9.005-7.504 31.515-0.5 23.011 7.504 36.518t52.025 5.003q44.522-8.504 51.525-5.003 6.003 3.002 6.003 16.008t-6.003 19.509q-6.503 6.003-18.509-3.001-11.506-8.504-17.008 3.001-6.003 11.006-6.003 33.516t6.003 34.517q5.503 11.005 17.008 2.501 12.006-8.504 18.509-2.501 6.003 5.503 6.503 17.008 1 12.006-6.503 16.508-8.504 4.502-52.025-2.501t-51.525 2.501-8.004 34.016 8.004 34.017q8.004 9.005 49.024 1t54.527-1q13.006 6.503 14.007 18.009 1.5 12.006-14.007 18.009-16.508 5.003-79.539 11.005-62.531 6.503-109.053 6.503z" />
<glyph unicode="&#xe9ac;" horiz-adv-x="1025" d="M470.727 617.84q14.007 11.506 41.020 11.506 27.513 0 42.020-11.506 14.507-12.006 14.507-34.017t-14.507-34.016-42.020-12.006q-27.013 0-41.020 12.006-14.507 12.006-14.507 34.016t14.507 34.017z" />
<glyph unicode="&#xe9ad;" horiz-adv-x="1025" d="M537.76 516.291q14.507 11.506 42.521 11.506 28.514 0 43.521-11.506 15.007-12.006 15.007-34.517 0-22.011-15.007-33.516-15.007-12.006-43.521-12.006-28.014 0-42.521 12.006-15.007 11.506-15.007 33.516 0 22.511 15.007 34.517z" />
<glyph unicode="&#xe9ae;" horiz-adv-x="1025" d="M400.693 516.291q15.007 11.506 43.021 11.506t43.021-11.506q15.007-12.006 15.007-34.517 0-22.011-15.007-33.516-15.007-12.006-43.021-12.006t-43.021 12.006q-15.007 11.506-15.007 33.516 0 22.511 15.007 34.517z" />
<glyph unicode="&#xe9af;" horiz-adv-x="1025" d="M470.727 412.74q14.007 11.506 41.020 11.506 27.513 0 42.020-11.506 14.507-12.006 14.507-34.517 0-22.011-14.507-33.516-14.507-12.006-42.020-12.006-27.013 0-41.020 12.006-14.507 11.506-14.507 33.516 0 22.511 14.507 34.517z" />
<glyph unicode="&#xe9b0;" horiz-adv-x="1025" d="M222.106 98.086v-34.017h580.784v34.017z" />
<glyph unicode="&#xe9b1;" horiz-adv-x="1025" d="M512.247 891.474h69.034v-68.033h103.551v68.033h119.058v-178.587l-80.539-93.045q26.013-33.016 1-69.534-4.002-6.503-4.002-12.006 0-6.503 4.002-12.506 10.505-15.507 10.005-44.021 0-28.014-10.505-44.021-3.502-5.003-3.502-10.505 0-7.004 4.502-13.006 23.511-35.517-1-70.034-3.502-6.003-3.502-11.506t3.502-11.506q11.005-16.508 11.005-46.022 0-29.014-12.006-43.021l81.040-40.52v-43.021h33.516v-145.071h-650.818v144.571h34.017v43.021l80.539 41.020q-12.006 14.007-12.006 43.021t11.005 45.522q4.002 5.503 4.002 11.506 0 5.002-4.002 11.505-24.512 35.017-0.5 70.034 4.502 8.004 4.502 13.006t-3.502 11.006q-11.005 16.008-11.506 44.021 0 28.514 10.505 44.021 4.502 6.003 4.502 12.506 0 5.503-4.002 11.506-25.512 36.518 1.001 70.034l-80.539 92.545v178.587h119.058v-67.533l103.050-0.5v68.033zM256.122 764.412v-43.521q64.031 3.002 127.562 6.003 64.031 3.502 128.563 3.502 63.031 0 127.062-4.002 64.532-4.002 129.063-5.503 0 16.508 0 21.51 0 5.503 0 22.011zM277.633 175.124q-21.511-2.001-21.511-21.511 0-21.51 21.511-21.51l234.615 8.004 234.615-8.004q21.51 0 21.51 21.51 0 19.51-21.51 21.511-58.529 3.502-117.557 6.003-58.529 3.002-117.057 3.002t-117.557-3.002q-58.529-2.501-117.057-6.003zM537.76 310.69q14.507 11.505 42.521 11.505 28.514 0 43.521-11.505 15.007-12.006 15.007-36.018 0.5-24.012-15.007-31.515-16.008-8.504-43.521-8.504t-42.521 8.504q-16.008 7.504-15.507 31.515t15.507 36.018zM400.693 310.69q15.007 11.505 43.021 11.505t43.021-11.505q15.007-12.006 13.507-36.018-1-24.012-13.507-31.515-13.006-8.504-44.021-8.004-30.515 1-42.021 8.004-12.006 6.503-13.507 31.015t13.507 36.518zM512.247 671.366q-47.523 0-110.054-6.503-62.531-6.003-78.538-11.005-16.508-6.003-15.007-19.009t15.007-17.008q13.507-4.502 53.526 1t49.524-1q9.004-7.003 9.004-33.016 0-25.512-9.004-35.017-9.505-9.505-51.525-2.501-41.52 7.004-51.525 2.501t-8.004-16.508q2.001-11.506 8.004-17.008 6.003-6.003 17.509 2.501 12.006 8.504 18.009-2.501 6.003-12.006 6.003-34.517t-6.003-33.516q-6.003-11.505-18.009-3.001-11.506 9.004-17.509 3.001-6.503-6.503-7.003-19.509 0-12.506 7.003-16.008 6.503-4.502 50.024 2.001 43.521 7.004 53.026-2.001 9.004-9.505 9.004-33.516t-9.004-34.517q-9.505-11.005-53.526-3.502-43.521 8.004-49.524 3.502-19.51-16.008 0-34.016 6.003-6.003 17.509 2.501 12.006 8.504 18.009-2.501 6.003-11.506 6.003-34.017t-6.003-33.516q-6.003-12.006-18.009-3.502-11.506 9.004-17.509 3.502-6.003-6.003-9.505-18.009-3.502-11.505 9.505-16.008 10.005-4.002 66.032 1.5t122.56 5.503q66.032 0 123.56-4.502 57.528-4.002 65.032-2.501 10.505 1.5 8.004 14.507-2.001 13.507-8.004 19.509-6.503 5.503-18.509-3.502-11.506-8.504-17.008 3.502-6.003 11.006-6.003 33.516t6.003 34.017q5.503 11.005 17.508 2.501t18.009-2.501q18.509 18.509 0 34.016-6.003 4.502-51.525-2.501t-52.025 2.501q-6.503 9.005-7.504 31.515-0.5 23.011 7.504 36.518t52.025 5.003q44.522-8.504 51.525-5.003 6.003 3.002 6.003 16.008t-6.003 19.509q-6.503 6.003-18.509-3.001-11.506-8.504-17.008 3.001-6.003 11.006-6.003 33.516t6.003 34.517q5.503 11.005 17.008 2.501 12.006-8.504 18.509-2.501 6.003 5.503 6.503 17.008 1 12.006-6.503 16.508-8.504 4.502-52.025-2.501t-51.525 2.501-8.004 34.016 8.004 34.017q8.004 9.005 49.024 1t54.527-1q13.006 6.503 14.007 18.009 1.5 12.006-14.007 18.009-16.508 5.003-79.539 11.005-62.531 6.503-109.053 6.503zM470.727 617.84q14.007 11.506 41.020 11.506 27.513 0 42.020-11.506 14.507-12.006 14.507-34.017t-14.507-34.016-42.020-12.006q-27.013 0-41.020 12.006-14.507 12.006-14.507 34.016t14.507 34.017zM537.76 516.291q14.507 11.506 42.521 11.506 28.514 0 43.521-11.506 15.007-12.006 15.007-34.517 0-22.011-15.007-33.516-15.007-12.006-43.521-12.006-28.014 0-42.521 12.006-15.007 11.506-15.007 33.516 0 22.511 15.007 34.517zM400.693 516.291q15.007 11.506 43.021 11.506t43.021-11.506q15.007-12.006 15.007-34.517 0-22.011-15.007-33.516-15.007-12.006-43.021-12.006t-43.021 12.006q-15.007 11.506-15.007 33.516 0 22.511 15.007 34.517zM470.727 412.74q14.007 11.506 41.020 11.506 27.513 0 42.020-11.506 14.507-12.006 14.507-34.517 0-22.011-14.507-33.516-14.507-12.006-42.020-12.006-27.013 0-41.020 12.006-14.507 11.506-14.507 33.516 0 22.511 14.507 34.517zM222.106 98.086v-34.017h580.784v34.017z" />
<glyph unicode="&#xe9b2;" horiz-adv-x="1025" d="M536.752 776.41q7.504-81.040 15.007-162.079 8.004-80.539 16.008-161.079 0.5-11.506 11.506-11.506 8.004 0.5 11.005 7.004 43.521 105.051 64.031 162.579 21.010 58.028 25.512 71.535-23.011 22.011-23.011 49.524 0 24.012 17.008 41.020 17.509 17.508 42.021 17.508 24.012 0 41.020-17.508 17.508-17.008 17.508-41.020 0-43.521-45.022-59.029l-36.518-218.106q-2.501-15.007 10.505-15.007 10.505 0 16.008 5.503 60.029 60.029 86.042 93.045 26.513 33.016 37.018 46.022-11.005 14.507-11.005 35.017 0 58.529 58.529 58.529 24.012 0 41.020-17.509 17.509-17.008 17.509-41.020 0-24.512-17.509-41.52-17.008-17.008-41.020-17.008-7.504 0-13.507 1.5-40.019-86.542-64.031-177.086-20.51-73.536-25.512-139.568 3.002-14.007 3.502-14.507-1.5 6.003 2.001-11.506 2.001-8.004 2.001-15.507-3.002-8.004-12.506-18.009-8.504-9.505-12.506-37.518 18.509-26.013 18.509-42.021 0-42.020-81.040-72.035t-194.595-30.015q-114.056 0-195.095 30.015-80.539 30.015-80.539 72.035 0 16.508 19.509 43.021-6.003 28.514-13.006 36.518-10.005 10.005-13.006 18.009 0 6.503 1.5 15.007 1 4.002 1.5 7.003 0.5 3.502 1 5.003 2.001 5.503 4.002 15.508-5.003 63.031-24.512 138.568-26.013 95.046-64.531 178.087-8.504-2.501-17.509-2.501-58.529 0-58.529 58.529t58.529 58.529 58.529-58.529q0-18.009-9.004-32.516 29.514-37.518 59.029-70.034 30.015-32.016 66.032-70.534 4.502-6.503 13.006-6.503 14.507 0 13.006 15.007-1 4.502-12.506 71.535t-25.012 146.071q-47.523 13.006-47.523 59.529 0 24.012 17.008 41.020 17.509 17.508 41.52 17.508 58.529 0 58.529-58.529 0-26.013-20.010-47.523 2.501-10.505 12.506-42.021 10.005-31.015 31.015-82.040 11.506-28.014 23.011-56.528 12.006-28.014 24.012-55.527 3.002-6.503 10.505-6.503 10.505 0.5 12.006 11.006 1 6.003 30.515 322.658-35.517 19.009-35.517 56.528 0 24.012 17.008 41.52t41.52 17.508q24.012 0 41.020-17.508 17.508-17.508 17.508-41.52 0-34.017-32.516-56.027z" />
<glyph unicode="&#xe9b3;" horiz-adv-x="1025" d="M401.686 260.157q-27.513 0-27.513-29.014 0-29.514 27.513-29.514 28.014 0 28.014 29.514 0 29.014-28.014 29.014z" />
<glyph unicode="&#xe9b4;" horiz-adv-x="1025" d="M249.112 365.209q6.003-20.51 10.505-37.018 5.003-16.008 8.504-35.017 3.002-1.5 9.005-1.5 42.020 12.506 103.050 22.011 61.53 9.505 132.065 9.505 72.035 0 134.065-10.005 62.030-9.505 104.051-22.011 2.501 0 7.504 2.001 3.002 18.009 8.004 33.516 5.002 16.008 11.005 37.018-57.028 13.006-124.561 25.512t-140.068 12.506-138.568-12.506q-66.032-12.006-124.561-24.012z" />
<glyph unicode="&#xe9b5;" horiz-adv-x="1025" d="M751.357 207.632l-36.018 34.517-46.022-18.509 36.518-34.517z" />
<glyph unicode="&#xe9b6;" horiz-adv-x="1025" d="M575.771 243.149l-64.531 33.516-62.030-33.516 64.531-34.017z" />
<glyph unicode="&#xe9b7;" horiz-adv-x="1025" d="M359.666 223.139l-50.525 17.008-40.020-31.515 50.024-17.008z" />
<glyph unicode="&#xe9b8;" horiz-adv-x="1025" d="M622.294 260.157q-28.014 0-28.014-29.014 0-29.514 28.014-29.514t28.014 29.514q0 29.014-28.014 29.014z" />
<glyph unicode="&#xe9b9;" horiz-adv-x="1025" d="M731.848 86.572q-3.002 15.007-7.004 25.012-6.003 13.006-12.006 17.008-6.003 4.502-11.005 11.505-26.513 17.008-74.536 29.014-47.523 12.506-115.056 11.005-69.034 1.5-116.057-11.005-47.023-12.006-73.036-29.014-6.503-6.003-12.506-11.005-6.003-4.502-10.505-17.008-5.003-15.007-7.003-25.512-1-17.008 15.007-17.008 15.007 0 15.007 16.508 4.502 52.025 188.092 52.025 185.591 0 190.593-52.025-1-16.508 15.007-16.508 15.007 0 15.007 17.008z" />
<glyph unicode="&#xe9ba;" horiz-adv-x="1025" d="M536.752 776.41q7.504-81.040 15.007-162.079 8.004-80.539 16.008-161.079 0.5-11.506 11.506-11.506 8.004 0.5 11.005 7.004 43.521 105.051 64.031 162.579 21.010 58.028 25.512 71.535-23.011 22.011-23.011 49.524 0 24.012 17.008 41.020 17.509 17.508 42.021 17.508 24.012 0 41.020-17.508 17.508-17.008 17.508-41.020 0-43.521-45.022-59.029l-36.518-218.106q-2.501-15.007 10.505-15.007 10.505 0 16.008 5.503 60.029 60.029 86.042 93.045 26.513 33.016 37.018 46.022-11.005 14.507-11.005 35.017 0 58.529 58.529 58.529 24.012 0 41.020-17.509 17.509-17.008 17.509-41.020 0-24.512-17.509-41.52-17.008-17.008-41.020-17.008-7.504 0-13.507 1.5-40.019-86.542-64.031-177.086-20.51-73.536-25.512-139.568 3.002-14.007 3.502-14.507-1.5 6.003 2.001-11.506 2.001-8.004 2.001-15.507-3.002-8.004-12.506-18.009-8.504-9.505-12.506-37.518 18.509-26.013 18.509-42.021 0-42.020-81.040-72.035t-194.595-30.015q-114.056 0-195.095 30.015-80.539 30.015-80.539 72.035 0 16.508 19.509 43.021-6.003 28.514-13.006 36.518-10.005 10.005-13.006 18.009 0 6.503 1.5 15.007 1 4.002 1.5 7.003 0.5 3.502 1 5.003 2.001 5.503 4.002 15.508-5.003 63.031-24.512 138.568-26.013 95.046-64.531 178.087-8.504-2.501-17.509-2.501-58.529 0-58.529 58.529t58.529 58.529 58.529-58.529q0-18.009-9.004-32.516 29.514-37.518 59.029-70.034 30.015-32.016 66.032-70.534 4.502-6.503 13.006-6.503 14.507 0 13.006 15.007-1 4.502-12.506 71.535t-25.012 146.071q-47.523 13.006-47.523 59.529 0 24.012 17.008 41.020 17.509 17.508 41.52 17.508 58.529 0 58.529-58.529 0-26.013-20.010-47.523 2.501-10.505 12.506-42.021 10.005-31.015 31.015-82.040 11.506-28.014 23.011-56.528 12.006-28.014 24.012-55.527 3.002-6.503 10.505-6.503 10.505 0.5 12.006 11.006 1 6.003 30.515 322.658-35.517 19.009-35.517 56.528 0 24.012 17.008 41.52t41.52 17.508q24.012 0 41.020-17.508 17.508-17.508 17.508-41.52 0-34.017-32.516-56.027zM401.686 260.157q-27.513 0-27.513-29.014 0-29.514 27.513-29.514 28.014 0 28.014 29.514 0 29.014-28.014 29.014zM249.112 365.209q6.003-20.51 10.505-37.018 5.003-16.008 8.504-35.017 3.002-1.5 9.005-1.5 42.020 12.506 103.050 22.011 61.53 9.505 132.065 9.505 72.035 0 134.065-10.005 62.030-9.505 104.051-22.011 2.501 0 7.504 2.001 3.002 18.009 8.004 33.516 5.002 16.008 11.005 37.018-57.028 13.006-124.561 25.512t-140.068 12.506-138.568-12.506q-66.032-12.006-124.561-24.012zM751.357 207.632l-36.018 34.517-46.022-18.509 36.518-34.517zM575.771 243.149l-64.531 33.516-62.030-33.516 64.531-34.017zM359.666 223.139l-50.525 17.008-40.020-31.515 50.024-17.008zM622.294 260.157q-28.014 0-28.014-29.014 0-29.514 28.014-29.514t28.014 29.514q0 29.014-28.014 29.014zM731.848 86.572q-3.002 15.007-7.004 25.012-6.003 13.006-12.006 17.008-6.003 4.502-11.005 11.505-26.513 17.008-74.536 29.014-47.523 12.506-115.056 11.005-69.034 1.5-116.057-11.005-47.023-12.006-73.036-29.014-6.503-6.003-12.506-11.005-6.003-4.502-10.505-17.008-5.003-15.007-7.003-25.512-1-17.008 15.007-17.008 15.007 0 15.007 16.508 4.502 52.025 188.092 52.025 185.591 0 190.593-52.025-1-16.508 15.007-16.508 15.007 0 15.007 17.008z" />
<glyph unicode="&#xe9bb;" glyph-name="leipzig-bp" horiz-adv-x="1025" d="M512.241 4.529h-272.633q9.505 107.553 91.545 181.589 13.507 12.506 15.007 13.507 42.521 35.017 72.535 83.541-77.038 50.525-77.038 142.57 0 57.028 34.517 102.55 11.506 14.507 24.512 33.016 13.507 18.509 21.511 36.018-12.006-3.002-36.518-9.505-24.012-6.503-35.517-11.005 34.517 32.016 65.532 76.037 31.515 44.021 37.018 93.546-25.512 26.013-25.512 61.030t24.512 60.029q25.012 25.012 60.53 25.012 34.517 0 59.529-25.012t25.012-60.029q0-35.517-25.512-61.030 5.503-49.524 37.018-93.546 32.016-44.021 66.533-76.037-11.506 4.502-36.518 11.005-24.512 6.503-36.518 9.505 8.004-17.508 21.010-36.018 13.507-18.509 25.512-33.016 34.517-45.522 34.517-102.55 0-92.045-77.038-142.57 28.514-48.023 72.035-83.541 7.504-6.003 15.007-13.507 82.54-74.036 91.545-181.589z" />
<glyph unicode="&#xe9bc;" horiz-adv-x="1025" d="M578.285 354.212q12.506 2.501 28.014 5.503 16.008 3.502 34.017 9.505 16.008 5.003 10.505 18.009-3.502 5.503-10.005 5.503-35.517-8.004-67.033-9.505 12.006 4.502 25.012 9.005 13.007 5.002 25.512 11.005 39.019 18.509 51.525 81.040 2.501 14.507-9.505 16.508-10.505 1-16.508-8.504-12.006-44.522-38.018-60.029-8.504-5.003-17.509-9.004t-18.009-8.504q10.005 10.505 18.509 25.512 15.507 26.013 21.010 92.045-3.502 17.508-17.508 13.006-4.502-2.501-6.003-4.502-9.004-71.035-24.512-93.546-5.503-5.503-7.504-9.505-4.502-3.502-8.504-7.003-3.502-3.002-7.003-6.003-8.504-11.005-8.504-25.012 0-17.008 9.505-31.015 10.005-14.007 32.516-14.507z" />
<glyph unicode="&#xe9bd;" horiz-adv-x="1025" d="M542.768 691.376q138.568-68.033 204.6-167.082 40.52-61.53 54.026-146.071t13.507-189.592q-2.501-40.52 22.511-71.035 25.512-30.515 57.028-24.012 9.505 304.148-108.053 463.726-36.018 48.023-100.549 93.045t-144.070 80.539q0-10.505 0.5-21.51 0.5-10.505 0.5-18.009z" />
<glyph unicode="&#xe9be;" horiz-adv-x="1025" d="M248.625 272.672q5.503 9.004 12.506 17.508 7.504 9.004 13.507 20.010 11.005 22.511-11.006 26.513-4.002 1-9.004-1-14.507-19.51-31.515-39.519-2.501-2.001-11.505-10.005-4.502-15.007-0.5-23.011 6.503-15.007 24.512-2.001 9.005 7.003 13.006 11.506z" />
<glyph unicode="&#xe9bf;" horiz-adv-x="1025" d="M424.71 401.235q1.5 6.003 3.502 12.006 2.501 6.003 4.002 12.006 4.502 19.51-11.005 19.51-5.503 0-13.507-9.005-3.502-8.004-7.003-16.008-3.502-7.504-5.503-14.007-1.5-5.002-4.502-14.007-1-7.504 6.003-11.005 10.505-6.003 21.51 9.505 3.502 3.502 6.503 11.005z" />
<glyph unicode="&#xe9c0;" horiz-adv-x="1025" d="M191.096 361.215q5.003 7.003 11.506 14.007 6.503 7.504 11.506 16.508 10.005 18.509-9.505 21.51-3.002 0.5-8.504-0.5-12.006-15.508-28.014-32.516-6.003-4.502-10.005-8.004-4.002-12.506-0.5-18.509 6.003-12.506 22.011-2.001 8.004 6.003 11.505 9.505z" />
<glyph unicode="&#xe9c1;" horiz-adv-x="1025" d="M338.669 583.324q3.502-21.511 11.505-24.512t22.511-2.001q19.509 1.5 30.015 8.004 21.010 13.507 37.018 58.529-16.008-5.003-30.015-5.003t-33.516-1.5q-27.513-2.501-37.518-33.516z" />
<glyph unicode="&#xe9c2;" horiz-adv-x="1025" d="M332.165 293.182q-7.004-7.504-11.506-11.006-4.002-3.001-7.004-6.003-2.501-2.501-32.516-33.016-11.506-12.506-27.513-16.008-10.505-3.002-29.514 2.501-62.53 16.508-98.548 66.032-14.007 18.509-20.010 44.522-5.503 26.513 5.503 67.033 11.005 41.020 79.539 93.546 74.536 57.028 87.543 90.544 11.005 19.509 25.012 43.021 14.507 23.511 34.017 45.522 12.006 8.504 22.511 19.509 11.006 11.506 21.511 23.512v61.53q27.513-5.503 40.52-16.008 6.003-6.503 13.006-12.006 7.504-5.503 13.506-12.006 12.506 22.511 16.008 37.518 0.5 3.502 3.502 14.007t6.003 34.517q7.504 2.001 13.006-4.002 23.011-26.013 43.521-58.028 91.545-36.518 167.082-86.542 76.037-50.024 116.557-104.051 114.556-155.576 114.556-458.224 0-63.531-6.503-116.057h-682.833q-6.503 65.032 69.034 138.068 34.017 33.016 70.534 64.031 37.018 31.015 72.035 63.031 65.032 60.029 72.035 96.047-2.501 6.003-9.505 8.004-17.508-10.505-35.017-13.506t-34.517-4.002q-11.005-0.5-22.011-1-10.505 0-25.012 5.003-19.509-22.011-33.516-38.019-13.507-15.508-31.015-28.014z" />
</font>
</defs>
</svg>
