<!-- Generated by IcoMoon.io -->
<svg version="1.1" xmlns="http://www.w3.org/2000/svg" width="32" height="32" viewBox="0 0 32 32">
<title>alpha-wp</title>
<path fill="#000" d="M8.125 27.641h15.75q0.125-1.516-2.063-2.844-2.063-1.578-3.070-3.742t-1.242-4.82h-3q-0.234 2.656-1.242 4.82t-3.070 3.742q-2.203 1.328-2.063 2.844zM16 28.797h-9.031v-1.156q-0.063-1.25 0.648-2.141t1.961-1.688q1.828-1.422 2.68-3.398t1.227-4.18h-4.484l4.438-3.734q-1.344-1.156-1.344-2.938 0-1.609 1.141-2.766t2.766-1.156q1.609 0 2.758 1.156t1.148 2.766q0 1.781-1.344 2.938l4.438 3.734h-4.484q0.359 2.203 1.219 4.18t2.688 3.398q1.234 0.797 1.945 1.688t0.664 2.141v1.156h-9.031zM11.813 15.219h8.375l-3.516-2.984q2.094-0.484 2.094-2.672 0-1.188-0.82-1.977t-1.945-0.789q-1.141 0-1.953 0.789t-0.813 1.977q0 2.188 2.094 2.672z"></path>
<path fill="#f9f9f9" d="M13.648 13.771c0.884-0.749 1.623-1.41 1.644-1.469s-0.212-0.221-0.517-0.358c-2.379-1.073-1.689-4.727 0.952-5.040 0.555-0.066 0.799-0.016 1.421 0.288 2.020 0.988 2.067 3.855 0.077 4.752-0.305 0.138-0.538 0.299-0.517 0.358s0.761 0.721 1.644 1.469l1.606 1.361h-7.917l1.606-1.361z"></path>
<path fill="#f9f9f9" d="M12.203 15.029c0-0.057 0.11-0.172 0.244-0.255 0.331-0.207 2.796-2.376 2.85-2.509 0.024-0.058-0.113-0.145-0.305-0.193s-0.349-0.132-0.349-0.185c0-0.054-0.152-0.179-0.338-0.279-0.775-0.415-1.13-1.993-0.688-3.052 0.094-0.224 0.179-0.453 0.191-0.509 0.035-0.167 0.553-0.644 0.699-0.644 0.075 0 0.136-0.051 0.136-0.112 0-0.206 1.28-0.419 1.807-0.3 0.793 0.179 1.825 0.971 1.972 1.513 0.308 1.137 0.304 1.604-0.023 2.234-0.249 0.481-1.032 1.209-1.438 1.338-0.165 0.052-0.281 0.14-0.258 0.194 0.053 0.128 2.527 2.302 2.848 2.502 0.134 0.084 0.244 0.199 0.244 0.255s-1.708 0.103-3.797 0.103c-2.088 0-3.797-0.046-3.797-0.103z"></path>
<path fill="#f9f9f9" d="M8.136 27.467c0-0.248 0.41-1.13 0.649-1.398 0.128-0.143 0.783-0.703 1.456-1.246 2.39-1.926 3.65-4.164 4.156-7.381l0.171-1.090h2.863l0.171 1.090c0.485 3.082 1.776 5.461 3.877 7.143 1.797 1.439 2.091 1.777 2.3 2.649l0.089 0.373h-7.867c-5.317 0-7.867-0.045-7.867-0.14z"></path>
</svg>
