<!-- Generated by IcoMoon.io -->
<svg version="1.1" xmlns="http://www.w3.org/2000/svg" width="32" height="32" viewBox="0 0 32 32">
<title>alpha-wk</title>
<path fill="#000" d="M15.266 4.656v-1.484h1.469v1.484h1.672v1.484h-1.672v2.391q-0.75-0.25-1.469 0v-2.391h-1.672v-1.484h1.672zM16 9.563q-0.734 0-2.125 1.891-0.484-0.563-0.781-0.859 1.453-2.188 2.906-2.188 1.438 0 2.906 2.188-0.313 0.297-0.781 0.859-1.406-1.891-2.125-1.891zM9.016 23.734l-0.406 2.438 2.266-1.313zM15.422 20.516q-0.016-2.297-0.57-4.289t-1.258-3.023q-0.703-1.375-2.055-2.391t-2.633-1.016q-1.609 0-3.25 1.453t-1.641 3.578q0 1.703 1.352 3.688t3.164 3.484q3.313-1.375 6.891-1.484zM16 28.797h-9l0.953-5.703q-5.078-4.375-5.094-8.359-0.016-2.484 1.953-4.289t4.172-1.805q1.219 0 2.477 0.734t2.227 1.859q0.953 1.156 1.539 2.57t0.773 2.352q0.188-0.938 0.766-2.352t1.547-2.57q0.953-1.125 2.219-1.859t2.484-0.734q2.188 0 4.156 1.805t1.969 4.289q-0.031 3.984-5.094 8.359l0.953 5.703h-9zM16 27.641h7.641l-0.781-4.656q-3.375-1.313-6.859-1.313t-6.859 1.313l-0.781 4.656h7.641zM22.984 23.734l0.406 2.438-2.266-1.313zM16.578 20.516q3.578 0.109 6.891 1.484 1.797-1.5 3.156-3.484t1.359-3.688q0-2.125-1.648-3.578t-3.242-1.453q-1.297 0-2.648 1.016t-2.039 2.391q-0.719 1.031-1.273 3.023t-0.555 4.289zM13.828 24.156l2.203-1.313 2.141 1.344-2.203 1.313z"></path>
<path fill="#f9f9f9" d="M7.304 20.699c-2.105-2.178-3.132-4.057-3.152-5.77-0.016-1.382 0.312-2.207 1.3-3.263 2.167-2.317 4.638-2.328 6.838-0.029 0.977 1.020 1.677 2.232 2.226 3.854 0.435 1.283 0.804 3.242 0.805 4.269 0.001 0.693-0.131 0.789-1.084 0.794-0.863 0.004-2.894 0.422-4.339 0.892l-1.424 0.463-1.17-1.211z"></path>
<path fill="#f9f9f9" d="M15.816 15.265c-0.139-0.694-0.909-2.419-1.397-3.129l-0.464-0.674 0.501-0.611c1.223-1.493 1.864-1.493 3.087 0l0.501 0.611-0.464 0.674c-0.488 0.709-1.258 2.434-1.397 3.129-0.105 0.523-0.262 0.523-0.367 0v0z"></path>
<path fill="#f9f9f9" d="M7.35 20.714c-2.253-2.514-3.010-3.857-3.118-5.532-0.079-1.23 0.137-2.059 0.741-2.851 0.248-0.325 0.451-0.652 0.451-0.726s0.068-0.134 0.152-0.134c0.083 0 0.37-0.192 0.638-0.427 1.205-1.058 2.722-1.351 4.050-0.782 2.437 1.044 4.157 3.831 4.841 7.843 0.371 2.178 0.275 2.451-0.865 2.451-0.911 0-2.533 0.328-4.137 0.836-0.746 0.236-1.434 0.445-1.528 0.463s-0.645-0.496-1.225-1.142v0z"></path>
<path fill="#f9f9f9" d="M22.033 21.427c-1.386-0.453-3.419-0.868-4.27-0.872-0.978-0.005-1.085-0.091-1.085-0.878 0-1.052 0.366-2.967 0.813-4.247 0.547-1.57 1.265-2.796 2.219-3.793 2.2-2.298 4.67-2.288 6.838 0.029 0.989 1.057 1.317 1.882 1.298 3.263-0.016 1.144-0.409 2.195-1.337 3.579-0.656 0.978-2.508 3.056-2.896 3.251-0.143 0.072-0.707-0.046-1.58-0.332z"></path>
<path fill="#f9f9f9" d="M8.502 27.098c0.121-0.789 0.231-0.913 1.415-1.596l1.108-0.639-0.732-0.445c-1.126-0.684-1.218-0.775-1.124-1.116s1.272-0.771 3.324-1.214c1.595-0.344 5.422-0.344 7.017 0 2.052 0.442 3.23 0.873 3.324 1.214s0.002 0.432-1.124 1.116l-0.732 0.445 1.108 0.639c1.184 0.683 1.293 0.807 1.415 1.596l0.078 0.508h-15.152l0.078-0.508zM17.098 24.93c0.59-0.354 1.053-0.701 1.030-0.771s-0.504-0.417-1.067-0.77l-1.024-0.642-1.058 0.635c-0.582 0.349-1.076 0.695-1.098 0.769-0.032 0.107 1.906 1.422 2.095 1.422 0.027 0 0.532-0.289 1.122-0.643z"></path>
</svg>
