<!-- Generated by IcoMoon.io -->
<svg version="1.1" xmlns="http://www.w3.org/2000/svg" width="32" height="32" viewBox="0 0 32 32">
<title>alpha-wq</title>
<path fill="#000" d="M16 27.641h7.469q-0.828-2.031-0.672-4.375-1.563-0.609-3.328-1.055t-3.469-0.445q-1.719 0-3.484 0.445t-3.313 1.055q0.141 2.344-0.672 4.375h7.469zM16 20.609q1.734 0 3.492 0.414t3.445 1.055v0 0q0.266-1.641 0.945-3.32t1.648-3.32l-3.438 2.422-1.922-9.391-4.172 8.672-4.172-8.672-1.922 9.391-3.438-2.422q0.953 1.641 1.633 3.32t0.961 3.32v0 0q1.688-0.641 3.445-1.055t3.492-0.414zM16 28.797h-9.109q1.781-3.609 0.898-7.133t-3.164-7.023q-0.188 0.031-0.297 0.031-0.844 0-1.445-0.602t-0.602-1.445 0.602-1.445 1.445-0.602 1.445 0.602 0.602 1.445q0 0.313-0.094 0.594-0.063 0.219-0.234 0.516l3.063 2.172 1.563-7.594q-1-0.484-1.125-1.609-0.078-0.688 0.453-1.422t1.375-0.828q0.844-0.078 1.5 0.453t0.75 1.375q0.109 1.063-0.719 1.781l3.094 6.438 3.094-6.438q-0.844-0.719-0.719-1.781 0.094-0.844 0.75-1.375t1.5-0.453q0.844 0.094 1.367 0.828t0.461 1.422q-0.141 1.125-1.125 1.609l1.563 7.594 3.063-2.172q-0.188-0.297-0.234-0.516-0.094-0.281-0.094-0.594 0-0.844 0.602-1.445t1.445-0.602 1.445 0.602 0.602 1.445-0.602 1.445-1.445 0.602q-0.109 0-0.297-0.031-2.297 3.5-3.172 7.023t0.906 7.133h-9.109zM4.313 11.656q-0.969 0-0.969 0.969t0.969 0.969q0.984 0 0.984-0.969t-0.984-0.969zM11.594 5.5q-0.969 0-0.969 0.969t0.969 0.969 0.969-0.969-0.969-0.969zM9.219 23.734l1.859 1.125-2.094 1.344q0.297-1.344 0.234-2.469zM27.688 11.656q-0.984 0-0.984 0.969t0.984 0.969q0.969 0 0.969-0.969t-0.969-0.969zM20.406 5.5q-0.969 0-0.969 0.969t0.969 0.969 0.969-0.969-0.969-0.969zM22.781 23.734l-1.859 1.125 2.094 1.344q-0.313-1.344-0.234-2.469zM13.828 24.469l2.172-1.297 2.172 1.344-2.172 1.313z"></path>
<path fill="#f9f9f9" d="M9.012 21.471c-0.223-1.043-0.818-2.71-1.435-4.022-0.365-0.776-0.638-1.437-0.606-1.469s0.716 0.409 1.521 0.979l1.463 1.037 0.913-4.449c0.502-2.447 0.932-4.536 0.954-4.642s0.952 1.709 2.066 4.034c1.114 2.325 2.063 4.227 2.111 4.227s0.997-1.902 2.111-4.227c1.114-2.325 2.043-4.14 2.066-4.034s0.452 2.195 0.954 4.642l0.913 4.449 1.463-1.037c0.805-0.57 1.493-1.007 1.529-0.971s-0.187 0.567-0.495 1.179c-0.601 1.196-1.224 2.881-1.489 4.033-0.090 0.392-0.204 0.711-0.252 0.709s-0.651-0.18-1.339-0.397c-2.227-0.703-3.328-0.88-5.461-0.88s-3.234 0.177-5.461 0.88c-0.688 0.217-1.291 0.396-1.342 0.397s-0.133-0.196-0.185-0.438z"></path>
<path fill="#f9f9f9" d="M8.733 27.302c0.048-0.168 0.121-0.462 0.164-0.654 0.056-0.254 0.369-0.532 1.147-1.017 0.589-0.367 1.071-0.706 1.072-0.754s-0.425-0.344-0.947-0.66c-0.522-0.315-0.949-0.646-0.949-0.734 0-0.2 2.208-0.935 3.927-1.307 1.734-0.376 3.971-0.376 5.704 0 1.719 0.373 3.927 1.108 3.927 1.307 0 0.089-0.427 0.419-0.949 0.734s-0.948 0.612-0.946 0.66c0.002 0.047 0.46 0.373 1.018 0.725 0.982 0.618 1.153 0.827 1.365 1.673l0.084 0.333h-14.705l0.087-0.305zM17.148 25.224c0.562-0.341 1.021-0.662 1.021-0.712-0.001-0.112-1.996-1.38-2.17-1.38-0.23 0-2.182 1.247-2.141 1.368 0.053 0.157 1.891 1.323 2.103 1.335 0.091 0.005 0.624-0.27 1.186-0.611v0z"></path>
<path fill="#f9f9f9" d="M27.159 13.398c-0.436-0.277-0.435-1.271 0.002-1.549 0.552-0.351 1.449 0.129 1.449 0.775 0 0.647-0.897 1.126-1.451 0.774z"></path>
<path fill="#f9f9f9" d="M20.068 7.312c-0.536-0.199-0.73-1.058-0.329-1.458 0.275-0.275 1.062-0.275 1.337 0 0.256 0.256 0.278 0.87 0.044 1.177-0.19 0.248-0.741 0.396-1.051 0.281z"></path>
<path fill="#f9f9f9" d="M11.254 7.312c-0.536-0.199-0.73-1.058-0.329-1.458 0.275-0.275 1.062-0.275 1.337 0 0.256 0.256 0.278 0.87 0.044 1.177-0.19 0.248-0.741 0.396-1.051 0.281z"></path>
<path fill="#f9f9f9" d="M3.661 13.234c-0.347-0.347-0.347-0.874 0-1.22 0.273-0.273 0.877-0.356 1.18-0.164 0.436 0.277 0.435 1.271-0.002 1.549-0.302 0.192-0.906 0.107-1.178-0.165z"></path>
</svg>
