<!-- Generated by IcoMoon.io -->
<svg version="1.1" xmlns="http://www.w3.org/2000/svg" width="32" height="32" viewBox="0 0 32 32">
<title>alpha-br</title>
<path fill="#000" d="M16 28.797h-10.016l0.453-4.125 2.484-1.844 0.781-10.297-2.328-1.672-0.266-5.328h4.516v2.297h2.141v-2.297h4.469v2.297h2.141v-2.297h4.516l-0.266 5.328-2.328 1.672 0.781 10.297 2.484 1.844 0.453 4.125h-10.016zM16 13.344h5.203l-0.094-1.375h-10.219l-0.094 1.375h5.203zM16 23.453h5.953l-0.094-1.359h-11.719l-0.094 1.359h5.953z"></path>
<path fill="#ececec" d="M10.169 22.766v-0.61h11.661v1.22h-11.661v-0.61z"></path>
<path fill="#ececec" d="M10.847 13.088c0-0.14 0.038-0.445 0.085-0.678l0.085-0.424h9.966l0.085 0.424c0.204 1.021 0.686 0.932-5.068 0.932-4.948 0-5.153-0.010-5.153-0.254z"></path>
</svg>
