<!-- Generated by IcoMoon.io -->
<svg version="1.1" xmlns="http://www.w3.org/2000/svg" width="32" height="32" viewBox="0 0 32 32">
<title>alpha-bq</title>
<path fill="#000" d="M9.219 23.734q0.063 1.125-0.234 2.469l2.094-1.344zM16 28.797h-9.109q1.781-3.609 0.898-7.133t-3.164-7.023q-0.188 0.031-0.297 0.031-0.844 0-1.445-0.602t-0.602-1.445 0.602-1.445 1.445-0.602 1.445 0.602 0.602 1.445q0 0.313-0.094 0.594-0.063 0.219-0.234 0.516l3.063 2.172 1.563-7.594q-1-0.484-1.125-1.609-0.078-0.688 0.453-1.422t1.375-0.828q0.844-0.078 1.5 0.453t0.75 1.375q0.109 1.063-0.719 1.781l3.094 6.438 3.094-6.438q-0.844-0.719-0.719-1.781 0.094-0.844 0.75-1.375t1.5-0.453q0.844 0.094 1.367 0.828t0.461 1.422q-0.141 1.125-1.125 1.609l1.563 7.594 3.063-2.172q-0.188-0.297-0.234-0.516-0.094-0.281-0.094-0.594 0-0.844 0.602-1.445t1.445-0.602 1.445 0.602 0.602 1.445-0.602 1.445-1.445 0.602q-0.109 0-0.297-0.031-2.297 3.5-3.172 7.023t0.906 7.133h-9.109zM16 21.766q1.703 0 3.469 0.445t3.328 1.055q0.031-0.641 0.172-1.391-1.688-0.656-3.461-1.063t-3.508-0.406-3.516 0.406-3.453 1.063q0.125 0.75 0.172 1.391 1.547-0.609 3.313-1.055t3.484-0.445zM16 27.641h7.469q-0.234-0.531-0.375-1.141h-14.188q-0.156 0.609-0.375 1.141h7.469zM22.781 23.734l-1.859 1.125 2.094 1.344q-0.313-1.344-0.234-2.469zM13.828 24.469l2.172 1.359 2.172-1.313-2.172-1.344z"></path>
<path fill="#f9f9f9" d="M8.678 27.478c0-0.026 0.067-0.24 0.149-0.475l0.149-0.427h14.049l0.149 0.427c0.082 0.235 0.149 0.448 0.149 0.475s-3.295 0.048-7.322 0.048c-4.027 0-7.322-0.021-7.322-0.048z"></path>
<path fill="#ececec" d="M14.881 25.038l-0.916-0.582 2.036-1.165 0.949 0.564c0.522 0.31 0.948 0.607 0.946 0.659-0.004 0.133-1.701 1.113-1.921 1.109-0.098-0.002-0.591-0.265-1.095-0.586v0z"></path>
<path fill="#ececec" d="M22.077 25.51c-0.424-0.271-0.772-0.555-0.773-0.629s0.315-0.336 0.703-0.581l0.705-0.445 0.081 1.056c0.045 0.581 0.075 1.064 0.068 1.075s-0.36-0.203-0.784-0.475z"></path>
<path fill="#ececec" d="M9.2 22.696c-0.011-0.252-0.026-0.526-0.034-0.608-0.033-0.36 3.186-1.262 5.371-1.505 1.125-0.125 1.792-0.126 2.876-0.005 2.196 0.245 5.453 1.153 5.42 1.51-0.007 0.082-0.023 0.356-0.034 0.608l-0.020 0.459-1.593-0.509c-2.092-0.669-3.294-0.87-5.186-0.87s-3.094 0.202-5.186 0.87l-1.593 0.509-0.020-0.459z"></path>
<path fill="#ececec" d="M9.182 25.043c0.033-0.536 0.071-1.022 0.084-1.079s0.379 0.118 0.813 0.39c0.434 0.271 0.739 0.541 0.677 0.598s-0.454 0.321-0.873 0.586l-0.761 0.481 0.060-0.975z"></path>
</svg>
