<!-- Generated by IcoMoon.io -->
<svg version="1.1" xmlns="http://www.w3.org/2000/svg" width="32" height="32" viewBox="0 0 32 32">
<title>alpha-bb</title>
<path fill="#000" d="M12 21.328q-0.078 0.609-0.406 1.281h8.813q-0.281-0.563-0.406-1.281h-8zM19.734 20.188l0.719-1.141q-2.219-0.766-4.453-0.734-2.25-0.031-4.453 0.734l0.719 1.141q1.844-0.625 3.734-0.594 1.875-0.031 3.734 0.594zM12.984 23.734h-3.234q1.047-1.813 1.125-3.578-1.781-1.859-2.531-3.492t-0.094-3.492q0.516-1.5 1.844-2.961t4.875-3.852q-0.266-0.172-0.719-0.563t-0.453-1.234q0-0.906 0.641-1.5t1.563-0.594q0.906 0 1.555 0.594t0.648 1.5q0 0.844-0.461 1.234t-0.711 0.563q3.531 2.391 4.859 3.852t1.859 2.961q0.656 1.859-0.094 3.492t-2.531 3.492q0.063 1.766 1.125 3.578h-3.234q-0.031-0.063 0.156 0.25 0.516 0.828 1.094 0.938t1.391 0.109h3.906q1.188 0 2.211 0.969t1.023 2.797h-7.734q-1.922 0-3.492-1.32t-1.57-3.102q0 1.781-1.578 3.102t-3.484 1.32h-7.734q0-1.828 1.016-2.797t2.219-0.969h3.906q0.797 0 1.375-0.109t1.109-0.938q0.188-0.313 0.156-0.25zM15.266 12.781h-1.484v1.391h1.484v2.578h1.469v-2.578h1.484v-1.391h-1.484v-1.625h-1.469v1.625z"></path>
<path fill="#ececec" d="M11.899 21.98l0.201-0.61h7.8l0.402 1.22h-8.604l0.201-0.61z"></path>
<path fill="#ececec" d="M11.954 19.546l-0.276-0.468 0.703-0.204c1.323-0.384 2.694-0.525 4.296-0.441 0.858 0.045 1.773 0.14 2.034 0.212s0.731 0.197 1.044 0.278l0.57 0.148-0.278 0.471c-0.318 0.538-0.364 0.547-1.431 0.259-1.074-0.289-4.16-0.289-5.234 0-1.066 0.287-1.114 0.279-1.429-0.256z"></path>
<path fill="#ececec" d="M15.322 15.336v-1.288h-1.492v-1.22h1.492v-1.627h1.356v1.627h1.492v1.22h-1.492v2.576h-1.356v-1.288z"></path>
</svg>
