<!-- Generated by IcoMoon.io -->
<svg version="1.1" xmlns="http://www.w3.org/2000/svg" width="32" height="32" viewBox="0 0 32 32">
<title>alpha-bk</title>
<path fill="#000" d="M16 27.641h7.641l-0.188-1.141h-14.906l-0.188 1.141h7.641zM16 13.25q-0.391-0.938-0.969-1.734 0.484-0.75 0.969-1.016 0.469 0.266 0.969 1.016-0.594 0.797-0.969 1.734zM14.484 20.344q-2.406 0.172-4.734 0.906-1.922-1.688-3.125-3.336t-1.203-3.148q0-1.391 1.148-2.484t2.32-1.094q1.047 0 2.102 0.977t1.602 2.039q0.469 0.844 1.172 2.734t0.719 3.406zM9.016 23.734l-0.406 2.438 2.266-1.313zM16 9.563q-0.734 0-2.125 1.891-0.484-0.563-0.781-0.859 1.453-2.188 2.906-2.188 1.438 0 2.906 2.188-0.313 0.297-0.781 0.859-1.406-1.891-2.125-1.891zM16 21.672q-0.016-1.969-0.656-4.18t-1.313-3.539q-0.125-0.219-0.219-0.422t-0.188-0.359q-0.438-0.672-0.75-1.078-0.797-0.984-1.875-1.641t-2.094-0.656q-1.609 0-3.25 1.453t-1.641 3.578q0 1.875 1.547 3.977t3.891 4.055q3.141-1.156 6.547-1.188zM16 28.797h-9l0.953-5.703q-5.078-4.375-5.094-8.359-0.016-2.484 1.953-4.289t4.172-1.805q1.219 0 2.477 0.734t2.227 1.859q0.953 1.156 1.539 2.57t0.773 2.352q0.188-0.938 0.766-2.352t1.547-2.57q0.953-1.125 2.219-1.859t2.484-0.734q2.188 0 4.156 1.805t1.969 4.289q-0.031 3.984-5.094 8.359l0.953 5.703h-9zM17.516 20.344q0-1.516 0.703-3.406t1.188-2.734q0.531-1.063 1.586-2.039t2.117-0.977q1.156 0 2.305 1.094t1.164 2.484q0 1.5-1.203 3.148t-3.125 3.336q-2.344-0.734-4.734-0.906zM22.984 23.734l-1.859 1.125 2.266 1.313zM16 21.672q3.391 0.031 6.547 1.188 2.344-1.953 3.891-4.055t1.547-3.977q0-2.125-1.648-3.578t-3.242-1.453q-1.031 0-2.109 0.656t-1.859 1.641q-0.328 0.406-0.75 1.078-0.094 0.156-0.195 0.359l-0.211 0.422q-0.688 1.328-1.328 3.539t-0.641 4.18zM13.828 24.156l2.172 1.344 2.172-1.313-2.172-1.344zM15.266 4.656v-1.484h1.469v1.484h1.672v1.484h-1.672v2.391q-0.75-0.25-1.469 0v-2.391h-1.672v-1.484h1.672z"></path>
<path fill="#ececec" d="M21.898 22.578c-1.232-0.437-4.388-0.992-5.642-0.992-0.212 0-0.131-1.452 0.155-2.772 0.727-3.356 2.101-6.213 3.617-7.521 1.63-1.406 3.163-1.723 4.717-0.977 1.589 0.763 2.638 1.976 3.010 3.48 0.187 0.757 0.195 1.029 0.057 1.781-0.313 1.7-1.272 3.209-3.457 5.442-1.719 1.757-1.783 1.798-2.457 1.559zM23.817 19.771c2.106-2.21 2.742-3.351 2.753-4.935 0.007-1.047-0.21-1.591-0.961-2.406-2.241-2.431-4.924-1.304-6.787 2.851-0.666 1.485-1.195 3.22-1.289 4.229-0.089 0.955-0.16 0.898 1.325 1.059 0.416 0.045 1.3 0.225 1.966 0.399s1.281 0.324 1.367 0.332c0.086 0.008 0.818-0.68 1.627-1.529v0z"></path>
<path fill="#ececec" d="M8.167 21.543c-3.748-3.608-4.814-6.291-3.526-8.87 0.167-0.335 0.641-0.917 1.052-1.293 1.615-1.477 3.268-1.837 4.828-1.051 1.64 0.827 2.771 2.144 3.718 4.329 0.915 2.11 1.626 4.846 1.626 6.252v0.655l-0.915 0.083c-1.625 0.148-3.356 0.462-4.435 0.805l-1.054 0.335-1.293-1.245zM11.079 20.983c0.73-0.183 1.663-0.37 2.073-0.415 1.485-0.164 1.405-0.097 1.311-1.1-0.103-1.107-0.882-3.419-1.663-4.938-1.38-2.684-3.282-3.891-5.001-3.173-0.69 0.288-1.819 1.367-2.121 2.026-0.298 0.65-0.328 2.065-0.060 2.816 0.354 0.992 1.111 2.046 2.565 3.573 0.809 0.849 1.493 1.544 1.52 1.544s0.647-0.15 1.377-0.333z"></path>
<path fill="#ececec" d="M15.678 14.84c-0.258-0.79-1.126-2.566-1.521-3.112-0.209-0.289-0.186-0.33 0.65-1.186 0.594-0.609 0.969-0.887 1.193-0.887s0.599 0.279 1.193 0.887c0.839 0.86 0.859 0.897 0.645 1.186-0.375 0.508-1.558 2.986-1.648 3.452-0.047 0.242-0.124 0.44-0.171 0.44s-0.201-0.351-0.341-0.78v0zM16.563 12.376l0.495-0.935-0.446-0.487c-0.245-0.268-0.521-0.487-0.613-0.487s-0.367 0.219-0.613 0.487l-0.446 0.487 0.495 0.935c0.272 0.514 0.526 0.935 0.563 0.935s0.291-0.421 0.563-0.935z"></path>
<path fill="#ececec" d="M15.017 24.806c-0.503-0.315-0.915-0.603-0.914-0.641s0.423-0.329 0.938-0.647l0.937-0.578 0.96 0.577c0.528 0.318 0.96 0.617 0.96 0.664 0 0.077-1.81 1.207-1.922 1.2-0.024-0.002-0.456-0.26-0.959-0.575z"></path>
<path fill="#ececec" d="M8.731 25.817c0.037-0.127 0.109-0.536 0.16-0.909 0.141-1.031 0.172-1.050 0.974-0.567 0.392 0.236 0.712 0.467 0.712 0.514s-0.43 0.335-0.956 0.639c-0.705 0.408-0.939 0.493-0.889 0.323z"></path>
<path fill="#ececec" d="M22.373 25.496c-0.485-0.286-0.897-0.566-0.916-0.622-0.038-0.114 1.359-0.991 1.444-0.906 0.053 0.053 0.413 2.015 0.374 2.037-0.011 0.006-0.417-0.223-0.902-0.509z"></path>
<path fill="#ececec" d="M8.517 27.078l0.055-0.475h14.856l0.111 0.949h-15.078l0.055-0.475z"></path>
</svg>
