<!-- Generated by IcoMoon.io -->
<svg version="1.1" xmlns="http://www.w3.org/2000/svg" width="32" height="32" viewBox="0 0 32 32">
<title>alpha-wr</title>
<path fill="#000" d="M16 23.453h-5.953l0.078-1.156h11.75l0.078 1.156h-5.953zM16 13.125h-5.188l0.078-1.156h10.219l0.078 1.156h-5.188zM16 28.797h-10.016l0.453-4.125 2.484-1.844 0.781-10.297-2.328-1.672-0.266-5.328h4.516v2.297h2.141v-2.297h4.469v2.297h2.141v-2.297h4.516l-0.266 5.328-2.328 1.672 0.781 10.297 2.484 1.844 0.453 4.125h-10.016zM16 27.641h8.703l-0.234-2.328-2.516-1.859-0.844-11.484 2.375-1.703 0.203-3.594h-2.156v2.313h-4.453v-2.313h-2.156v2.313h-4.453v-2.313h-2.156l0.203 3.594 2.375 1.703-0.844 11.484-2.516 1.859-0.234 2.328h8.703z"></path>
<path fill="#f9f9f9" d="M10.247 21.539c0.078-0.776 0.6-7.821 0.6-8.105 0-0.173 0.701-0.2 5.153-0.2s5.153 0.027 5.153 0.2c0 0.284 0.522 7.329 0.6 8.105l0.065 0.644h-11.635l0.065-0.644z"></path>
<path fill="#f9f9f9" d="M9.762 11.057l-1.152-0.821-0.088-1.111c-0.049-0.611-0.094-1.401-0.102-1.755l-0.013-0.644h2.034v2.305h4.61v-2.305h1.898v2.305h4.61v-2.305h2.034l-0.013 0.644c-0.007 0.354-0.053 1.144-0.102 1.755l-0.088 1.111-2.304 1.642h-10.171l-1.152-0.821z"></path>
<path fill="#f9f9f9" d="M7.37 27.369c0.036-0.131 0.106-0.642 0.154-1.136l0.088-0.898 2.479-1.796h11.819l2.479 1.796 0.088 0.898c0.048 0.494 0.117 1.005 0.154 1.136 0.062 0.224-0.413 0.237-8.63 0.237s-8.693-0.013-8.63-0.237z"></path>
</svg>
