<!-- Generated by IcoMoon.io -->
<svg version="1.1" xmlns="http://www.w3.org/2000/svg" width="32" height="32" viewBox="0 0 32 32">
<title>alpha-bn</title>
<path fill="#000" d="M7.844 13.563l-0.813 0.016-0.406 1 1.078 0.328 0.719-0.859zM16.219 10.641q0.531 0.016-0.25-1.063t-1.25-0.656l-1.813 1.703zM10.938 9.109q0.094-0.609 1.805-1.68t3.445-2.242l1.797-2.406 1.5 3.391q5.344 2.688 6.758 6.523t0.742 9.43q-0.281 2 0.070 3.688t0.898 2.969l-19.406 0.016q-0.141-2.781 0.609-4.711t2.859-3.711q0.781-0.172 1.289-0.617t0.836-0.914l0.977-0.016t2.156-0.453 2.172-1.516 1.039-3.234q0-0.266-0.133-0.531t-0.18-0.578q-0.969 3.563-2.516 4.508t-2.984 0.914q-3.688-0.656-4.563 0.938l-0.875 1.594-3.391-1.891 1.797-1.281-0.797-0.781-1.906 1.344-0.188-4.641zM26.266 27.734q-1.594-2.031-1.328-4.82t0.422-5.664-0.781-5.492-4.938-4.305q3.438 2.563 3.945 5.344t0.258 5.477-0.188 5.141 2.609 4.32z"></path>
</svg>
