<!-- Generated by IcoMoon.io -->
<svg version="1.1" xmlns="http://www.w3.org/2000/svg" width="32" height="32" viewBox="0 0 32 32">
<title>alpha-wb</title>
<path fill="#000" d="M16 5.563q1.031 0 1-1.031 0.016-0.859-1-0.859-1.031 0-1 0.859-0.047 1.031 1 1.031zM16 24.375q0 1.781-1.578 3.102t-3.484 1.32h-7.734q0-1.828 1.016-2.797t2.219-0.969h3.906q0.797 0 1.375-0.109t1.109-0.938q0.188-0.313 0.156-0.25h1.188q-0.109 0.328-0.047 0.203-0.703 1.641-1.703 1.945t-2.281 0.305h-3.75q-0.813 0-1.344 0.625t-0.531 0.828h6.625q1.031 0 2.477-1.016t1.461-2.891h-5.328q1.047-1.813 1.125-3.578-1.781-1.859-2.531-3.492t-0.094-3.492q0.516-1.5 1.844-2.961t4.875-3.852q-0.266-0.172-0.719-0.563t-0.453-1.234q0-0.906 0.641-1.5t1.563-0.594q0.906 0 1.555 0.594t0.648 1.5q0 0.844-0.461 1.234t-0.711 0.563q3.531 2.391 4.859 3.852t1.859 2.961q0.656 1.859-0.094 3.492t-2.531 3.492q0.063 1.766 1.125 3.578h-5.328q0 1.875 1.453 2.891t2.484 1.016h6.625q0-0.203-0.539-0.828t-1.336-0.625h-3.75q-1.297 0-2.289-0.305t-1.695-1.945q0.063 0.125-0.047-0.203h1.188q-0.031-0.063 0.156 0.25 0.516 0.828 1.094 0.938t1.391 0.109h3.906q1.188 0 2.211 0.969t1.023 2.797h-7.734q-1.922 0-3.492-1.32t-1.57-3.102zM16 22.594h4.422q-0.438-1.313-0.453-2.406-1.875-0.641-3.969-0.594-2.109-0.047-3.969 0.594-0.031 1.094-0.453 2.406h4.422zM16 18.422q2.484-0.016 4.453 0.656 2.953-2.813 2.219-5.406-0.938-3.016-6.672-6.734-5.75 3.719-6.672 6.734-0.75 2.594 2.219 5.406 1.953-0.672 4.453-0.656zM15.266 12.781v-1.625h1.469v1.625h1.484v1.391h-1.484v2.578h-1.469v-2.578h-1.484v-1.391h1.484z"></path>
<path fill="#f9f9f9" d="M15.315 5.208c-0.347-0.347-0.347-0.874 0-1.22 0.56-0.56 1.627-0.16 1.627 0.61 0 0.46-0.454 0.881-0.949 0.881-0.226 0-0.527-0.121-0.678-0.271z"></path>
<path fill="#f9f9f9" d="M10.806 18.171c-1.344-1.614-1.85-3.399-1.331-4.691 0.367-0.913 1.369-2.273 2.388-3.241 1.041-0.989 3.029-2.527 3.809-2.947l0.427-0.23 1.419 1.034c3.599 2.623 5.425 5.054 5.206 6.928-0.106 0.908-0.719 2.159-1.542 3.147l-0.688 0.827-0.995-0.273c-0.831-0.228-1.411-0.273-3.504-0.273s-2.673 0.045-3.504 0.273l-0.995 0.273-0.688-0.827zM16.807 15.581v-1.288h1.492v-1.627h-1.492v-1.627h-1.627v1.627h-1.492v1.627h1.492v2.576h1.627v-1.288z"></path>
<path fill="#f9f9f9" d="M11.656 22.531c0.001-0.019 0.092-0.369 0.202-0.78s0.201-0.912 0.202-1.115c0.001-0.331 0.083-0.394 0.781-0.61 1.108-0.342 5.181-0.348 6.277-0.008l0.751 0.233 0.16 0.932c0.088 0.512 0.199 1.033 0.246 1.157 0.080 0.207-0.263 0.225-4.267 0.225-2.394 0-4.353-0.015-4.352-0.034z"></path>
<path fill="#f9f9f9" d="M4.879 27.169c0.597-0.838 0.722-0.868 3.99-0.957 1.645-0.045 3.208-0.151 3.476-0.237 0.604-0.194 1.364-0.94 1.685-1.651 0.2-0.443 0.311-0.539 0.626-0.539 0.358 0 0.378 0.028 0.302 0.441-0.244 1.326-0.92 2.136-2.405 2.885l-0.933 0.471h-7.033l0.294-0.412z"></path>
<path fill="#f9f9f9" d="M19.435 27.111c-1.494-0.753-2.111-1.469-2.344-2.718-0.111-0.595-0.106-0.608 0.242-0.604 0.288 0.003 0.44 0.151 0.803 0.78 0.841 1.457 1.447 1.653 5.111 1.656 2.87 0.002 3.203 0.081 3.836 0.917l0.334 0.441h-7.049l-0.933-0.471z"></path>
</svg>
