<!-- Generated by IcoMoon.io -->
<svg version="1.1" xmlns="http://www.w3.org/2000/svg" width="32" height="32" viewBox="0 0 32 32">
<title>alpha-wn</title>
<path fill="#000" d="M15.688 17.063q0.484 0.266 0.844 0.656 0.328-0.234 0.57-0.211t0.523-0.023q1.219-0.172 2.008-1.328t0.82-2.578l-0.297-1.047q-0.859 3.734-2.938 4.016-0.328 0.047-0.703 0.086t-0.828 0.43zM11.656 10.047l-0.719-0.938q0.094-0.609 1.805-1.68t3.445-2.242l1.797-2.406 1.5 3.391q5.344 2.688 6.758 6.523t0.742 9.43q-0.281 2 0.070 3.695t0.898 2.977h-19.406q-0.141-2.781 0.609-4.711t2.859-3.711q1.219-0.25 1.797-1.109t0.859-1.328q-3.688-0.656-4.563 0.938l-0.875 1.594-3.391-1.891 1.797-1.281-0.797-0.781-1.906 1.344-0.188-4.641 6.188-4.109q0.188 0.281 0.359 0.484t0.359 0.453l-5.719 3.766 0.063 1.953 1-0.641 2.156 2.25-1.219 1.016 0.734 0.438 0.602-0.703t1.695-1.141q0.844-0.281 2.578-0.422t2.984 1.156q-0.875 0.984-1.422 2.070t-2.375 1.602q-1.438 1.234-2.281 2.758t-0.75 3.492h15.922q-0.547-2.078-0.5-3.664t0.195-3.109 0.141-3.203-0.633-3.945q-0.797-1.969-2.094-3.656t-4.094-2.938l-0.922-2.078-0.766 1.078q-1.547 0.969-3.25 2.047t-2.047 1.875zM16.219 10.516l-3.313-0.031 1.813-1.563q0.469-0.391 1.25 0.602t0.25 0.992zM7.844 13.563l0.578 0.484-0.719 0.859-0.891-0.406 0.516-0.875z"></path>
<path fill="#f9f9f9" d="M9.812 26.661c0.11-1.188 0.479-2.183 1.188-3.205 0.869-1.254 1.474-1.815 2.424-2.247 1.114-0.507 1.24-0.623 2.103-1.941 0.972-1.485 1.194-1.694 1.801-1.698 0.661-0.004 1.483-0.396 2.022-0.963 0.877-0.925 1.338-2.656 0.989-3.714l-0.17-0.516-0.369 1.101c-0.533 1.589-1.023 2.289-1.928 2.753-0.277 0.142-0.66 0.258-0.852 0.258s-0.571 0.093-0.843 0.206c-0.447 0.187-0.559 0.185-1.169-0.018-0.728-0.242-2.251-0.193-3.477 0.11-0.669 0.166-2.496 1.32-2.626 1.659-0.096 0.249-0.378 0.275-0.599 0.054-0.118-0.118-0.021-0.277 0.399-0.65l0.556-0.493-2.175-2.292-0.948 0.452-0.085-0.619c-0.047-0.34-0.085-0.703-0.085-0.807s1.282-1.036 2.848-2.073c1.567-1.037 3.016-2.088 3.22-2.335 0.567-0.685 0.757-0.828 2.98-2.228 1.496-0.943 2.149-1.436 2.368-1.79l0.303-0.489 0.462 1.033c0.407 0.909 0.528 1.063 1.019 1.283 2.976 1.339 5.211 4.271 5.928 7.776 0.305 1.494 0.31 2.33 0.041 8.136-0.066 1.426-0.036 2.066 0.136 2.896 0.121 0.586 0.221 1.12 0.221 1.186 0 0.070-3.348 0.121-7.884 0.121h-7.884l0.088-0.946zM8.247 13.818c-0.425-0.452-0.873-0.404-1.197 0.128-0.353 0.578-0.346 0.611 0.171 0.83 0.421 0.178 0.46 0.168 0.881-0.229l0.44-0.415-0.294-0.313zM16.428 10.186c-0.073-0.416-0.821-1.283-1.186-1.374-0.385-0.097-0.653 0.065-1.682 1.015l-0.746 0.688 1.831-0.030c1.741-0.029 1.828-0.044 1.784-0.299z"></path>
</svg>
