<!-- Generated by IcoMoon.io -->
<svg version="1.1" xmlns="http://www.w3.org/2000/svg" width="32" height="32" viewBox="0 0 32 32">
<title>leipzig-bp</title>
<path fill="#000" d="M16.008 29.858h-8.52q0.297-3.361 2.861-5.675 0.422-0.391 0.469-0.422 1.329-1.094 2.267-2.611-2.407-1.579-2.407-4.455 0-1.782 1.079-3.205 0.36-0.453 0.766-1.032 0.422-0.578 0.672-1.126-0.375 0.094-1.141 0.297-0.75 0.203-1.11 0.344 1.079-1.001 2.048-2.376 0.985-1.376 1.157-2.923-0.797-0.813-0.797-1.907t0.766-1.876q0.782-0.782 1.892-0.782 1.079 0 1.86 0.782t0.782 1.876q0 1.11-0.797 1.907 0.172 1.548 1.157 2.923 1 1.376 2.079 2.376-0.36-0.141-1.141-0.344-0.766-0.203-1.141-0.297 0.25 0.547 0.657 1.126 0.422 0.578 0.797 1.032 1.079 1.423 1.079 3.205 0 2.876-2.407 4.455 0.891 1.501 2.251 2.611 0.235 0.188 0.469 0.422 2.579 2.314 2.861 5.675z"></path>
</svg>
