<!-- Generated by IcoMoon.io -->
<svg version="1.1" xmlns="http://www.w3.org/2000/svg" width="32" height="32" viewBox="0 0 32 32">
<title>leipzig-wp</title>
<path fill="#fff" d="M16.008 28.811h7.222q-0.469-1.86-1.798-3.299-0.516-0.594-0.969-0.985-1.501-1.219-2.454-2.876-1 0.375-2.001 0.375-1.032 0-2.001-0.375-1.016 1.688-2.454 2.876-0.469 0.391-0.969 0.985-1.344 1.438-1.798 3.299z"></path>
<path fill="#fff" d="M16.008 20.979q1.767 0 3.017-1.251t1.251-3.033q0-1.454-0.907-2.611-1.047-1.344-1.61-2.845-0.938-0.125-1.751-0.125-0.86 0-1.751 0.125-0.641 1.595-1.626 2.845-0.907 1.157-0.907 2.611 0 1.782 1.251 3.033t3.033 1.251z"></path>
<path fill="#fff" d="M16.008 6.363q1.595 0 1.595-1.595t-1.595-1.595-1.595 1.595 1.595 1.595z"></path>
<path fill="#fff" d="M16.008 10.052q1.188 0 2.11 0.297-0.36-0.657-0.75-1.454-0.375-0.813-0.485-1.61-0.438 0.125-0.875 0.125-0.469 0-0.891-0.125-0.125 0.797-0.5 1.61-0.375 0.797-0.719 1.454 1.235-0.297 2.11-0.297z"></path>
<path fill="#fff" d="M16.008 29.858h-8.52q0.297-3.361 2.861-5.675 0.422-0.391 0.469-0.422 1.329-1.094 2.267-2.611-2.407-1.579-2.407-4.455 0-1.782 1.079-3.205 0.36-0.453 0.766-1.032 0.422-0.578 0.672-1.126-0.375 0.094-1.141 0.297-0.75 0.203-1.11 0.344 1.079-1.001 2.048-2.376 0.985-1.376 1.157-2.923-0.797-0.813-0.797-1.907t0.766-1.876q0.782-0.782 1.892-0.782 1.079 0 1.86 0.782t0.782 1.876q0 1.11-0.797 1.907 0.172 1.548 1.157 2.923 1 1.376 2.079 2.376-0.36-0.141-1.141-0.344-0.766-0.203-1.141-0.297 0.25 0.547 0.657 1.126 0.422 0.578 0.797 1.032 1.079 1.423 1.079 3.205 0 2.876-2.407 4.455 0.891 1.501 2.251 2.611 0.235 0.188 0.469 0.422 2.579 2.314 2.861 5.675z"></path>
<path fill="#000" d="M16.008 28.811h7.222q-0.469-1.86-1.798-3.299-0.516-0.594-0.969-0.985-1.501-1.219-2.454-2.876-1 0.375-2.001 0.375-1.032 0-2.001-0.375-1.016 1.688-2.454 2.876-0.469 0.391-0.969 0.985-1.344 1.438-1.798 3.299zM16.008 20.979q1.767 0 3.017-1.251t1.251-3.033q0-1.454-0.907-2.611-1.047-1.344-1.61-2.845-0.938-0.125-1.751-0.125-0.86 0-1.751 0.125-0.641 1.595-1.626 2.845-0.907 1.157-0.907 2.611 0 1.782 1.251 3.033t3.033 1.251zM16.008 6.363q1.595 0 1.595-1.595t-1.595-1.595-1.595 1.595 1.595 1.595zM16.008 10.052q1.188 0 2.11 0.297-0.36-0.657-0.75-1.454-0.375-0.813-0.485-1.61-0.438 0.125-0.875 0.125-0.469 0-0.891-0.125-0.125 0.797-0.5 1.61-0.375 0.797-0.719 1.454 1.235-0.297 2.11-0.297zM16.008 29.858h-8.52q0.297-3.361 2.861-5.675 0.422-0.391 0.469-0.422 1.329-1.094 2.267-2.611-2.407-1.579-2.407-4.455 0-1.782 1.079-3.205 0.36-0.453 0.766-1.032 0.422-0.578 0.672-1.126-0.375 0.094-1.141 0.297-0.75 0.203-1.11 0.344 1.079-1.001 2.048-2.376 0.985-1.376 1.157-2.923-0.797-0.813-0.797-1.907t0.766-1.876q0.782-0.782 1.892-0.782 1.079 0 1.86 0.782t0.782 1.876q0 1.11-0.797 1.907 0.172 1.548 1.157 2.923 1 1.376 2.079 2.376-0.36-0.141-1.141-0.344-0.766-0.203-1.141-0.297 0.25 0.547 0.657 1.126 0.422 0.578 0.797 1.032 1.079 1.423 1.079 3.205 0 2.876-2.407 4.455 0.891 1.501 2.251 2.611 0.235 0.188 0.469 0.422 2.579 2.314 2.861 5.675z"></path>
</svg>
