<!-- Generated by IcoMoon.io -->
<svg version="1.1" xmlns="http://www.w3.org/2000/svg" width="32" height="32" viewBox="0 0 32 32">
<title>leipzig-bk</title>
<path fill="#fff" d="M20.839 23.027l1.313 1.016 1.641-0.563-1.297-1.016z"></path>
<path fill="#fff" d="M24.7 22.761q0.109 0.328 0.109 0.625 0 0.922-0.672 1.423-0.063 0.266-0.094 0.532 0.578 0.813 0.578 1.313 0 1.313-2.532 2.251t-6.081 0.938q-3.564 0-6.097-0.938-2.517-0.938-2.517-2.251 0-0.516 0.61-1.344-0.031-0.172-0.094-0.485-0.688-0.5-0.688-1.438 0-0.297 0.094-0.61 0.156-0.391-0.063-0.61t-0.5-0.61q-0.25-0.782-0.25-1.079 0.016-0.141 0.047-0.313 0.047-0.172 0.047-0.406-0.688-0.688-1.438-1.297-0.735-0.625-1.157-1.501-0.5-1.032-0.922-2.079-0.406-1.063-0.406-2.079 0-1.923 1.016-3.252t2.751-2.079q2.314-0.156 1.954-0.156 2.72 0 4.94 2.017v-5.487h5.331v5.503q2.22-2.032 4.971-2.032-0.391 0 1.954 0.156 1.704 0.75 2.72 2.079 1.032 1.329 1.032 3.252 0 1.016-0.422 2.063-0.406 1.047-0.891 2.079-0.422 0.891-1.172 1.548t-1.423 1.313q-0.016 0.188 0.016 0.36 0.047 0.172 0.063 0.313 0.016 0.219-0.25 1.079-0.281 0.391-0.5 0.61-0.203 0.219-0.063 0.594z"></path>
<path fill="#fff" d="M22.543 27.248q-0.063-0.344-0.219-0.75-0.172-0.375-0.36-0.5-0.172-0.141-0.313-0.36-1.579-1-5.612-0.891-4.096-0.109-5.659 0.891-0.188 0.188-0.375 0.328-0.172 0.141-0.297 0.516-0.172 0.391-0.219 0.766-0.031 0.5 0.438 0.5 0.453 0 0.438-0.485 0.141-1.563 5.612-1.563 5.518 0 5.675 1.563-0.031 0.485 0.438 0.485 0.453 0 0.453-0.5z"></path>
<path fill="#fff" d="M17.728 18.024q0.203 0 0.406 0.031 0.203 0.016 0.391 0.016-0.125-1.423 0.125-2.329 0.094-0.344 0.344-0.375 0.36-0.063 0.516 0.391 0.125 0.75-0.25 2.392 0.625 0.109 0.922 0.109 0.094-2.407 0.735-3.83 0.188-0.375 0.625-0.375 0.532 0 0.5 0.516 0.031 0.031 0.031 0.485 0 0.797-0.891 3.392 0.453 0.156 0.782 0.125 0.172-0.453 0.344-0.954 0.188-0.516 0.469-1.094 0.125-0.297 0.36-0.297 0.266 0 0.328 0.516 0.016 0.438-0.922 2.001 0.391 0.188 0.782 0.203 0.188-0.375 0.344-0.703 0.172-0.328 0.36-0.844 0.344-1 0.281-1.907-0.125-0.547-0.61-0.547-0.235 0-0.578 0.375 0.078-0.5 0.078-0.625 0-0.657-0.328-1.235-0.313-0.594-1.079-0.813-0.563 0.031-1.172 0.688t-0.813 1.548q-0.172-0.547-0.453-0.625t-0.375-0.078q-0.188 0-0.36 0.109-0.625 0.719-0.766 2.189-0.047 0.328-0.063 0.641t-0.063 0.907z"></path>
<path fill="#fff" d="M14.242 18.040q-0.047-0.578-0.063-0.891t-0.047-0.641q-0.188-1.501-0.766-2.189-0.156-0.109-0.375-0.109-0.094 0-0.391 0.078-0.281 0.078-0.422 0.61-0.219-0.891-0.829-1.548-0.594-0.657-1.157-0.688-0.782 0.235-1.094 0.829-0.313 0.578-0.313 1.235 0 0.297 0.078 0.625-0.375-0.391-0.578-0.391-0.5 0-0.61 0.563-0.078 0.969 0.281 1.892 0.172 0.516 0.328 0.86 0.172 0.328 0.375 0.703 0.375-0.016 0.782-0.203-0.954-1.548-0.922-2.001 0.016-0.516 0.313-0.516 0.235 0 0.375 0.297 0.266 0.563 0.438 1.079 0.188 0.516 0.375 0.969 0.375 0 0.782-0.125-0.907-2.642-0.907-3.408 0-0.422 0.031-0.469 0-0.531 0.5-0.531 0.438 0 0.641 0.391 0.625 1.423 0.735 3.83 0.313-0.016 0.907-0.109-0.375-1.673-0.235-2.392 0.141-0.469 0.5-0.406 0.266 0.063 0.344 0.375 0.25 0.985 0.125 2.345 0.25-0.031 0.797-0.063z"></path>
<path fill="#fff" d="M16.008 9.27q-0.766 0-1.313 0.547t-0.547 1.313q0 0.782 0.547 1.329 0.547 0.531 1.313 0.531 1.86 0 1.86-1.86t-1.86-1.86z"></path>
<path fill="#fff" d="M16.196 5.909q-0.094-0.047-0.188-0.047-0.172 0-0.25 0.063l-1.001-1.016h-0.36v0.438l0.985 0.985q-0.047 0.094-0.047 0.203 0 0.094 0.047 0.188l-0.985 1v0.406h0.36l0.985-0.985q0.109 0.047 0.266 0.047 0.125 0 0.203-0.031l0.985 0.969h0.422v-0.36l-1-0.969q0.047-0.109 0.047-0.266 0-0.141-0.063-0.25l1.016-1v-0.375h-0.438z"></path>
<path fill="#fff" d="M18.087 22.542l-2.11-1-2.032 1 2.11 1.016z"></path>
<path fill="#fff" d="M11.303 23.027l-1.657-0.563-1.297 1.016 1.641 0.563z"></path>
<path fill="#fff" d="M23.449 21.573q0.703-0.078 0.703-0.782 0-0.453-0.406-0.688-1.313-0.532-3.345-0.86-2.017-0.344-4.408-0.344-5.018 0-7.785 1.235-0.344 0.266-0.344 0.657 0 0.797 0.797 0.766 2.783-1.047 7.332-1.047 4.612 0 7.457 1.063z"></path>
<path fill="#fff" d="M13.241 10.88q-1.813-1.923-4.111-1.923-2.11 0-3.205 1.407-0.703 0.891-0.703 2.423 0 1.204 0.344 2.298 0.016 0.313 0.391 0.313t0.406-0.375q-0.125-0.797-0.125-1.423 0-1.297 0.61-2.048 0.875-1.188 2.72-1.188 1.813 0 3.392 1.438 0.313 0 0.313-0.578 0-0.125-0.031-0.344z"></path>
<path fill="#fff" d="M18.697 10.88q-0.031 0.219-0.031 0.344 0 0.578 0.313 0.578 1.563-1.438 3.408-1.438 1.813 0 2.704 1.188 0.61 0.75 0.61 2.048 0 0.625-0.125 1.423 0.016 0.375 0.406 0.375t0.391-0.313q0.344-1.094 0.344-2.298 0-1.532-0.703-2.423-1.11-1.407-3.205-1.407-2.314 0-4.111 1.923z"></path>
<path fill="#000" d="M20.839 23.027l1.313 1.016 1.641-0.563-1.297-1.016zM24.7 22.761q0.109 0.328 0.109 0.625 0 0.922-0.672 1.423-0.063 0.266-0.094 0.532 0.578 0.813 0.578 1.313 0 1.313-2.532 2.251t-6.081 0.938q-3.564 0-6.097-0.938-2.517-0.938-2.517-2.251 0-0.516 0.61-1.344-0.031-0.172-0.094-0.485-0.688-0.5-0.688-1.438 0-0.297 0.094-0.61 0.156-0.391-0.063-0.61t-0.5-0.61q-0.25-0.782-0.25-1.079 0.016-0.141 0.047-0.313 0.047-0.172 0.047-0.406-0.688-0.688-1.438-1.297-0.735-0.625-1.157-1.501-0.5-1.032-0.922-2.079-0.406-1.063-0.406-2.079 0-1.923 1.016-3.252t2.751-2.079q2.314-0.156 1.954-0.156 2.72 0 4.94 2.017v-5.487h5.331v5.503q2.22-2.032 4.971-2.032-0.391 0 1.954 0.156 1.704 0.75 2.72 2.079 1.032 1.329 1.032 3.252 0 1.016-0.422 2.063-0.406 1.047-0.891 2.079-0.422 0.891-1.172 1.548t-1.423 1.313q-0.016 0.188 0.016 0.36 0.047 0.172 0.063 0.313 0.016 0.219-0.25 1.079-0.281 0.391-0.5 0.61-0.203 0.219-0.063 0.594zM22.543 27.248q-0.063-0.344-0.219-0.75-0.172-0.375-0.36-0.5-0.172-0.141-0.313-0.36-1.579-1-5.612-0.891-4.096-0.109-5.659 0.891-0.188 0.188-0.375 0.328-0.172 0.141-0.297 0.516-0.172 0.391-0.219 0.766-0.031 0.5 0.438 0.5 0.453 0 0.438-0.485 0.141-1.563 5.612-1.563 5.518 0 5.675 1.563-0.031 0.485 0.438 0.485 0.453 0 0.453-0.5zM17.728 18.024q0.203 0 0.406 0.031 0.203 0.016 0.391 0.016-0.125-1.423 0.125-2.329 0.094-0.344 0.344-0.375 0.36-0.063 0.516 0.391 0.125 0.75-0.25 2.392 0.625 0.109 0.922 0.109 0.094-2.407 0.735-3.83 0.188-0.375 0.625-0.375 0.532 0 0.5 0.516 0.031 0.031 0.031 0.485 0 0.797-0.891 3.392 0.453 0.156 0.782 0.125 0.172-0.453 0.344-0.954 0.188-0.516 0.469-1.094 0.125-0.297 0.36-0.297 0.266 0 0.328 0.516 0.016 0.438-0.922 2.001 0.391 0.188 0.782 0.203 0.188-0.375 0.344-0.703 0.172-0.328 0.36-0.844 0.344-1 0.281-1.907-0.125-0.547-0.61-0.547-0.235 0-0.578 0.375 0.078-0.5 0.078-0.625 0-0.657-0.328-1.235-0.313-0.594-1.079-0.813-0.563 0.031-1.172 0.688t-0.813 1.548q-0.172-0.547-0.453-0.625t-0.375-0.078q-0.188 0-0.36 0.109-0.625 0.719-0.766 2.189-0.047 0.328-0.063 0.641t-0.063 0.907zM14.242 18.040q-0.047-0.578-0.063-0.891t-0.047-0.641q-0.188-1.501-0.766-2.189-0.156-0.109-0.375-0.109-0.094 0-0.391 0.078-0.281 0.078-0.422 0.61-0.219-0.891-0.829-1.548-0.594-0.657-1.157-0.688-0.782 0.235-1.094 0.829-0.313 0.578-0.313 1.235 0 0.297 0.078 0.625-0.375-0.391-0.578-0.391-0.5 0-0.61 0.563-0.078 0.969 0.281 1.892 0.172 0.516 0.328 0.86 0.172 0.328 0.375 0.703 0.375-0.016 0.782-0.203-0.954-1.548-0.922-2.001 0.016-0.516 0.313-0.516 0.235 0 0.375 0.297 0.266 0.563 0.438 1.079 0.188 0.516 0.375 0.969 0.375 0 0.782-0.125-0.907-2.642-0.907-3.408 0-0.422 0.031-0.469 0-0.531 0.5-0.531 0.438 0 0.641 0.391 0.625 1.423 0.735 3.83 0.313-0.016 0.907-0.109-0.375-1.673-0.235-2.392 0.141-0.469 0.5-0.406 0.266 0.063 0.344 0.375 0.25 0.985 0.125 2.345 0.25-0.031 0.797-0.063zM16.008 9.27q-0.766 0-1.313 0.547t-0.547 1.313q0 0.782 0.547 1.329 0.547 0.531 1.313 0.531 1.86 0 1.86-1.86t-1.86-1.86zM16.196 5.909q-0.094-0.047-0.188-0.047-0.172 0-0.25 0.063l-1.001-1.016h-0.36v0.438l0.985 0.985q-0.047 0.094-0.047 0.203 0 0.094 0.047 0.188l-0.985 1v0.406h0.36l0.985-0.985q0.109 0.047 0.266 0.047 0.125 0 0.203-0.031l0.985 0.969h0.422v-0.36l-1-0.969q0.047-0.109 0.047-0.266 0-0.141-0.063-0.25l1.016-1v-0.375h-0.438zM18.087 22.542l-2.11-1-2.032 1 2.11 1.016zM11.303 23.027l-1.657-0.563-1.297 1.016 1.641 0.563zM23.449 21.573q0.703-0.078 0.703-0.782 0-0.453-0.406-0.688-1.313-0.532-3.345-0.86-2.017-0.344-4.408-0.344-5.018 0-7.785 1.235-0.344 0.266-0.344 0.657 0 0.797 0.797 0.766 2.783-1.047 7.332-1.047 4.612 0 7.457 1.063zM13.241 10.88q-1.813-1.923-4.111-1.923-2.11 0-3.205 1.407-0.703 0.891-0.703 2.423 0 1.204 0.344 2.298 0.016 0.313 0.391 0.313t0.406-0.375q-0.125-0.797-0.125-1.423 0-1.297 0.61-2.048 0.875-1.188 2.72-1.188 1.813 0 3.392 1.438 0.313 0 0.313-0.578 0-0.125-0.031-0.344zM18.697 10.88q-0.031 0.219-0.031 0.344 0 0.578 0.313 0.578 1.563-1.438 3.408-1.438 1.813 0 2.704 1.188 0.61 0.75 0.61 2.048 0 0.625-0.125 1.423 0.016 0.375 0.406 0.375t0.391-0.313q0.344-1.094 0.344-2.298 0-1.532-0.703-2.423-1.11-1.407-3.205-1.407-2.314 0-4.111 1.923z"></path>
</svg>
