<!-- Generated by IcoMoon.io -->
<svg version="1.1" xmlns="http://www.w3.org/2000/svg" width="32" height="32" viewBox="0 0 32 32">
<title>leipzig-br</title>
<path fill="#fff" d="M16.008 2.141h2.157v2.126h3.236v-2.126h3.721v5.581l-2.517 2.908q0.813 1.032 0.031 2.173-0.125 0.203-0.125 0.375 0 0.203 0.125 0.391 0.328 0.485 0.313 1.376 0 0.875-0.328 1.376-0.109 0.156-0.109 0.328 0 0.219 0.141 0.406 0.735 1.11-0.031 2.189-0.109 0.188-0.109 0.36t0.109 0.36q0.344 0.516 0.344 1.438 0 0.907-0.375 1.344l2.532 1.266v1.344h1.047v4.533h-20.338v-4.518h1.063v-1.344l2.517-1.282q-0.375-0.438-0.375-1.344t0.344-1.423q0.125-0.172 0.125-0.36 0-0.156-0.125-0.36-0.766-1.094-0.016-2.189 0.141-0.25 0.141-0.406t-0.109-0.344q-0.344-0.5-0.36-1.376 0-0.891 0.328-1.376 0.141-0.188 0.141-0.391 0-0.172-0.125-0.36-0.797-1.141 0.031-2.189l-2.517-2.892v-5.581h3.721v2.11l3.22 0.016v-2.126z"></path>
<path fill="#fff" d="M8.004 6.112v1.36q2.001-0.094 3.986-0.188 2.001-0.109 4.018-0.109 1.97 0 3.971 0.125 2.017 0.125 4.033 0.172 0-0.516 0-0.672 0-0.172 0-0.688z"></path>
<path fill="#fff" d="M8.676 24.527q-0.672 0.063-0.672 0.672 0 0.672 0.672 0.672l7.332-0.25 7.332 0.25q0.672 0 0.672-0.672 0-0.61-0.672-0.672-1.829-0.109-3.674-0.188-1.829-0.094-3.658-0.094t-3.674 0.094q-1.829 0.078-3.658 0.188z"></path>
<path fill="#fff" d="M16.805 20.291q0.453-0.36 1.329-0.36 0.891 0 1.36 0.36 0.469 0.375 0.469 1.126 0.016 0.75-0.469 0.985-0.5 0.266-1.36 0.266t-1.329-0.266q-0.5-0.235-0.485-0.985t0.485-1.126z"></path>
<path fill="#fff" d="M12.522 20.291q0.469-0.36 1.344-0.36t1.344 0.36q0.469 0.375 0.422 1.126-0.031 0.75-0.422 0.985-0.406 0.266-1.376 0.25-0.954-0.031-1.313-0.25-0.375-0.203-0.422-0.969t0.422-1.141z"></path>
<path fill="#fff" d="M16.008 9.020q-1.485 0-3.439 0.203-1.954 0.188-2.454 0.344-0.516 0.188-0.469 0.594t0.469 0.531q0.422 0.141 1.673-0.031t1.548 0.031q0.281 0.219 0.281 1.032 0 0.797-0.281 1.094-0.297 0.297-1.61 0.078-1.297-0.219-1.61-0.078t-0.25 0.516q0.063 0.36 0.25 0.531 0.188 0.188 0.547-0.078 0.375-0.266 0.563 0.078 0.188 0.375 0.188 1.079t-0.188 1.047q-0.188 0.36-0.563 0.094-0.36-0.281-0.547-0.094-0.203 0.203-0.219 0.61 0 0.391 0.219 0.5 0.203 0.141 1.563-0.063 1.36-0.219 1.657 0.063 0.281 0.297 0.281 1.047t-0.281 1.079q-0.297 0.344-1.673 0.109-1.36-0.25-1.548-0.109-0.61 0.5 0 1.063 0.188 0.188 0.547-0.078 0.375-0.266 0.563 0.078 0.188 0.36 0.188 1.063t-0.188 1.047q-0.188 0.375-0.563 0.109-0.36-0.281-0.547-0.109-0.188 0.188-0.297 0.563-0.109 0.36 0.297 0.5 0.313 0.125 2.063-0.047t3.83-0.172q2.064 0 3.861 0.141 1.798 0.125 2.032 0.078 0.328-0.047 0.25-0.453-0.063-0.422-0.25-0.61-0.203-0.172-0.578 0.109-0.36 0.266-0.532-0.109-0.188-0.344-0.188-1.047t0.188-1.063q0.172-0.344 0.547-0.078t0.563 0.078q0.578-0.578 0-1.063-0.188-0.141-1.61 0.078t-1.626-0.078q-0.203-0.281-0.235-0.985-0.016-0.719 0.235-1.141t1.626-0.156q1.391 0.266 1.61 0.156 0.188-0.094 0.188-0.5t-0.188-0.61q-0.203-0.188-0.578 0.094-0.36 0.266-0.532-0.094-0.188-0.344-0.188-1.047t0.188-1.079q0.172-0.344 0.532-0.078 0.375 0.266 0.578 0.078 0.188-0.172 0.203-0.531 0.031-0.375-0.203-0.516-0.266-0.141-1.626 0.078t-1.61-0.078-0.25-1.063 0.25-1.063q0.25-0.281 1.532-0.031t1.704 0.031q0.406-0.203 0.438-0.563 0.047-0.375-0.438-0.563-0.516-0.156-2.486-0.344-1.954-0.203-3.408-0.203z"></path>
<path fill="#fff" d="M14.71 10.693q0.438-0.36 1.282-0.36 0.86 0 1.313 0.36 0.453 0.375 0.453 1.063t-0.453 1.063-1.313 0.375q-0.844 0-1.282-0.375-0.453-0.375-0.453-1.063t0.453-1.063z"></path>
<path fill="#fff" d="M16.805 13.866q0.453-0.36 1.329-0.36 0.891 0 1.36 0.36 0.469 0.375 0.469 1.079 0 0.688-0.469 1.047-0.469 0.375-1.36 0.375-0.875 0-1.329-0.375-0.469-0.36-0.469-1.047 0-0.703 0.469-1.079z"></path>
<path fill="#fff" d="M12.522 13.866q0.469-0.36 1.344-0.36t1.344 0.36q0.469 0.375 0.469 1.079 0 0.688-0.469 1.047-0.469 0.375-1.344 0.375t-1.344-0.375q-0.469-0.36-0.469-1.047 0-0.703 0.469-1.079z"></path>
<path fill="#fff" d="M14.71 17.102q0.438-0.36 1.282-0.36 0.86 0 1.313 0.36 0.453 0.375 0.453 1.079 0 0.688-0.453 1.047-0.453 0.375-1.313 0.375-0.844 0-1.282-0.375-0.453-0.36-0.453-1.047 0-0.703 0.453-1.079z"></path>
<path fill="#fff" d="M6.941 26.935v1.063h18.149v-1.063z"></path>
<path fill="#000" d="M16.008 2.141h2.157v2.126h3.236v-2.126h3.721v5.581l-2.517 2.908q0.813 1.032 0.031 2.173-0.125 0.203-0.125 0.375 0 0.203 0.125 0.391 0.328 0.485 0.313 1.376 0 0.875-0.328 1.376-0.109 0.156-0.109 0.328 0 0.219 0.141 0.406 0.735 1.11-0.031 2.189-0.109 0.188-0.109 0.36t0.109 0.36q0.344 0.516 0.344 1.438 0 0.907-0.375 1.344l2.532 1.266v1.344h1.047v4.533h-20.338v-4.518h1.063v-1.344l2.517-1.282q-0.375-0.438-0.375-1.344t0.344-1.423q0.125-0.172 0.125-0.36 0-0.156-0.125-0.36-0.766-1.094-0.016-2.189 0.141-0.25 0.141-0.406t-0.109-0.344q-0.344-0.5-0.36-1.376 0-0.891 0.328-1.376 0.141-0.188 0.141-0.391 0-0.172-0.125-0.36-0.797-1.141 0.031-2.189l-2.517-2.892v-5.581h3.721v2.11l3.22 0.016v-2.126zM8.004 6.112v1.36q2.001-0.094 3.986-0.188 2.001-0.109 4.018-0.109 1.97 0 3.971 0.125 2.017 0.125 4.033 0.172 0-0.516 0-0.672 0-0.172 0-0.688zM8.676 24.527q-0.672 0.063-0.672 0.672 0 0.672 0.672 0.672l7.332-0.25 7.332 0.25q0.672 0 0.672-0.672 0-0.61-0.672-0.672-1.829-0.109-3.674-0.188-1.829-0.094-3.658-0.094t-3.674 0.094q-1.829 0.078-3.658 0.188zM16.805 20.291q0.453-0.36 1.329-0.36 0.891 0 1.36 0.36 0.469 0.375 0.469 1.126 0.016 0.75-0.469 0.985-0.5 0.266-1.36 0.266t-1.329-0.266q-0.5-0.235-0.485-0.985t0.485-1.126zM12.522 20.291q0.469-0.36 1.344-0.36t1.344 0.36q0.469 0.375 0.422 1.126-0.031 0.75-0.422 0.985-0.406 0.266-1.376 0.25-0.954-0.031-1.313-0.25-0.375-0.203-0.422-0.969t0.422-1.141zM16.008 9.020q-1.485 0-3.439 0.203-1.954 0.188-2.454 0.344-0.516 0.188-0.469 0.594t0.469 0.531q0.422 0.141 1.673-0.031t1.548 0.031q0.281 0.219 0.281 1.032 0 0.797-0.281 1.094-0.297 0.297-1.61 0.078-1.297-0.219-1.61-0.078t-0.25 0.516q0.063 0.36 0.25 0.531 0.188 0.188 0.547-0.078 0.375-0.266 0.563 0.078 0.188 0.375 0.188 1.079t-0.188 1.047q-0.188 0.36-0.563 0.094-0.36-0.281-0.547-0.094-0.203 0.203-0.219 0.61 0 0.391 0.219 0.5 0.203 0.141 1.563-0.063 1.36-0.219 1.657 0.063 0.281 0.297 0.281 1.047t-0.281 1.079q-0.297 0.344-1.673 0.109-1.36-0.25-1.548-0.109-0.61 0.5 0 1.063 0.188 0.188 0.547-0.078 0.375-0.266 0.563 0.078 0.188 0.36 0.188 1.063t-0.188 1.047q-0.188 0.375-0.563 0.109-0.36-0.281-0.547-0.109-0.188 0.188-0.297 0.563-0.109 0.36 0.297 0.5 0.313 0.125 2.063-0.047t3.83-0.172q2.064 0 3.861 0.141 1.798 0.125 2.032 0.078 0.328-0.047 0.25-0.453-0.063-0.422-0.25-0.61-0.203-0.172-0.578 0.109-0.36 0.266-0.532-0.109-0.188-0.344-0.188-1.047t0.188-1.063q0.172-0.344 0.547-0.078t0.563 0.078q0.578-0.578 0-1.063-0.188-0.141-1.61 0.078t-1.626-0.078q-0.203-0.281-0.235-0.985-0.016-0.719 0.235-1.141t1.626-0.156q1.391 0.266 1.61 0.156 0.188-0.094 0.188-0.5t-0.188-0.61q-0.203-0.188-0.578 0.094-0.36 0.266-0.532-0.094-0.188-0.344-0.188-1.047t0.188-1.079q0.172-0.344 0.532-0.078 0.375 0.266 0.578 0.078 0.188-0.172 0.203-0.531 0.031-0.375-0.203-0.516-0.266-0.141-1.626 0.078t-1.61-0.078-0.25-1.063 0.25-1.063q0.25-0.281 1.532-0.031t1.704 0.031q0.406-0.203 0.438-0.563 0.047-0.375-0.438-0.563-0.516-0.156-2.486-0.344-1.954-0.203-3.408-0.203zM14.71 10.693q0.438-0.36 1.282-0.36 0.86 0 1.313 0.36 0.453 0.375 0.453 1.063t-0.453 1.063-1.313 0.375q-0.844 0-1.282-0.375-0.453-0.375-0.453-1.063t0.453-1.063zM16.805 13.866q0.453-0.36 1.329-0.36 0.891 0 1.36 0.36 0.469 0.375 0.469 1.079 0 0.688-0.469 1.047-0.469 0.375-1.36 0.375-0.875 0-1.329-0.375-0.469-0.36-0.469-1.047 0-0.703 0.469-1.079zM12.522 13.866q0.469-0.36 1.344-0.36t1.344 0.36q0.469 0.375 0.469 1.079 0 0.688-0.469 1.047-0.469 0.375-1.344 0.375t-1.344-0.375q-0.469-0.36-0.469-1.047 0-0.703 0.469-1.079zM14.71 17.102q0.438-0.36 1.282-0.36 0.86 0 1.313 0.36 0.453 0.375 0.453 1.079 0 0.688-0.453 1.047-0.453 0.375-1.313 0.375-0.844 0-1.282-0.375-0.453-0.36-0.453-1.047 0-0.703 0.453-1.079zM6.941 26.935v1.063h18.149v-1.063z"></path>
</svg>
