<!-- Generated by IcoMoon.io -->
<svg version="1.1" xmlns="http://www.w3.org/2000/svg" width="32" height="32" viewBox="0 0 32 32">
<title>leipzig-wr</title>
<path fill="#fff" d="M16.008 2.141h2.157v2.126h3.236v-2.126h3.721v5.581l-2.517 2.908q0.813 1.032 0.031 2.173-0.125 0.203-0.125 0.375 0 0.203 0.125 0.391 0.328 0.485 0.313 1.376 0 0.875-0.328 1.376-0.109 0.156-0.109 0.328 0 0.219 0.141 0.406 0.735 1.11-0.031 2.189-0.109 0.188-0.109 0.36t0.109 0.36q0.344 0.516 0.344 1.438 0 0.907-0.375 1.344l2.532 1.266v1.344h1.047v4.533h-20.338v-4.518h1.063v-1.344l2.517-1.282q-0.375-0.438-0.375-1.344t0.344-1.423q0.125-0.172 0.125-0.36 0-0.156-0.125-0.36-0.766-1.094-0.016-2.189 0.141-0.25 0.141-0.406t-0.109-0.344q-0.344-0.5-0.36-1.376 0-0.891 0.328-1.376 0.141-0.188 0.141-0.391 0-0.172-0.125-0.36-0.797-1.141 0.031-2.189l-2.517-2.892v-5.581h3.721v2.11l3.22 0.016v-2.126z"></path>
<path fill="#fff" d="M10.239 9.864q2.673-0.422 5.768-0.422 3.142 0 5.815 0.422l0.907-1.141q-3.189-0.563-6.722-0.563-3.564 0-6.738 0.563z"></path>
<path fill="#fff" d="M6.941 26.435v2.392h18.118v-2.392z"></path>
<path fill="#fff" d="M16.008 23.245q-3.252 0-5.893 0.219l-2.11 1.126v0.782h16.008v-0.782q-0.532-0.281-1.063-0.563t-1.047-0.563q-2.814-0.219-5.893-0.219z"></path>
<path fill="#fff" d="M24.012 3.204h-1.61v2.189h-5.346v-2.173h-2.11v2.173h-5.331v-2.189h-1.61q0 1.001 0 2.001 0 0.985 0 1.97 2.001-0.125 3.986-0.234 2.001-0.109 4.018-0.109 3.799 0 8.004 0.344z"></path>
<path fill="#fff" d="M18.837 10.693q-0.516 0.375-0.516 1.063t0.516 1.063q0.485 0.375 1.438 0.375t1.454-0.375 0.5-1.063-0.5-1.063q-0.5-0.36-1.454-0.36t-1.438 0.36z"></path>
<path fill="#fff" d="M14.632 10.693q-0.485 0.375-0.485 1.063t0.485 1.063q0.469 0.375 1.36 0.375 0.907 0 1.391-0.375 0.469-0.375 0.469-1.063t-0.469-1.063q-0.485-0.36-1.391-0.36-0.891 0-1.36 0.36z"></path>
<path fill="#fff" d="M10.286 10.693q-0.516 0.375-0.516 1.063t0.516 1.063q0.485 0.375 1.423 0.375 0.954 0 1.469-0.375 0.5-0.375 0.5-1.063t-0.5-1.063q-0.516-0.36-1.469-0.36-0.938 0-1.423 0.36z"></path>
<path fill="#fff" d="M20.791 13.866q-0.188 0.375-0.188 1.079 0 0.688 0.188 1.047 0.172 0.375 0.547 0.375t0.563-0.375q0.188-0.36 0.188-1.047 0-0.703-0.188-1.079-0.188-0.344-0.563-0.344t-0.547 0.344z"></path>
<path fill="#fff" d="M16.789 13.866q-0.469 0.375-0.469 1.079 0 0.688 0.469 1.047 0.469 0.375 1.344 0.375 0.891 0 1.36-0.375 0.469-0.36 0.469-1.047 0-0.703-0.469-1.079-0.469-0.36-1.36-0.36-0.875 0-1.344 0.36z"></path>
<path fill="#fff" d="M12.522 13.866q-0.469 0.375-0.469 1.079 0 0.688 0.469 1.047 0.453 0.375 1.344 0.375t1.36-0.375q0.453-0.36 0.453-1.047 0-0.703-0.453-1.079-0.469-0.36-1.36-0.36t-1.344 0.36z"></path>
<path fill="#fff" d="M10.114 13.866q-0.188 0.375-0.188 1.079 0 0.688 0.188 1.047 0.188 0.375 0.547 0.375 0.375 0 0.563-0.375 0.188-0.36 0.188-1.047 0-0.703-0.188-1.079-0.188-0.344-0.563-0.344-0.36 0-0.547 0.344z"></path>
<path fill="#fff" d="M20.791 20.291q-0.188 0.36-0.188 1.063t0.188 1.063q0.172 0.36 0.547 0.36t0.563-0.36 0.188-1.063-0.188-1.063q-0.188-0.344-0.563-0.344t-0.547 0.344z"></path>
<path fill="#fff" d="M10.114 20.291q-0.188 0.36-0.188 1.063t0.188 1.063 0.547 0.36q0.375 0 0.563-0.36t0.188-1.063-0.188-1.063q-0.188-0.344-0.563-0.344-0.36 0-0.547 0.344z"></path>
<path fill="#fff" d="M12.522 20.291q-0.469 0.375-0.469 1.126t0.469 1q0.438 0.25 1.376 0.25 0.954 0 1.329-0.25 0.36-0.25 0.406-1t-0.406-1.126q-0.469-0.36-1.36-0.36t-1.344 0.36z"></path>
<path fill="#fff" d="M16.789 20.291q-0.469 0.375-0.469 1.126t0.469 1q0.453 0.25 1.344 0.25 0.907 0 1.36-0.25 0.438-0.25 0.453-1t-0.453-1.126q-0.469-0.36-1.36-0.36-0.875 0-1.344 0.36z"></path>
<path fill="#fff" d="M18.837 17.102q-0.516 0.375-0.516 1.079 0 0.688 0.516 1.047 0.485 0.375 1.438 0.375t1.454-0.375q0.5-0.36 0.5-1.047 0-0.703-0.5-1.079-0.5-0.36-1.454-0.36t-1.438 0.36z"></path>
<path fill="#fff" d="M14.632 17.102q-0.485 0.375-0.485 1.079 0 0.688 0.485 1.047 0.469 0.375 1.36 0.375 0.907 0 1.391-0.375 0.469-0.36 0.469-1.047 0-0.703-0.469-1.079-0.485-0.36-1.391-0.36-0.891 0-1.36 0.36z"></path>
<path fill="#fff" d="M10.286 17.102q-0.516 0.375-0.516 1.079 0 0.688 0.516 1.047 0.485 0.375 1.423 0.375 0.954 0 1.469-0.375 0.5-0.36 0.5-1.047 0-0.703-0.5-1.079-0.516-0.36-1.469-0.36-0.938 0-1.423 0.36z"></path>
<path fill="#000" d="M16.008 2.141h2.157v2.126h3.236v-2.126h3.721v5.581l-2.517 2.908q0.813 1.032 0.031 2.173-0.125 0.203-0.125 0.375 0 0.203 0.125 0.391 0.328 0.485 0.313 1.376 0 0.875-0.328 1.376-0.109 0.156-0.109 0.328 0 0.219 0.141 0.406 0.735 1.11-0.031 2.189-0.109 0.188-0.109 0.36t0.109 0.36q0.344 0.516 0.344 1.438 0 0.907-0.375 1.344l2.532 1.266v1.344h1.047v4.533h-20.338v-4.518h1.063v-1.344l2.517-1.282q-0.375-0.438-0.375-1.344t0.344-1.423q0.125-0.172 0.125-0.36 0-0.156-0.125-0.36-0.766-1.094-0.016-2.189 0.141-0.25 0.141-0.406t-0.109-0.344q-0.344-0.5-0.36-1.376 0-0.891 0.328-1.376 0.141-0.188 0.141-0.391 0-0.172-0.125-0.36-0.797-1.141 0.031-2.189l-2.517-2.892v-5.581h3.721v2.11l3.22 0.016v-2.126zM10.239 9.864q2.673-0.422 5.768-0.422 3.142 0 5.815 0.422l0.907-1.141q-3.189-0.563-6.722-0.563-3.564 0-6.738 0.563zM6.941 26.435v2.392h18.118v-2.392zM16.008 23.245q-3.252 0-5.893 0.219l-2.11 1.126v0.782h16.008v-0.782q-0.532-0.281-1.063-0.563t-1.047-0.563q-2.814-0.219-5.893-0.219zM24.012 3.204h-1.61v2.189h-5.346v-2.173h-2.11v2.173h-5.331v-2.189h-1.61q0 1.001 0 2.001 0 0.985 0 1.97 2.001-0.125 3.986-0.234 2.001-0.109 4.018-0.109 3.799 0 8.004 0.344zM18.837 10.693q-0.516 0.375-0.516 1.063t0.516 1.063q0.485 0.375 1.438 0.375t1.454-0.375 0.5-1.063-0.5-1.063q-0.5-0.36-1.454-0.36t-1.438 0.36zM14.632 10.693q-0.485 0.375-0.485 1.063t0.485 1.063q0.469 0.375 1.36 0.375 0.907 0 1.391-0.375 0.469-0.375 0.469-1.063t-0.469-1.063q-0.485-0.36-1.391-0.36-0.891 0-1.36 0.36zM10.286 10.693q-0.516 0.375-0.516 1.063t0.516 1.063q0.485 0.375 1.423 0.375 0.954 0 1.469-0.375 0.5-0.375 0.5-1.063t-0.5-1.063q-0.516-0.36-1.469-0.36-0.938 0-1.423 0.36zM20.791 13.866q-0.188 0.375-0.188 1.079 0 0.688 0.188 1.047 0.172 0.375 0.547 0.375t0.563-0.375q0.188-0.36 0.188-1.047 0-0.703-0.188-1.079-0.188-0.344-0.563-0.344t-0.547 0.344zM16.789 13.866q-0.469 0.375-0.469 1.079 0 0.688 0.469 1.047 0.469 0.375 1.344 0.375 0.891 0 1.36-0.375 0.469-0.36 0.469-1.047 0-0.703-0.469-1.079-0.469-0.36-1.36-0.36-0.875 0-1.344 0.36zM12.522 13.866q-0.469 0.375-0.469 1.079 0 0.688 0.469 1.047 0.453 0.375 1.344 0.375t1.36-0.375q0.453-0.36 0.453-1.047 0-0.703-0.453-1.079-0.469-0.36-1.36-0.36t-1.344 0.36zM10.114 13.866q-0.188 0.375-0.188 1.079 0 0.688 0.188 1.047 0.188 0.375 0.547 0.375 0.375 0 0.563-0.375 0.188-0.36 0.188-1.047 0-0.703-0.188-1.079-0.188-0.344-0.563-0.344-0.36 0-0.547 0.344zM20.791 20.291q-0.188 0.36-0.188 1.063t0.188 1.063q0.172 0.36 0.547 0.36t0.563-0.36 0.188-1.063-0.188-1.063q-0.188-0.344-0.563-0.344t-0.547 0.344zM10.114 20.291q-0.188 0.36-0.188 1.063t0.188 1.063 0.547 0.36q0.375 0 0.563-0.36t0.188-1.063-0.188-1.063q-0.188-0.344-0.563-0.344-0.36 0-0.547 0.344zM12.522 20.291q-0.469 0.375-0.469 1.126t0.469 1q0.438 0.25 1.376 0.25 0.954 0 1.329-0.25 0.36-0.25 0.406-1t-0.406-1.126q-0.469-0.36-1.36-0.36t-1.344 0.36zM16.789 20.291q-0.469 0.375-0.469 1.126t0.469 1q0.453 0.25 1.344 0.25 0.907 0 1.36-0.25 0.438-0.25 0.453-1t-0.453-1.126q-0.469-0.36-1.36-0.36-0.875 0-1.344 0.36zM18.837 17.102q-0.516 0.375-0.516 1.079 0 0.688 0.516 1.047 0.485 0.375 1.438 0.375t1.454-0.375q0.5-0.36 0.5-1.047 0-0.703-0.5-1.079-0.5-0.36-1.454-0.36t-1.438 0.36zM14.632 17.102q-0.485 0.375-0.485 1.079 0 0.688 0.485 1.047 0.469 0.375 1.36 0.375 0.907 0 1.391-0.375 0.469-0.36 0.469-1.047 0-0.703-0.469-1.079-0.485-0.36-1.391-0.36-0.891 0-1.36 0.36zM10.286 17.102q-0.516 0.375-0.516 1.079 0 0.688 0.516 1.047 0.485 0.375 1.423 0.375 0.954 0 1.469-0.375 0.5-0.36 0.5-1.047 0-0.703-0.5-1.079-0.516-0.36-1.469-0.36-0.938 0-1.423 0.36z"></path>
</svg>
