<!-- Generated by IcoMoon.io -->
<svg version="1.1" xmlns="http://www.w3.org/2000/svg" width="32" height="32" viewBox="0 0 32 32">
<title>leipzig-wn</title>
<path fill="#fff" d="M6.269 18.712q-0.125 0.156-0.328 0.297-0.438 0.328-0.625-0.063-0.109-0.188 0.016-0.578 0.219-0.188 0.297-0.25 0.485-0.578 0.797-1.016 0.156-0.031 0.234-0.016 0.547 0.094 0.281 0.672-0.141 0.281-0.344 0.516-0.188 0.219-0.328 0.438z"></path>
<path fill="#fff" d="M10.896 11.771q0.313-0.969 1.188-1.047 0.594-0.047 1.032-0.047t0.938-0.156q-0.5 1.407-1.141 1.829-0.344 0.203-0.954 0.25-0.453 0.031-0.703-0.063t-0.36-0.766z"></path>
<path fill="#fff" d="M9.864 20.088q0.75-0.532 1.063-1.11 0.328-0.594 0.891-1.126 0.016-0.188 0.047-0.422t0.063-0.5q0.109-0.109 0.172-0.125 0.453-0.141 0.531 0.406 0 0.156-0.031 0.313-0.016 0.141 0.016 0.25 0.094 0.109 0.703 0.235 2.251 0.078 4.143-1.688 0-0.016 0.094-0.141 0.109-0.125 0.125-0.156 0.469-0.703 0.75-2.923 0.031-0.063 0.172-0.141 0.406-0.141 0.516 0.406-0.141 2.017-0.61 2.876-0.25 0.453-0.563 0.797 0.266-0.141 0.532-0.266t0.516-0.281q0.797-0.485 1.141-1.876 0.172-0.297 0.5-0.266 0.344 0.063 0.266 0.516-0.36 1.954-1.532 2.533-0.375 0.188-0.766 0.344-0.375 0.141-0.735 0.281 0.922-0.047 2.001-0.297 0.203 0 0.281 0.172 0.141 0.313-0.297 0.563-2.204 0.61-2.798 0.547-0.422 1.329-2.063 2.923-0.907 0.875-1.876 1.704-0.969 0.813-1.907 1.626-2.079 1.829-2.533 3.564 3.58 0.016 5.94 0.016 2.376 0 4.361 0t4.002 0q2.017-0.016 4.909-0.016 0.219 0 0.172-0.782-0.031-0.782-0.109-1.454-0.844 0.094-1.595-0.875-0.75-0.985-0.688-2.251 0.016-3.283-0.422-5.909-0.422-2.642-1.688-4.58-2.064-3.127-6.55-5.315-0.063 0.391-0.141 0.719-0.125 0.5-0.469 0.328-0.328-0.109-0.344-0.422 0.063-0.281 0.078-0.422-0.016-0.047-0.031-0.109-0.016-0.078-0.016-0.141-0.156-0.813-0.891-1.845-0.125 0.657-0.25 0.891t-0.219 0.406q-0.172 0.25-0.313 0.485-0.125 0.234-0.297 0.516-0.172-0.188-0.375-0.438-0.188-0.266-0.344-0.453-0.141-0.141-0.281-0.266-0.125-0.141-0.5-0.234 0.328 1.219-0.172 1.673-0.25 0.25-0.547 0.672-0.297 0.406-0.672 0.75-0.219 0.235-0.547 0.547-0.313 0.297-0.531 0.782-0.297 0.907-1.172 1.829-0.86 0.907-1.892 1.829-2.251 2.001-2.548 2.908-0.406 1.094 0.047 2.126 0.422 0.922 1.157 1.204 0.438 0.172 1.079-0.657 0.688-0.829 0.907-0.766 0.406 0.109 0.266 0.578-0.078 0.266-0.5 0.766-0.438 0.485-0.453 0.641-0.078 0.188 0.313 0.297 0.485 0.125 1.813-1.172 0.156-0.156 0.328-0.281 0.188-0.141 0.375-0.313z"></path>
<path fill="#fff" d="M10.38 20.838q-0.219 0.235-0.36 0.344-0.125 0.094-0.235 0.188-0.141 0.125-1.001 1.032-0.36 0.375-0.86 0.5-0.36 0.094-0.922-0.078-1.954-0.516-3.080-2.064-0.453-0.578-0.641-1.391-0.172-0.829 0.188-2.095 0.344-1.297 2.47-2.923 2.329-1.767 2.751-2.829 0.344-0.61 0.782-1.344t1.047-1.423q0.375-0.266 0.703-0.61 0.344-0.36 0.688-0.735v-1.923q0.875 0.172 1.251 0.5 0.188 0.203 0.422 0.375t0.422 0.375q0.391-0.703 0.5-1.172 0.016-0.109 0.094-0.438 0.094-0.328 0.188-1.079 0.235-0.047 0.406 0.125 0.735 0.797 1.376 1.813 2.861 1.141 5.221 2.704 2.376 1.563 3.627 3.252 3.596 4.877 3.596 14.32 0 1.985-0.203 3.627h-21.339q-0.203-2.032 2.157-4.315 1.063-1.032 2.204-2.001 1.157-0.969 2.251-1.97 2.032-1.876 2.251-3.001-0.078-0.188-0.297-0.25-0.547 0.328-1.094 0.422t-1.079 0.125q-0.344 0.016-0.688 0.031-0.328 0-0.782-0.156-0.61 0.688-1.047 1.188-0.422 0.485-0.969 0.875z"></path>
<path fill="#000" d="M6.269 18.712q-0.125 0.156-0.328 0.297-0.438 0.328-0.625-0.063-0.109-0.188 0.016-0.578 0.219-0.188 0.297-0.25 0.485-0.578 0.797-1.016 0.156-0.031 0.234-0.016 0.547 0.094 0.281 0.672-0.141 0.281-0.344 0.516-0.188 0.219-0.328 0.438zM10.896 11.771q0.313-0.969 1.188-1.047 0.594-0.047 1.032-0.047t0.938-0.156q-0.5 1.407-1.141 1.829-0.344 0.203-0.954 0.25-0.453 0.031-0.703-0.063t-0.36-0.766zM9.864 20.088q0.75-0.532 1.063-1.11 0.328-0.594 0.891-1.126 0.016-0.188 0.047-0.422t0.063-0.5q0.109-0.109 0.172-0.125 0.453-0.141 0.531 0.406 0 0.156-0.031 0.313-0.016 0.141 0.016 0.25 0.094 0.109 0.703 0.235 2.251 0.078 4.143-1.688 0-0.016 0.094-0.141 0.109-0.125 0.125-0.156 0.469-0.703 0.75-2.923 0.031-0.063 0.172-0.141 0.406-0.141 0.516 0.406-0.141 2.017-0.61 2.876-0.25 0.453-0.563 0.797 0.266-0.141 0.532-0.266t0.516-0.281q0.797-0.485 1.141-1.876 0.172-0.297 0.5-0.266 0.344 0.063 0.266 0.516-0.36 1.954-1.532 2.533-0.375 0.188-0.766 0.344-0.375 0.141-0.735 0.281 0.922-0.047 2.001-0.297 0.203 0 0.281 0.172 0.141 0.313-0.297 0.563-2.204 0.61-2.798 0.547-0.422 1.329-2.063 2.923-0.907 0.875-1.876 1.704-0.969 0.813-1.907 1.626-2.079 1.829-2.533 3.564 3.58 0.016 5.94 0.016 2.376 0 4.361 0t4.002 0q2.017-0.016 4.909-0.016 0.219 0 0.172-0.782-0.031-0.782-0.109-1.454-0.844 0.094-1.595-0.875-0.75-0.985-0.688-2.251 0.016-3.283-0.422-5.909-0.422-2.642-1.688-4.58-2.064-3.127-6.55-5.315-0.063 0.391-0.141 0.719-0.125 0.5-0.469 0.328-0.328-0.109-0.344-0.422 0.063-0.281 0.078-0.422-0.016-0.047-0.031-0.109-0.016-0.078-0.016-0.141-0.156-0.813-0.891-1.845-0.125 0.657-0.25 0.891t-0.219 0.406q-0.172 0.25-0.313 0.485-0.125 0.234-0.297 0.516-0.172-0.188-0.375-0.438-0.188-0.266-0.344-0.453-0.141-0.141-0.281-0.266-0.125-0.141-0.5-0.234 0.328 1.219-0.172 1.673-0.25 0.25-0.547 0.672-0.297 0.406-0.672 0.75-0.219 0.235-0.547 0.547-0.313 0.297-0.531 0.782-0.297 0.907-1.172 1.829-0.86 0.907-1.892 1.829-2.251 2.001-2.548 2.908-0.406 1.094 0.047 2.126 0.422 0.922 1.157 1.204 0.438 0.172 1.079-0.657 0.688-0.829 0.907-0.766 0.406 0.109 0.266 0.578-0.078 0.266-0.5 0.766-0.438 0.485-0.453 0.641-0.078 0.188 0.313 0.297 0.485 0.125 1.813-1.172 0.156-0.156 0.328-0.281 0.188-0.141 0.375-0.313zM10.38 20.838q-0.219 0.235-0.36 0.344-0.125 0.094-0.235 0.188-0.141 0.125-1.001 1.032-0.36 0.375-0.86 0.5-0.36 0.094-0.922-0.078-1.954-0.516-3.080-2.064-0.453-0.578-0.641-1.391-0.172-0.829 0.188-2.095 0.344-1.297 2.47-2.923 2.329-1.767 2.751-2.829 0.344-0.61 0.782-1.344t1.047-1.423q0.375-0.266 0.703-0.61 0.344-0.36 0.688-0.735v-1.923q0.875 0.172 1.251 0.5 0.188 0.203 0.422 0.375t0.422 0.375q0.391-0.703 0.5-1.172 0.016-0.109 0.094-0.438 0.094-0.328 0.188-1.079 0.235-0.047 0.406 0.125 0.735 0.797 1.376 1.813 2.861 1.141 5.221 2.704 2.376 1.563 3.627 3.252 3.596 4.877 3.596 14.32 0 1.985-0.203 3.627h-21.339q-0.203-2.032 2.157-4.315 1.063-1.032 2.204-2.001 1.157-0.969 2.251-1.97 2.032-1.876 2.251-3.001-0.078-0.188-0.297-0.25-0.547 0.328-1.094 0.422t-1.079 0.125q-0.344 0.016-0.688 0.031-0.328 0-0.782-0.156-0.61 0.688-1.047 1.188-0.422 0.485-0.969 0.875z"></path>
</svg>
