<!-- Generated by IcoMoon.io -->
<svg version="1.1" xmlns="http://www.w3.org/2000/svg" width="32" height="32" viewBox="0 0 32 32">
<title>leipzig-wb</title>
<path fill="#fff" d="M16.117 22.308q-1.767 0-3.017 0.313t-1.251 0.75 1.251 0.75q1.251 0.297 3.017 0.297t3.017-0.297q1.266-0.313 1.266-0.75t-1.266-0.75q-1.251-0.313-3.017-0.313z"></path>
<path fill="#fff" d="M19.65 3.048q-0.672 0-0.672 0.657 0 0.672 0.672 0.672t0.672-0.672q0-0.657-0.672-0.657z"></path>
<path fill="#fff" d="M15.898 3.001q-0.641 0-0.641 0.641t0.641 0.641 0.641-0.641-0.641-0.641z"></path>
<path fill="#fff" d="M18.446 11.896v-0.797h-2.001v-2.673h-0.797v2.673h-2.001v0.797h2.001v3.736h0.797v-3.736z"></path>
<path fill="#fff" d="M19.119 12.568h-2.001v3.736h-2.142v-3.736h-2.001v-2.126h2.001v-2.673h2.142v2.673h2.001z"></path>
<path fill="#fff" d="M17.555 21.073l-1.516-0.625-1.501 0.625 1.501 0.625z"></path>
<path fill="#fff" d="M22.12 12.678q0.172-0.844-0.532-3.111-0.688-2.282-2.048-3.783-0.203-0.125-0.36-0.109-0.235 0.031-0.438 0.234-0.188 0.203-0.047 0.485 1.657 1.126 2.532 3.236t0.891 3.048z"></path>
<path fill="#fff" d="M12.553 18.665q1.501-0.5 3.486-0.5 2.064 0 3.517 0.5 1.907-3.846 1.907-6.034 0-3.705-5.362-7.207-5.346 3.502-5.346 7.207 0 2.361 1.798 6.034z"></path>
<path fill="#fff" d="M19.259 20.26l-0.281-0.985q-1.313-0.313-2.955-0.313-1.61 0-2.829 0.281l-0.313 1q1.297-0.344 3.142-0.344 1.938 0 3.236 0.36z"></path>
<path fill="#fff" d="M19.822 21.932l-0.344-1.11-1.391 0.297 1.376 0.891z"></path>
<path fill="#fff" d="M12.35 21.948l0.281 0.063 1.376-0.891-1.329-0.297z"></path>
<path fill="#fff" d="M16.023 28.217q-1.157 1.673-3.127 1.673-0.203 0-0.406-0.016-0.188-0.031-0.375-0.047-0.453-0.016-1.329-0.156-0.875-0.156-1.954-0.703-0.954-0.829-2.423-0.829-1.126 0-1.954 0.532-0.234 0.109-0.578 0.453-0.625 0.672-1.016 0.735-0.313-0.156-0.328-0.532-0.078-0.735 1.079-1.892-0.203 0.031-0.766 0.188-0.469 0.141-0.625 0.141-0.516 0.078-0.547 0.016-0.172-0.172 0.125-0.703 0.25-0.453 0.969-0.797 0.094-0.047 0.594-0.266 1.454-0.766 3.048-0.766 2.329 0 4.205 1.579 0.75 0.25 1.516 0.25 2.345 0 2.423-1.938-1.516-0.141-2.533-0.516-1.001-0.375-1.001-0.875l1.251-4.158q-1.094-1.72-1.813-3.502t-0.719-3.377q0-4.784 5.19-7.347 0-0.203 0.047-0.61-0.531-0.438-0.531-1.11 0-1.438 1.454-1.438 1.438 0 1.438 1.438 0 0.625-0.453 1.047 0 0.485 0.125 0.657 0.266 0.375 0.703 0.391 0.453-0.016 0.75-0.406 0.063-0.094 0.125-0.578-0.406-0.422-0.406-1.047 0-1.469 1.469-1.469t1.469 1.469q0 0.829-0.719 1.282-0.063 0.313-0.031 0.5 2.642 3.127 2.298 7.222-0.109 1.172-0.36 2.314-0.25 1.126-0.875 2.126-0.235 0.532-0.735 1.204-0.485 0.657-0.844 1.235l1.235 4.158q-0.016 0.5-1.032 0.875t-2.564 0.516q0.078 1.938 2.439 1.938 0.766 0 1.516-0.25 1.86-1.579 4.205-1.579 1.595 0 3.033 0.766 0.188 0.094 0.328 0.156t0.281 0.109q0.703 0.36 0.969 0.797 0.047 0.141 0.141 0.36t-0.016 0.344q-0.047 0.063-0.547-0.016-0.156 0-0.625-0.141-0.578-0.156-0.782-0.188 1.157 1.172 1.094 1.892-0.031 0.36-0.344 0.532-0.391-0.063-1.016-0.735-0.313-0.313-0.563-0.453-0.875-0.532-1.954-0.532-1.501 0-2.439 0.829-1.079 0.547-1.954 0.703-0.875 0.141-1.313 0.156-0.188 0.016-0.391 0.047-0.203 0.016-0.391 0.016-2.017 0-3.142-1.673z"></path>
<path fill="#fff" d="M16.023 27.076q0.047 0 1.032 0.954 0.907 0.86 2.22 0.86 0.109 0 0.313 0t0.328 0q0.672-0.047 1.282-0.156 0.61-0.125 1.454-0.469 1.626-1.126 3.001-1.126 0.594 0 1.094 0.141 0.203 0.047 0.235 0.109 0.047 0.047 0.36 0.188 0.969 0.5 0.485 0.109-0.469-0.406-0.36-0.594 0.094-0.203 0.719-0.438 0.641-0.235-0.907-0.375-0.782-0.266-1.626-0.266-1.876 0-3.83 1.516-0.688 0.375-1.172 0.422-0.469 0.047-0.891 0.016-1.219-0.047-1.641-0.328-0.406-0.297-0.735-0.657-0.313-0.328-0.61-1.266-0.156-0.5-0.75-0.563-0.61 0.063-0.75 0.563-0.281 0.938-0.61 1.266-0.328 0.36-0.75 0.657-0.406 0.281-1.61 0.328-0.438 0.031-0.922-0.016-0.469-0.047-1.141-0.422-1.985-1.516-3.83-1.516-0.86 0-1.626 0.266-1.563 0.141-0.938 0.375 0.641 0.235 0.75 0.438 0.094 0.188-0.391 0.594-0.469 0.391 0.516-0.109 0.281-0.141 0.328-0.188 0.047-0.063 0.25-0.109 0.485-0.141 1.11-0.141 1.36 0 2.986 1.126 0.844 0.344 1.438 0.469 0.61 0.109 1.313 0.156 0.109 0 0.297 0 0.203 0 0.344 0 1.297 0 2.22-0.86 0.969-0.954 1.016-0.954z"></path>
<path fill="#000" d="M16.117 22.308q-1.767 0-3.017 0.313t-1.251 0.75 1.251 0.75q1.251 0.297 3.017 0.297t3.017-0.297q1.266-0.313 1.266-0.75t-1.266-0.75q-1.251-0.313-3.017-0.313zM19.65 3.048q-0.672 0-0.672 0.657 0 0.672 0.672 0.672t0.672-0.672q0-0.657-0.672-0.657zM15.898 3.001q-0.641 0-0.641 0.641t0.641 0.641 0.641-0.641-0.641-0.641zM18.446 11.896v-0.797h-2.001v-2.673h-0.797v2.673h-2.001v0.797h2.001v3.736h0.797v-3.736zM19.119 12.568h-2.001v3.736h-2.142v-3.736h-2.001v-2.126h2.001v-2.673h2.142v2.673h2.001zM17.555 21.073l-1.516-0.625-1.501 0.625 1.501 0.625zM22.12 12.678q0.172-0.844-0.532-3.111-0.688-2.282-2.048-3.783-0.203-0.125-0.36-0.109-0.235 0.031-0.438 0.234-0.188 0.203-0.047 0.485 1.657 1.126 2.532 3.236t0.891 3.048zM12.553 18.665q1.501-0.5 3.486-0.5 2.064 0 3.517 0.5 1.907-3.846 1.907-6.034 0-3.705-5.362-7.207-5.346 3.502-5.346 7.207 0 2.361 1.798 6.034zM19.259 20.26l-0.281-0.985q-1.313-0.313-2.955-0.313-1.61 0-2.829 0.281l-0.313 1q1.297-0.344 3.142-0.344 1.938 0 3.236 0.36zM19.822 21.932l-0.344-1.11-1.391 0.297 1.376 0.891zM12.35 21.948l0.281 0.063 1.376-0.891-1.329-0.297zM16.023 28.217q-1.157 1.673-3.127 1.673-0.203 0-0.406-0.016-0.188-0.031-0.375-0.047-0.453-0.016-1.329-0.156-0.875-0.156-1.954-0.703-0.954-0.829-2.423-0.829-1.126 0-1.954 0.532-0.234 0.109-0.578 0.453-0.625 0.672-1.016 0.735-0.313-0.156-0.328-0.532-0.078-0.735 1.079-1.892-0.203 0.031-0.766 0.188-0.469 0.141-0.625 0.141-0.516 0.078-0.547 0.016-0.172-0.172 0.125-0.703 0.25-0.453 0.969-0.797 0.094-0.047 0.594-0.266 1.454-0.766 3.048-0.766 2.329 0 4.205 1.579 0.75 0.25 1.516 0.25 2.345 0 2.423-1.938-1.516-0.141-2.533-0.516-1.001-0.375-1.001-0.875l1.251-4.158q-1.094-1.72-1.813-3.502t-0.719-3.377q0-4.784 5.19-7.347 0-0.203 0.047-0.61-0.531-0.438-0.531-1.11 0-1.438 1.454-1.438 1.438 0 1.438 1.438 0 0.625-0.453 1.047 0 0.485 0.125 0.657 0.266 0.375 0.703 0.391 0.453-0.016 0.75-0.406 0.063-0.094 0.125-0.578-0.406-0.422-0.406-1.047 0-1.469 1.469-1.469t1.469 1.469q0 0.829-0.719 1.282-0.063 0.313-0.031 0.5 2.642 3.127 2.298 7.222-0.109 1.172-0.36 2.314-0.25 1.126-0.875 2.126-0.235 0.532-0.735 1.204-0.485 0.657-0.844 1.235l1.235 4.158q-0.016 0.5-1.032 0.875t-2.564 0.516q0.078 1.938 2.439 1.938 0.766 0 1.516-0.25 1.86-1.579 4.205-1.579 1.595 0 3.033 0.766 0.188 0.094 0.328 0.156t0.281 0.109q0.703 0.36 0.969 0.797 0.047 0.141 0.141 0.36t-0.016 0.344q-0.047 0.063-0.547-0.016-0.156 0-0.625-0.141-0.578-0.156-0.782-0.188 1.157 1.172 1.094 1.892-0.031 0.36-0.344 0.532-0.391-0.063-1.016-0.735-0.313-0.313-0.563-0.453-0.875-0.532-1.954-0.532-1.501 0-2.439 0.829-1.079 0.547-1.954 0.703-0.875 0.141-1.313 0.156-0.188 0.016-0.391 0.047-0.203 0.016-0.391 0.016-2.017 0-3.142-1.673zM16.023 27.076q0.047 0 1.032 0.954 0.907 0.86 2.22 0.86 0.109 0 0.313 0t0.328 0q0.672-0.047 1.282-0.156 0.61-0.125 1.454-0.469 1.626-1.126 3.001-1.126 0.594 0 1.094 0.141 0.203 0.047 0.235 0.109 0.047 0.047 0.36 0.188 0.969 0.5 0.485 0.109-0.469-0.406-0.36-0.594 0.094-0.203 0.719-0.438 0.641-0.235-0.907-0.375-0.782-0.266-1.626-0.266-1.876 0-3.83 1.516-0.688 0.375-1.172 0.422-0.469 0.047-0.891 0.016-1.219-0.047-1.641-0.328-0.406-0.297-0.735-0.657-0.313-0.328-0.61-1.266-0.156-0.5-0.75-0.563-0.61 0.063-0.75 0.563-0.281 0.938-0.61 1.266-0.328 0.36-0.75 0.657-0.406 0.281-1.61 0.328-0.438 0.031-0.922-0.016-0.469-0.047-1.141-0.422-1.985-1.516-3.83-1.516-0.86 0-1.626 0.266-1.563 0.141-0.938 0.375 0.641 0.235 0.75 0.438 0.094 0.188-0.391 0.594-0.469 0.391 0.516-0.109 0.281-0.141 0.328-0.188 0.047-0.063 0.25-0.109 0.485-0.141 1.11-0.141 1.36 0 2.986 1.126 0.844 0.344 1.438 0.469 0.61 0.109 1.313 0.156 0.109 0 0.297 0 0.203 0 0.344 0 1.297 0 2.22-0.86 0.969-0.954 1.016-0.954z"></path>
</svg>
