<!-- Generated by IcoMoon.io -->
<svg version="1.1" xmlns="http://www.w3.org/2000/svg" width="32" height="32" viewBox="0 0 32 32">
<title>leipzig-wq</title>
<path fill="#fff" d="M9.582 17.243q-0.438-0.375-1.344-1.485-1.579-1.782-1.766-1.782-0.156 0-0.156 0.219 0 0.281 0.5 1.141 0.438 1.235 0.719 2.267 0.703-0.141 2.048-0.36z"></path>
<path fill="#fff" d="M13.272 16.93q-0.406-0.344-0.782-1.141-0.453-0.922-1.094-2.861-0.25-0.766-0.469-1.297t-0.313-0.516q-0.047 0.016-0.047 0.25 0.016 0.235 0.016 0.375 0 0.422 0.391 2.142 0.375 1.782 0.375 2.548 0.016 0.469-0.094 0.672 0.813-0.109 2.017-0.172z"></path>
<path fill="#fff" d="M17.289 16.883q-0.453-0.516-0.594-1.735-0.063-0.485-0.172-1.391-0.094-0.922-0.141-2.282-0.047-0.985-0.156-1.704t-0.219-0.75q-0.125 0.031-0.219 0.75-0.078 0.719-0.125 1.704-0.078 1.36-0.188 2.282-0.109 0.907-0.156 1.391-0.141 1.313-0.594 1.735 0.313 0 0.625-0.047 0.328-0.063 0.657-0.063t0.641 0.063q0.328 0.047 0.641 0.047z"></path>
<path fill="#fff" d="M20.775 17.087q-0.109-0.235-0.109-0.657 0-0.797 0.391-2.548 0.375-1.751 0.375-2.142 0-0.5-0.016-0.516-0.219-0.047-0.797 1.704-0.594 1.813-1.094 2.861-0.36 0.75-0.766 1.157 0.735 0.031 2.017 0.141z"></path>
<path fill="#fff" d="M24.527 17.602q0.141-0.578 0.313-1.141 0.188-0.578 0.375-1.141 0.5-0.922 0.5-1.126 0-0.219-0.156-0.219-0.25 0-1.767 1.767-0.469 0.547-0.797 0.938-0.328 0.375-0.547 0.594 1.063 0.141 2.079 0.328z"></path>
<path fill="#fff" d="M4.111 9.583q-1.047 0-1.047 1.047 0 1.063 1.047 1.063 1.063 0 1.063-1.063 0-1.047-1.063-1.047z"></path>
<path fill="#fff" d="M16.773 5.737q0.235 2.533 0.469 5.065 0.25 2.517 0.5 5.034 0.016 0.36 0.36 0.36 0.25-0.016 0.344-0.219 1.36-3.283 2.001-5.081 0.657-1.813 0.797-2.235-0.719-0.688-0.719-1.548 0-0.75 0.532-1.282 0.547-0.547 1.313-0.547 0.75 0 1.282 0.547 0.547 0.532 0.547 1.282 0 1.36-1.407 1.845l-1.141 6.816q-0.078 0.469 0.328 0.469 0.328 0 0.5-0.172 1.876-1.876 2.689-2.908 0.829-1.032 1.157-1.438-0.344-0.453-0.344-1.094 0-1.829 1.829-1.829 0.75 0 1.282 0.547 0.547 0.531 0.547 1.282 0 0.766-0.547 1.297-0.532 0.531-1.282 0.531-0.235 0-0.422-0.047-1.251 2.704-2.001 5.534-0.641 2.298-0.797 4.361 0.094 0.438 0.109 0.453-0.047-0.188 0.063 0.36 0.063 0.25 0.063 0.485-0.094 0.25-0.391 0.563-0.266 0.297-0.391 1.172 0.578 0.813 0.578 1.313 0 1.313-2.532 2.251t-6.081 0.938q-3.564 0-6.097-0.938-2.517-0.938-2.517-2.251 0-0.516 0.61-1.344-0.188-0.891-0.406-1.141-0.313-0.313-0.406-0.563 0-0.203 0.047-0.469 0.031-0.125 0.047-0.219 0.016-0.109 0.031-0.156 0.063-0.172 0.125-0.485-0.156-1.97-0.766-4.33-0.813-2.97-2.017-5.565-0.266 0.078-0.547 0.078-1.829 0-1.829-1.829t1.829-1.829 1.829 1.829q0 0.563-0.281 1.016 0.922 1.172 1.845 2.189 0.938 1.001 2.064 2.204 0.141 0.203 0.406 0.203 0.453 0 0.406-0.469-0.031-0.141-0.391-2.235t-0.782-4.565q-1.485-0.406-1.485-1.86 0-0.75 0.532-1.282 0.547-0.547 1.297-0.547 1.829 0 1.829 1.829 0 0.813-0.625 1.485 0.078 0.328 0.391 1.313 0.313 0.969 0.969 2.564 0.36 0.875 0.719 1.767 0.375 0.875 0.75 1.735 0.094 0.203 0.328 0.203 0.328-0.016 0.375-0.344 0.031-0.188 0.954-10.083-1.11-0.594-1.11-1.766 0-0.75 0.531-1.298t1.297-0.547q0.75 0 1.282 0.547 0.547 0.547 0.547 1.298 0 1.063-1.016 1.751z"></path>
<path fill="#fff" d="M12.553 21.901q-0.829 0-0.829 0.875t0.829 0.875q0.844 0 0.844-0.875t-0.844-0.875z"></path>
<path fill="#fff" d="M7.785 18.775q0.188 0.766 0.328 1.391 0.156 0.61 0.266 1.329 0.125 0.063 0.281 0.063 2.783-1.047 7.332-1.047 4.612 0 7.457 1.063 0.156-0.031 0.235-0.078 0.094-0.703 0.25-1.282 0.156-0.594 0.344-1.376-1.782-0.5-3.893-0.829-2.11-0.344-4.377-0.344t-4.33 0.328-3.893 0.782z"></path>
<path fill="#fff" d="M23.48 23.512l-1.126-1.079-1.438 0.578 1.141 1.079z"></path>
<path fill="#fff" d="M17.993 22.402l-2.017-1.047-1.938 1.047 2.017 1.063z"></path>
<path fill="#fff" d="M11.24 23.027l-1.579-0.532-1.251 0.985 1.563 0.532z"></path>
<path fill="#fff" d="M27.81 9.583q-1.063 0-1.063 1.047 0 1.063 1.063 1.063 1.047 0 1.047-1.063 0-1.047-1.047-1.047z"></path>
<path fill="#fff" d="M9.551 6.050q-1.047 0-1.047 1.063 0 1.047 1.047 1.047 1.063 0 1.063-1.047 0-1.063-1.063-1.063z"></path>
<path fill="#fff" d="M15.961 2.923q-1.047 0-1.047 1.063 0 1.047 1.047 1.047t1.047-1.047q0-1.063-1.047-1.063z"></path>
<path fill="#fff" d="M22.37 6.050q-1.063 0-1.063 1.063 0 1.047 1.063 1.047 1.047 0 1.047-1.047 0-1.063-1.047-1.063z"></path>
<path fill="#fff" d="M19.447 21.901q-0.829 0-0.829 0.875t0.829 0.875q0.844 0 0.844-0.875t-0.844-0.875z"></path>
<path fill="#fff" d="M16.008 24.7q-2.97 0-5.049 0.453-2.063 0.453-2.063 1.297 0 0.875 2.063 1.407 2.079 0.532 5.049 0.532 2.955 0 5.081-0.532 2.142-0.532 2.142-1.407 0-0.844-2.142-1.297-2.126-0.453-5.081-0.453z"></path>
<path fill="#000" d="M9.582 17.243q-0.438-0.375-1.344-1.485-1.579-1.782-1.766-1.782-0.156 0-0.156 0.219 0 0.281 0.5 1.141 0.438 1.235 0.719 2.267 0.703-0.141 2.048-0.36zM13.272 16.93q-0.406-0.344-0.782-1.141-0.453-0.922-1.094-2.861-0.25-0.766-0.469-1.297t-0.313-0.516q-0.047 0.016-0.047 0.25 0.016 0.235 0.016 0.375 0 0.422 0.391 2.142 0.375 1.782 0.375 2.548 0.016 0.469-0.094 0.672 0.813-0.109 2.017-0.172zM17.289 16.883q-0.453-0.516-0.594-1.735-0.063-0.485-0.172-1.391-0.094-0.922-0.141-2.282-0.047-0.985-0.156-1.704t-0.219-0.75q-0.125 0.031-0.219 0.75-0.078 0.719-0.125 1.704-0.078 1.36-0.188 2.282-0.109 0.907-0.156 1.391-0.141 1.313-0.594 1.735 0.313 0 0.625-0.047 0.328-0.063 0.657-0.063t0.641 0.063q0.328 0.047 0.641 0.047zM20.775 17.087q-0.109-0.235-0.109-0.657 0-0.797 0.391-2.548 0.375-1.751 0.375-2.142 0-0.5-0.016-0.516-0.219-0.047-0.797 1.704-0.594 1.813-1.094 2.861-0.36 0.75-0.766 1.157 0.735 0.031 2.017 0.141zM24.527 17.602q0.141-0.578 0.313-1.141 0.188-0.578 0.375-1.141 0.5-0.922 0.5-1.126 0-0.219-0.156-0.219-0.25 0-1.767 1.767-0.469 0.547-0.797 0.938-0.328 0.375-0.547 0.594 1.063 0.141 2.079 0.328zM4.111 9.583q-1.047 0-1.047 1.047 0 1.063 1.047 1.063 1.063 0 1.063-1.063 0-1.047-1.063-1.047zM16.773 5.737q0.235 2.533 0.469 5.065 0.25 2.517 0.5 5.034 0.016 0.36 0.36 0.36 0.25-0.016 0.344-0.219 1.36-3.283 2.001-5.081 0.657-1.813 0.797-2.235-0.719-0.688-0.719-1.548 0-0.75 0.532-1.282 0.547-0.547 1.313-0.547 0.75 0 1.282 0.547 0.547 0.532 0.547 1.282 0 1.36-1.407 1.845l-1.141 6.816q-0.078 0.469 0.328 0.469 0.328 0 0.5-0.172 1.876-1.876 2.689-2.908 0.829-1.032 1.157-1.438-0.344-0.453-0.344-1.094 0-1.829 1.829-1.829 0.75 0 1.282 0.547 0.547 0.531 0.547 1.282 0 0.766-0.547 1.297-0.532 0.531-1.282 0.531-0.235 0-0.422-0.047-1.251 2.704-2.001 5.534-0.641 2.298-0.797 4.361 0.094 0.438 0.109 0.453-0.047-0.188 0.063 0.36 0.063 0.25 0.063 0.485-0.094 0.25-0.391 0.563-0.266 0.297-0.391 1.172 0.578 0.813 0.578 1.313 0 1.313-2.532 2.251t-6.081 0.938q-3.564 0-6.097-0.938-2.517-0.938-2.517-2.251 0-0.516 0.61-1.344-0.188-0.891-0.406-1.141-0.313-0.313-0.406-0.563 0-0.203 0.047-0.469 0.031-0.125 0.047-0.219 0.016-0.109 0.031-0.156 0.063-0.172 0.125-0.485-0.156-1.97-0.766-4.33-0.813-2.97-2.017-5.565-0.266 0.078-0.547 0.078-1.829 0-1.829-1.829t1.829-1.829 1.829 1.829q0 0.563-0.281 1.016 0.922 1.172 1.845 2.189 0.938 1.001 2.064 2.204 0.141 0.203 0.406 0.203 0.453 0 0.406-0.469-0.031-0.141-0.391-2.235t-0.782-4.565q-1.485-0.406-1.485-1.86 0-0.75 0.532-1.282 0.547-0.547 1.297-0.547 1.829 0 1.829 1.829 0 0.813-0.625 1.485 0.078 0.328 0.391 1.313 0.313 0.969 0.969 2.564 0.36 0.875 0.719 1.767 0.375 0.875 0.75 1.735 0.094 0.203 0.328 0.203 0.328-0.016 0.375-0.344 0.031-0.188 0.954-10.083-1.11-0.594-1.11-1.766 0-0.75 0.531-1.298t1.297-0.547q0.75 0 1.282 0.547 0.547 0.547 0.547 1.298 0 1.063-1.016 1.751zM12.553 21.901q-0.829 0-0.829 0.875t0.829 0.875q0.844 0 0.844-0.875t-0.844-0.875zM7.785 18.775q0.188 0.766 0.328 1.391 0.156 0.61 0.266 1.329 0.125 0.063 0.281 0.063 2.783-1.047 7.332-1.047 4.612 0 7.457 1.063 0.156-0.031 0.235-0.078 0.094-0.703 0.25-1.282 0.156-0.594 0.344-1.376-1.782-0.5-3.893-0.829-2.11-0.344-4.377-0.344t-4.33 0.328-3.893 0.782zM23.48 23.512l-1.126-1.079-1.438 0.578 1.141 1.079zM17.993 22.402l-2.017-1.047-1.938 1.047 2.017 1.063zM11.24 23.027l-1.579-0.532-1.251 0.985 1.563 0.532zM27.81 9.583q-1.063 0-1.063 1.047 0 1.063 1.063 1.063 1.047 0 1.047-1.063 0-1.047-1.047-1.047zM9.551 6.050q-1.047 0-1.047 1.063 0 1.047 1.047 1.047 1.063 0 1.063-1.047 0-1.063-1.063-1.063zM15.961 2.923q-1.047 0-1.047 1.063 0 1.047 1.047 1.047t1.047-1.047q0-1.063-1.047-1.063zM22.37 6.050q-1.063 0-1.063 1.063 0 1.047 1.063 1.047 1.047 0 1.047-1.047 0-1.063-1.047-1.063zM19.447 21.901q-0.829 0-0.829 0.875t0.829 0.875q0.844 0 0.844-0.875t-0.844-0.875zM16.008 24.7q-2.97 0-5.049 0.453-2.063 0.453-2.063 1.297 0 0.875 2.063 1.407 2.079 0.532 5.049 0.532 2.955 0 5.081-0.532 2.142-0.532 2.142-1.407 0-0.844-2.142-1.297-2.126-0.453-5.081-0.453z"></path>
</svg>
