<!-- Generated by IcoMoon.io -->
<svg version="1.1" xmlns="http://www.w3.org/2000/svg" width="32" height="32" viewBox="0 0 32 32">
<title>leipzig-wk</title>
<path fill="#fff" d="M11.178 22.714l-1.516-0.5-1.172 0.938 1.485 0.5z"></path>
<path fill="#fff" d="M24.7 22.761q0.109 0.328 0.109 0.625 0 0.922-0.672 1.423-0.063 0.266-0.094 0.532 0.578 0.813 0.578 1.313 0 1.313-2.532 2.251t-6.081 0.938q-3.564 0-6.097-0.938-2.517-0.938-2.517-2.251 0-0.516 0.61-1.344-0.031-0.172-0.094-0.485-0.688-0.5-0.688-1.438 0-0.297 0.094-0.61 0.156-0.391-0.063-0.61t-0.5-0.61q-0.25-0.782-0.25-1.079 0.016-0.141 0.047-0.313 0.047-0.172 0.047-0.406-0.688-0.688-1.438-1.297-0.735-0.625-1.157-1.501-0.5-1.032-0.922-2.079-0.406-1.063-0.406-2.079 0-1.923 1.016-3.252t2.751-2.079q2.314-0.156 1.954-0.156 2.72 0 4.94 2.017v-5.487h5.331v5.503q2.22-2.032 4.971-2.032-0.391 0 1.954 0.156 1.704 0.75 2.72 2.079 1.032 1.329 1.032 3.252 0 1.016-0.422 2.063-0.406 1.047-0.891 2.079-0.422 0.891-1.172 1.548t-1.423 1.313q-0.016 0.188 0.016 0.36 0.047 0.172 0.063 0.313 0.016 0.219-0.25 1.079-0.281 0.391-0.5 0.61-0.203 0.219-0.063 0.594z"></path>
<path fill="#fff" d="M16.008 9.208q-1.61 0-1.61 1.61t1.61 1.61 1.61-1.61-1.61-1.61z"></path>
<path fill="#fff" d="M15.383 6.378l-1.11-1.079v2.392l1.11-0.891q-0.047-0.063-0.047-0.203 0-0.094 0.047-0.219z"></path>
<path fill="#fff" d="M15.742 7.207l-0.938 1.016h2.407l-1-1q-0.156 0.031-0.203 0.031-0.156 0-0.266-0.047z"></path>
<path fill="#fff" d="M16.633 6.847l1.11 0.844v-2.392l-1.126 1.032q0.047 0.125 0.047 0.266 0 0.094-0.031 0.25z"></path>
<path fill="#fff" d="M16.196 5.956l1.016-1.204h-2.407l0.954 1.219q0.094-0.047 0.25-0.047 0.063 0 0.188 0.031z"></path>
<path fill="#fff" d="M17.9 22.23l-1.923-0.922-1.845 0.922 1.907 0.922z"></path>
<path fill="#fff" d="M14.773 17.978q-0.016-1.923-0.328-3.861-0.313-1.954-0.625-2.376-1.938-2.142-4.377-2.142-2.095 0-3.189 1.407-0.719 0.922-0.719 2.423 0 3.127 2.329 5.847 0.266-0.125 0.516-0.219 0.266-0.094 0.531-0.188-0.141-0.313-0.281-0.594t-0.297-0.735q-0.297-0.875-0.235-1.657 0.109-0.485 0.531-0.485 0.188 0 0.5 0.328-0.078-0.422-0.078-0.531 0-1.454 1.235-1.798 1.297 0.063 1.72 1.938 0.141-0.469 0.391-0.531t0.328-0.063q0.188 0 0.328 0.094 0.531 0.657 0.657 1.907 0.031 0.281 0.031 0.547 0.016 0.266 0.063 0.75 0.485-0.094 0.969-0.063z"></path>
<path fill="#fff" d="M10.099 18.509q-0.141-0.36-0.297-0.797-0.141-0.438-0.375-0.938-0.125-0.25-0.313-0.25-0.266 0-0.281 0.438-0.031 0.375 0.766 1.72 0.125-0.047 0.25-0.078 0.141-0.047 0.25-0.094z"></path>
<path fill="#fff" d="M11.662 18.275q-0.063-2.048-0.61-3.314-0.188-0.328-0.547-0.328-0.453 0-0.453 0.453-0.016 0.016-0.016 0.406 0 0.672 0.766 2.939 0.657-0.125 0.86-0.156z"></path>
<path fill="#fff" d="M13.132 18.118q0.078-1.204-0.125-2.032-0.063-0.266-0.297-0.328-0.328-0.047-0.438 0.36-0.125 0.672 0.219 2.079 0.313-0.078 0.641-0.078z"></path>
<path fill="#fff" d="M22.98 25.872q-0.125-1.126-3.127-1.72-0.938-0.188-1.892-0.219t-1.954-0.078q-0.985 0.094-1.86 0.141-0.86 0.047-1.563 0.188-3.455 0.703-3.533 1.688-0.125 0.188-0.125 0.391 0 0.703 1.126 1.407 0-0.719 0.25-1.079 0.141-0.172 0.281-0.344 0.156-0.188 0.313-0.375 1.407-0.844 5.143-0.75 3.658-0.094 5.096 0.75 0.344 0.438 0.594 0.719 0.25 0.391 0.25 1.079 1.126-0.703 1.126-1.407 0-0.203-0.125-0.391z"></path>
<path fill="#fff" d="M21.167 27.326q0-1.407-5.19-1.407-5.112 0-5.112 1.407 0.328 1.391 5.174 1.391 4.768 0 5.128-1.391z"></path>
<path fill="#fff" d="M20.979 22.714l1.188 0.938 1.501-0.5-1.188-0.938z"></path>
<path fill="#fff" d="M24.137 19.259q2.235-2.767 2.235-5.831 0-1.501-0.719-2.423-1.11-1.407-3.189-1.407-2.454 0-4.377 2.142-0.328 0.422-0.641 2.376-0.313 1.938-0.328 3.861 0.563-0.047 1 0.063 0.016-0.485 0.016-0.75 0.016-0.266 0.063-0.547 0.109-1.251 0.657-1.907 0.125-0.094 0.328-0.094 0.078 0 0.328 0.063t0.391 0.531q0.406-1.876 1.72-1.938 1.235 0.344 1.235 1.798 0 0.109-0.078 0.531 0.297-0.328 0.5-0.328 0.406 0 0.532 0.485 0.047 0.782-0.235 1.657-0.172 0.453-0.313 0.735-0.125 0.281-0.266 0.563 0.281 0.109 0.563 0.219 0.297 0.094 0.578 0.203z"></path>
<path fill="#fff" d="M21.808 18.509q0.094 0.047 0.219 0.094 0.141 0.031 0.281 0.078 0.782-1.344 0.766-1.72-0.031-0.438-0.281-0.438-0.203 0-0.313 0.25-0.25 0.5-0.406 0.938-0.141 0.438-0.266 0.797z"></path>
<path fill="#fff" d="M20.244 18.275q0.188 0.031 0.86 0.156 0.766-2.267 0.766-2.939 0-0.391-0.016-0.406 0-0.453-0.453-0.453-0.375 0-0.547 0.328-0.563 1.266-0.61 3.314z"></path>
<path fill="#fff" d="M18.775 18.118q0.328 0 0.641 0.078 0.328-1.407 0.219-2.079-0.125-0.406-0.438-0.36-0.25 0.063-0.297 0.328-0.219 0.829-0.125 2.032z"></path>
<path fill="#fff" d="M23.449 21.573q0.703-0.078 0.703-0.782 0-0.453-0.406-0.688-1.313-0.532-3.345-0.86-2.017-0.344-4.408-0.344-5.018 0-7.785 1.235-0.344 0.266-0.344 0.657 0 0.797 0.797 0.766 2.783-1.047 7.332-1.047 4.612 0 7.457 1.063z"></path>
<path fill="#000" d="M11.178 22.714l-1.516-0.5-1.172 0.938 1.485 0.5zM24.7 22.761q0.109 0.328 0.109 0.625 0 0.922-0.672 1.423-0.063 0.266-0.094 0.532 0.578 0.813 0.578 1.313 0 1.313-2.532 2.251t-6.081 0.938q-3.564 0-6.097-0.938-2.517-0.938-2.517-2.251 0-0.516 0.61-1.344-0.031-0.172-0.094-0.485-0.688-0.5-0.688-1.438 0-0.297 0.094-0.61 0.156-0.391-0.063-0.61t-0.5-0.61q-0.25-0.782-0.25-1.079 0.016-0.141 0.047-0.313 0.047-0.172 0.047-0.406-0.688-0.688-1.438-1.297-0.735-0.625-1.157-1.501-0.5-1.032-0.922-2.079-0.406-1.063-0.406-2.079 0-1.923 1.016-3.252t2.751-2.079q2.314-0.156 1.954-0.156 2.72 0 4.94 2.017v-5.487h5.331v5.503q2.22-2.032 4.971-2.032-0.391 0 1.954 0.156 1.704 0.75 2.72 2.079 1.032 1.329 1.032 3.252 0 1.016-0.422 2.063-0.406 1.047-0.891 2.079-0.422 0.891-1.172 1.548t-1.423 1.313q-0.016 0.188 0.016 0.36 0.047 0.172 0.063 0.313 0.016 0.219-0.25 1.079-0.281 0.391-0.5 0.61-0.203 0.219-0.063 0.594zM16.008 9.208q-1.61 0-1.61 1.61t1.61 1.61 1.61-1.61-1.61-1.61zM15.383 6.378l-1.11-1.079v2.392l1.11-0.891q-0.047-0.063-0.047-0.203 0-0.094 0.047-0.219zM15.742 7.207l-0.938 1.016h2.407l-1-1q-0.156 0.031-0.203 0.031-0.156 0-0.266-0.047zM16.633 6.847l1.11 0.844v-2.392l-1.126 1.032q0.047 0.125 0.047 0.266 0 0.094-0.031 0.25zM16.196 5.956l1.016-1.204h-2.407l0.954 1.219q0.094-0.047 0.25-0.047 0.063 0 0.188 0.031zM17.9 22.23l-1.923-0.922-1.845 0.922 1.907 0.922zM14.773 17.978q-0.016-1.923-0.328-3.861-0.313-1.954-0.625-2.376-1.938-2.142-4.377-2.142-2.095 0-3.189 1.407-0.719 0.922-0.719 2.423 0 3.127 2.329 5.847 0.266-0.125 0.516-0.219 0.266-0.094 0.531-0.188-0.141-0.313-0.281-0.594t-0.297-0.735q-0.297-0.875-0.235-1.657 0.109-0.485 0.531-0.485 0.188 0 0.5 0.328-0.078-0.422-0.078-0.531 0-1.454 1.235-1.798 1.297 0.063 1.72 1.938 0.141-0.469 0.391-0.531t0.328-0.063q0.188 0 0.328 0.094 0.531 0.657 0.657 1.907 0.031 0.281 0.031 0.547 0.016 0.266 0.063 0.75 0.485-0.094 0.969-0.063zM10.099 18.509q-0.141-0.36-0.297-0.797-0.141-0.438-0.375-0.938-0.125-0.25-0.313-0.25-0.266 0-0.281 0.438-0.031 0.375 0.766 1.72 0.125-0.047 0.25-0.078 0.141-0.047 0.25-0.094zM11.662 18.275q-0.063-2.048-0.61-3.314-0.188-0.328-0.547-0.328-0.453 0-0.453 0.453-0.016 0.016-0.016 0.406 0 0.672 0.766 2.939 0.657-0.125 0.86-0.156zM13.132 18.118q0.078-1.204-0.125-2.032-0.063-0.266-0.297-0.328-0.328-0.047-0.438 0.36-0.125 0.672 0.219 2.079 0.313-0.078 0.641-0.078zM22.98 25.872q-0.125-1.126-3.127-1.72-0.938-0.188-1.892-0.219t-1.954-0.078q-0.985 0.094-1.86 0.141-0.86 0.047-1.563 0.188-3.455 0.703-3.533 1.688-0.125 0.188-0.125 0.391 0 0.703 1.126 1.407 0-0.719 0.25-1.079 0.141-0.172 0.281-0.344 0.156-0.188 0.313-0.375 1.407-0.844 5.143-0.75 3.658-0.094 5.096 0.75 0.344 0.438 0.594 0.719 0.25 0.391 0.25 1.079 1.126-0.703 1.126-1.407 0-0.203-0.125-0.391zM21.167 27.326q0-1.407-5.19-1.407-5.112 0-5.112 1.407 0.328 1.391 5.174 1.391 4.768 0 5.128-1.391zM20.979 22.714l1.188 0.938 1.501-0.5-1.188-0.938zM24.137 19.259q2.235-2.767 2.235-5.831 0-1.501-0.719-2.423-1.11-1.407-3.189-1.407-2.454 0-4.377 2.142-0.328 0.422-0.641 2.376-0.313 1.938-0.328 3.861 0.563-0.047 1 0.063 0.016-0.485 0.016-0.75 0.016-0.266 0.063-0.547 0.109-1.251 0.657-1.907 0.125-0.094 0.328-0.094 0.078 0 0.328 0.063t0.391 0.531q0.406-1.876 1.72-1.938 1.235 0.344 1.235 1.798 0 0.109-0.078 0.531 0.297-0.328 0.5-0.328 0.406 0 0.532 0.485 0.047 0.782-0.235 1.657-0.172 0.453-0.313 0.735-0.125 0.281-0.266 0.563 0.281 0.109 0.563 0.219 0.297 0.094 0.578 0.203zM21.808 18.509q0.094 0.047 0.219 0.094 0.141 0.031 0.281 0.078 0.782-1.344 0.766-1.72-0.031-0.438-0.281-0.438-0.203 0-0.313 0.25-0.25 0.5-0.406 0.938-0.141 0.438-0.266 0.797zM20.244 18.275q0.188 0.031 0.86 0.156 0.766-2.267 0.766-2.939 0-0.391-0.016-0.406 0-0.453-0.453-0.453-0.375 0-0.547 0.328-0.563 1.266-0.61 3.314zM18.775 18.118q0.328 0 0.641 0.078 0.328-1.407 0.219-2.079-0.125-0.406-0.438-0.36-0.25 0.063-0.297 0.328-0.219 0.829-0.125 2.032zM23.449 21.573q0.703-0.078 0.703-0.782 0-0.453-0.406-0.688-1.313-0.532-3.345-0.86-2.017-0.344-4.408-0.344-5.018 0-7.785 1.235-0.344 0.266-0.344 0.657 0 0.797 0.797 0.766 2.783-1.047 7.332-1.047 4.612 0 7.457 1.063z"></path>
</svg>
