<!-- Generated by IcoMoon.io -->
<svg version="1.1" xmlns="http://www.w3.org/2000/svg" width="32" height="32" viewBox="0 0 32 32">
<title>leipzig-bn</title>
<path fill="#fff" d="M18.071 18.931q0.391-0.078 0.875-0.172 0.5-0.109 1.063-0.297 0.5-0.156 0.328-0.563-0.109-0.172-0.313-0.172-1.11 0.25-2.095 0.297 0.375-0.141 0.782-0.281 0.406-0.156 0.797-0.344 1.219-0.578 1.61-2.533 0.078-0.453-0.297-0.516-0.328-0.031-0.516 0.266-0.375 1.391-1.188 1.876-0.266 0.156-0.547 0.281t-0.563 0.266q0.313-0.328 0.578-0.797 0.485-0.813 0.657-2.876-0.109-0.547-0.547-0.406-0.141 0.078-0.188 0.141-0.281 2.22-0.766 2.923-0.172 0.172-0.235 0.297-0.141 0.109-0.266 0.219-0.109 0.094-0.219 0.188-0.266 0.344-0.266 0.782 0 0.532 0.297 0.969 0.313 0.438 1.016 0.453z"></path>
<path fill="#fff" d="M16.962 8.395q4.33 2.126 6.394 5.221 1.266 1.923 1.688 4.565t0.422 5.925q-0.078 1.266 0.703 2.22 0.797 0.954 1.782 0.75 0.297-9.505-3.377-14.491-1.126-1.501-3.142-2.908t-4.502-2.517q0 0.328 0.016 0.672 0.016 0.328 0.016 0.563z"></path>
<path fill="#fff" d="M7.77 21.479q0.172-0.281 0.391-0.547 0.235-0.281 0.422-0.625 0.344-0.703-0.344-0.829-0.125-0.031-0.281 0.031-0.453 0.61-0.985 1.235-0.078 0.063-0.36 0.313-0.141 0.469-0.016 0.719 0.203 0.469 0.766 0.063 0.281-0.219 0.406-0.36z"></path>
<path fill="#fff" d="M13.272 17.461q0.047-0.188 0.109-0.375 0.078-0.188 0.125-0.375 0.141-0.61-0.344-0.61-0.172 0-0.422 0.281-0.109 0.25-0.219 0.5-0.109 0.235-0.172 0.438-0.047 0.156-0.141 0.438-0.031 0.235 0.188 0.344 0.328 0.188 0.672-0.297 0.109-0.109 0.203-0.344z"></path>
<path fill="#fff" d="M5.972 18.712q0.156-0.219 0.36-0.438 0.203-0.235 0.36-0.516 0.313-0.578-0.297-0.672-0.094-0.016-0.266 0.016-0.375 0.485-0.875 1.016-0.188 0.141-0.313 0.25-0.125 0.391-0.016 0.578 0.188 0.391 0.688 0.063 0.25-0.188 0.36-0.297z"></path>
<path fill="#fff" d="M10.583 11.771q0.109 0.672 0.36 0.766t0.703 0.063q0.61-0.047 0.938-0.25 0.657-0.422 1.157-1.829-0.5 0.156-0.938 0.156t-1.047 0.047q-0.86 0.078-1.172 1.047z"></path>
<path fill="#fff" d="M10.38 20.838q-0.219 0.235-0.36 0.344-0.125 0.094-0.219 0.188-0.078 0.078-1.016 1.032-0.36 0.391-0.86 0.5-0.328 0.094-0.922-0.078-1.954-0.516-3.080-2.064-0.438-0.578-0.625-1.391-0.172-0.829 0.172-2.095 0.344-1.282 2.486-2.923 2.329-1.782 2.736-2.829 0.344-0.61 0.782-1.344 0.453-0.735 1.063-1.423 0.375-0.266 0.703-0.61 0.344-0.36 0.672-0.735v-1.923q0.86 0.172 1.266 0.5 0.188 0.203 0.406 0.375 0.235 0.172 0.422 0.375 0.391-0.703 0.5-1.172 0.016-0.109 0.109-0.438t0.188-1.079q0.235-0.063 0.406 0.125 0.719 0.813 1.36 1.813 2.861 1.141 5.221 2.704 2.376 1.563 3.642 3.252 3.58 4.862 3.58 14.319 0 1.985-0.203 3.627h-21.339q-0.203-2.032 2.157-4.315 1.063-1.032 2.204-2.001 1.157-0.969 2.251-1.97 2.032-1.876 2.251-3.001-0.078-0.188-0.297-0.25-0.547 0.328-1.094 0.422t-1.079 0.125q-0.344 0.016-0.688 0.031-0.328 0-0.782-0.156-0.61 0.688-1.047 1.188-0.422 0.485-0.969 0.875z"></path>
<path fill="#000" d="M18.071 18.931q0.391-0.078 0.875-0.172 0.5-0.109 1.063-0.297 0.5-0.156 0.328-0.563-0.109-0.172-0.313-0.172-1.11 0.25-2.095 0.297 0.375-0.141 0.782-0.281 0.406-0.156 0.797-0.344 1.219-0.578 1.61-2.533 0.078-0.453-0.297-0.516-0.328-0.031-0.516 0.266-0.375 1.391-1.188 1.876-0.266 0.156-0.547 0.281t-0.563 0.266q0.313-0.328 0.578-0.797 0.485-0.813 0.657-2.876-0.109-0.547-0.547-0.406-0.141 0.078-0.188 0.141-0.281 2.22-0.766 2.923-0.172 0.172-0.235 0.297-0.141 0.109-0.266 0.219-0.109 0.094-0.219 0.188-0.266 0.344-0.266 0.782 0 0.532 0.297 0.969 0.313 0.438 1.016 0.453zM16.962 8.395q4.33 2.126 6.394 5.221 1.266 1.923 1.688 4.565t0.422 5.925q-0.078 1.266 0.703 2.22 0.797 0.954 1.782 0.75 0.297-9.505-3.377-14.491-1.126-1.501-3.142-2.908t-4.502-2.517q0 0.328 0.016 0.672 0.016 0.328 0.016 0.563zM7.77 21.479q0.172-0.281 0.391-0.547 0.235-0.281 0.422-0.625 0.344-0.703-0.344-0.829-0.125-0.031-0.281 0.031-0.453 0.61-0.985 1.235-0.078 0.063-0.36 0.313-0.141 0.469-0.016 0.719 0.203 0.469 0.766 0.063 0.281-0.219 0.406-0.36zM13.272 17.461q0.047-0.188 0.109-0.375 0.078-0.188 0.125-0.375 0.141-0.61-0.344-0.61-0.172 0-0.422 0.281-0.109 0.25-0.219 0.5-0.109 0.235-0.172 0.438-0.047 0.156-0.141 0.438-0.031 0.235 0.188 0.344 0.328 0.188 0.672-0.297 0.109-0.109 0.203-0.344zM5.972 18.712q0.156-0.219 0.36-0.438 0.203-0.235 0.36-0.516 0.313-0.578-0.297-0.672-0.094-0.016-0.266 0.016-0.375 0.485-0.875 1.016-0.188 0.141-0.313 0.25-0.125 0.391-0.016 0.578 0.188 0.391 0.688 0.063 0.25-0.188 0.36-0.297zM10.583 11.771q0.109 0.672 0.36 0.766t0.703 0.063q0.61-0.047 0.938-0.25 0.657-0.422 1.157-1.829-0.5 0.156-0.938 0.156t-1.047 0.047q-0.86 0.078-1.172 1.047zM10.38 20.838q-0.219 0.235-0.36 0.344-0.125 0.094-0.219 0.188-0.078 0.078-1.016 1.032-0.36 0.391-0.86 0.5-0.328 0.094-0.922-0.078-1.954-0.516-3.080-2.064-0.438-0.578-0.625-1.391-0.172-0.829 0.172-2.095 0.344-1.282 2.486-2.923 2.329-1.782 2.736-2.829 0.344-0.61 0.782-1.344 0.453-0.735 1.063-1.423 0.375-0.266 0.703-0.61 0.344-0.36 0.672-0.735v-1.923q0.86 0.172 1.266 0.5 0.188 0.203 0.406 0.375 0.235 0.172 0.422 0.375 0.391-0.703 0.5-1.172 0.016-0.109 0.109-0.438t0.188-1.079q0.235-0.063 0.406 0.125 0.719 0.813 1.36 1.813 2.861 1.141 5.221 2.704 2.376 1.563 3.642 3.252 3.58 4.862 3.58 14.319 0 1.985-0.203 3.627h-21.339q-0.203-2.032 2.157-4.315 1.063-1.032 2.204-2.001 1.157-0.969 2.251-1.97 2.032-1.876 2.251-3.001-0.078-0.188-0.297-0.25-0.547 0.328-1.094 0.422t-1.079 0.125q-0.344 0.016-0.688 0.031-0.328 0-0.782-0.156-0.61 0.688-1.047 1.188-0.422 0.485-0.969 0.875z"></path>
</svg>
