<!-- Generated by IcoMoon.io -->
<svg version="1.1" xmlns="http://www.w3.org/2000/svg" width="32" height="32" viewBox="0 0 32 32">
<title>leipzig-bq</title>
<path fill="#fff" d="M16.773 5.737q0.235 2.532 0.469 5.065 0.25 2.517 0.5 5.034 0.016 0.36 0.36 0.36 0.25-0.016 0.344-0.219 1.36-3.283 2.001-5.081 0.657-1.813 0.797-2.235-0.719-0.688-0.719-1.548 0-0.75 0.532-1.282 0.547-0.547 1.313-0.547 0.75 0 1.282 0.547 0.547 0.532 0.547 1.282 0 1.36-1.407 1.845l-1.141 6.816q-0.078 0.469 0.328 0.469 0.328 0 0.5-0.172 1.876-1.876 2.689-2.908 0.829-1.032 1.157-1.438-0.344-0.453-0.344-1.094 0-1.829 1.829-1.829 0.75 0 1.282 0.547 0.547 0.531 0.547 1.282 0 0.766-0.547 1.297-0.532 0.531-1.282 0.531-0.235 0-0.422-0.047-1.251 2.704-2.001 5.534-0.641 2.298-0.797 4.361 0.094 0.438 0.109 0.453-0.047-0.188 0.063 0.36 0.063 0.25 0.063 0.485-0.094 0.25-0.391 0.563-0.266 0.297-0.391 1.172 0.578 0.813 0.578 1.313 0 1.313-2.532 2.251t-6.081 0.938q-3.564 0-6.097-0.938-2.517-0.938-2.517-2.251 0-0.516 0.61-1.344-0.188-0.891-0.406-1.141-0.313-0.313-0.406-0.563 0-0.203 0.047-0.469 0.031-0.125 0.047-0.219 0.016-0.109 0.031-0.156 0.063-0.172 0.125-0.485-0.156-1.97-0.766-4.33-0.813-2.97-2.017-5.565-0.266 0.078-0.547 0.078-1.829 0-1.829-1.829t1.829-1.829 1.829 1.829q0 0.563-0.281 1.016 0.922 1.172 1.845 2.189 0.938 1.001 2.064 2.204 0.141 0.203 0.406 0.203 0.453 0 0.406-0.469-0.031-0.141-0.391-2.235t-0.782-4.565q-1.485-0.406-1.485-1.86 0-0.75 0.532-1.282 0.547-0.547 1.297-0.547 1.829 0 1.829 1.829 0 0.813-0.625 1.485 0.078 0.328 0.391 1.313 0.313 0.969 0.969 2.564 0.36 0.875 0.719 1.767 0.375 0.875 0.75 1.735 0.094 0.203 0.328 0.203 0.328-0.016 0.375-0.344 0.031-0.188 0.954-10.083-1.11-0.594-1.11-1.766 0-0.75 0.531-1.298t1.297-0.547q0.75 0 1.282 0.547 0.547 0.547 0.547 1.298 0 1.063-1.016 1.751z"></path>
<path fill="#fff" d="M12.553 21.87q-0.86 0-0.86 0.907 0 0.922 0.86 0.922 0.875 0 0.875-0.922 0-0.907-0.875-0.907z"></path>
<path fill="#fff" d="M7.785 18.587q0.188 0.641 0.328 1.157 0.156 0.5 0.266 1.094 0.094 0.047 0.281 0.047 1.313-0.391 3.22-0.688 1.923-0.297 4.127-0.297 2.251 0 4.19 0.313 1.938 0.297 3.252 0.688 0.078 0 0.235-0.063 0.094-0.563 0.25-1.047 0.156-0.5 0.344-1.157-1.782-0.406-3.893-0.797t-4.377-0.391-4.33 0.391q-2.063 0.375-3.893 0.75z"></path>
<path fill="#fff" d="M23.48 23.512l-1.126-1.079-1.438 0.578 1.141 1.079z"></path>
<path fill="#fff" d="M17.993 22.402l-2.017-1.047-1.938 1.047 2.017 1.063z"></path>
<path fill="#fff" d="M11.24 23.027l-1.579-0.532-1.251 0.985 1.563 0.532z"></path>
<path fill="#fff" d="M19.447 21.87q-0.875 0-0.875 0.907 0 0.922 0.875 0.922t0.875-0.922q0-0.907-0.875-0.907z"></path>
<path fill="#fff" d="M22.87 27.295q-0.094-0.469-0.219-0.782-0.188-0.406-0.375-0.532-0.188-0.141-0.344-0.36-0.829-0.532-2.329-0.907-1.485-0.391-3.596-0.344-2.157-0.047-3.627 0.344-1.469 0.375-2.282 0.907-0.203 0.188-0.391 0.344-0.188 0.141-0.328 0.532-0.156 0.469-0.219 0.797-0.031 0.532 0.469 0.532 0.469 0 0.469-0.516 0.141-1.626 5.878-1.626 5.8 0 5.956 1.626-0.031 0.516 0.469 0.516 0.469 0 0.469-0.532z"></path>
<path fill="#000" d="M16.773 5.737q0.235 2.532 0.469 5.065 0.25 2.517 0.5 5.034 0.016 0.36 0.36 0.36 0.25-0.016 0.344-0.219 1.36-3.283 2.001-5.081 0.657-1.813 0.797-2.235-0.719-0.688-0.719-1.548 0-0.75 0.532-1.282 0.547-0.547 1.313-0.547 0.75 0 1.282 0.547 0.547 0.532 0.547 1.282 0 1.36-1.407 1.845l-1.141 6.816q-0.078 0.469 0.328 0.469 0.328 0 0.5-0.172 1.876-1.876 2.689-2.908 0.829-1.032 1.157-1.438-0.344-0.453-0.344-1.094 0-1.829 1.829-1.829 0.75 0 1.282 0.547 0.547 0.531 0.547 1.282 0 0.766-0.547 1.297-0.532 0.531-1.282 0.531-0.235 0-0.422-0.047-1.251 2.704-2.001 5.534-0.641 2.298-0.797 4.361 0.094 0.438 0.109 0.453-0.047-0.188 0.063 0.36 0.063 0.25 0.063 0.485-0.094 0.25-0.391 0.563-0.266 0.297-0.391 1.172 0.578 0.813 0.578 1.313 0 1.313-2.532 2.251t-6.081 0.938q-3.564 0-6.097-0.938-2.517-0.938-2.517-2.251 0-0.516 0.61-1.344-0.188-0.891-0.406-1.141-0.313-0.313-0.406-0.563 0-0.203 0.047-0.469 0.031-0.125 0.047-0.219 0.016-0.109 0.031-0.156 0.063-0.172 0.125-0.485-0.156-1.97-0.766-4.33-0.813-2.97-2.017-5.565-0.266 0.078-0.547 0.078-1.829 0-1.829-1.829t1.829-1.829 1.829 1.829q0 0.563-0.281 1.016 0.922 1.172 1.845 2.189 0.938 1.001 2.064 2.204 0.141 0.203 0.406 0.203 0.453 0 0.406-0.469-0.031-0.141-0.391-2.235t-0.782-4.565q-1.485-0.406-1.485-1.86 0-0.75 0.532-1.282 0.547-0.547 1.297-0.547 1.829 0 1.829 1.829 0 0.813-0.625 1.485 0.078 0.328 0.391 1.313 0.313 0.969 0.969 2.564 0.36 0.875 0.719 1.767 0.375 0.875 0.75 1.735 0.094 0.203 0.328 0.203 0.328-0.016 0.375-0.344 0.031-0.188 0.954-10.083-1.11-0.594-1.11-1.766 0-0.75 0.531-1.298t1.297-0.547q0.75 0 1.282 0.547 0.547 0.547 0.547 1.298 0 1.063-1.016 1.751zM12.553 21.87q-0.86 0-0.86 0.907 0 0.922 0.86 0.922 0.875 0 0.875-0.922 0-0.907-0.875-0.907zM7.785 18.587q0.188 0.641 0.328 1.157 0.156 0.5 0.266 1.094 0.094 0.047 0.281 0.047 1.313-0.391 3.22-0.688 1.923-0.297 4.127-0.297 2.251 0 4.19 0.313 1.938 0.297 3.252 0.688 0.078 0 0.235-0.063 0.094-0.563 0.25-1.047 0.156-0.5 0.344-1.157-1.782-0.406-3.893-0.797t-4.377-0.391-4.33 0.391q-2.063 0.375-3.893 0.75zM23.48 23.512l-1.126-1.079-1.438 0.578 1.141 1.079zM17.993 22.402l-2.017-1.047-1.938 1.047 2.017 1.063zM11.24 23.027l-1.579-0.532-1.251 0.985 1.563 0.532zM19.447 21.87q-0.875 0-0.875 0.907 0 0.922 0.875 0.922t0.875-0.922q0-0.907-0.875-0.907zM22.87 27.295q-0.094-0.469-0.219-0.782-0.188-0.406-0.375-0.532-0.188-0.141-0.344-0.36-0.829-0.532-2.329-0.907-1.485-0.391-3.596-0.344-2.157-0.047-3.627 0.344-1.469 0.375-2.282 0.907-0.203 0.188-0.391 0.344-0.188 0.141-0.328 0.532-0.156 0.469-0.219 0.797-0.031 0.532 0.469 0.532 0.469 0 0.469-0.516 0.141-1.626 5.878-1.626 5.8 0 5.956 1.626-0.031 0.516 0.469 0.516 0.469 0 0.469-0.532z"></path>
</svg>
