<!-- Generated by IcoMoon.io -->
<svg version="1.1" xmlns="http://www.w3.org/2000/svg" width="32" height="32" viewBox="0 0 32 32">
<title>leipzig-bb</title>
<path fill="#fff" d="M18.071 27.638q-0.25-0.156-0.703-0.657-0.078-0.078-0.156-0.141-0.078-0.078-0.156-0.172-0.125-0.078-0.25-0.078-0.813 0-0.61 0.61 0.094 0.141 0.078 0.125 0.109 0.109 0.75 0.703 0.297 0.281 0.563 0.406 0.141 0.094 0.281 0.094 0.469 0 0.469-0.469 0-0.188-0.266-0.422z"></path>
<path fill="#fff" d="M19.259 19.681l-0.281-1.079q-1.235-0.344-2.955-0.344-1.579 0-2.829 0.313l-0.313 1.079q1.36-0.36 3.142-0.36 1.907 0 3.236 0.391z"></path>
<path fill="#fff" d="M17.555 21.385l-1.516 0.625-1.501-0.625 1.501-0.625z"></path>
<path fill="#fff" d="M19.322 20.572q-1.329-0.36-3.252-0.36-1.798 0-3.173 0.328l-0.219 0.61 1.329 0.297-1.376 0.875-0.297-0.063-0.375 1.126q0.328-0.344 1.485-0.578t2.673-0.235q1.485 0 2.626 0.235 1.157 0.235 1.501 0.563l-0.391-1.126-0.391 0.078-1.376-0.875 1.407-0.297z"></path>
<path fill="#fff" d="M18.806 12.396v-1.751h-1.876v-2.439h-1.735v2.439h-1.907v1.751h1.907v3.486h1.735v-3.486z"></path>
<path fill="#fff" d="M13.944 27.638q-0.172 0.172-0.172 0.391 0 0.469 0.469 0.469 0.141 0 0.25-0.078 0.266-0.141 0.516-0.391 0.563-0.532 0.782-0.719 0.031-0.031 0.031-0.109 0-0.61-0.61-0.61-0.109 0-0.203 0.094-0.141 0.141-0.344 0.297-0.188 0.141-0.344 0.328-0.141 0.172-0.375 0.328z"></path>
<path fill="#fff" d="M21.901 13.381q0.219-0.844-0.485-3.142t-2.189-3.846q-0.188-0.141-0.391-0.125-0.266 0.016-0.5 0.219t-0.063 0.485q1.829 1.204 2.736 3.345 0.907 2.126 0.891 3.064z"></path>
<path fill="#fff" d="M16.023 28.217q-1.157 1.673-3.127 1.673-0.203 0-0.406-0.016-0.188-0.031-0.375-0.047-0.453-0.016-1.329-0.156-0.875-0.156-1.954-0.703-0.954-0.829-2.423-0.829-1.126 0-1.954 0.532-0.234 0.109-0.578 0.453-0.625 0.672-1.016 0.735-0.313-0.156-0.328-0.532-0.078-0.735 1.079-1.892-0.203 0.031-0.766 0.188-0.469 0.141-0.625 0.141-0.516 0.078-0.547 0.016-0.172-0.172 0.125-0.703 0.25-0.453 0.969-0.797 0.094-0.047 0.594-0.266 1.454-0.766 3.048-0.766 2.329 0 4.205 1.579 0.75 0.25 1.516 0.25 2.345 0 2.423-1.938-1.516-0.141-2.533-0.516-1.001-0.375-1.001-0.875l1.251-4.158q-1.094-1.72-1.813-3.502t-0.719-3.377q0-4.784 5.19-7.347 0-0.203 0.047-0.61-0.531-0.438-0.531-1.11 0-1.438 1.454-1.438 1.438 0 1.438 1.438 0 0.625-0.453 1.047 0 0.485 0.125 0.657 0.266 0.375 0.703 0.391 0.453-0.016 0.75-0.406 0.063-0.094 0.125-0.578-0.406-0.422-0.406-1.047 0-1.469 1.469-1.469t1.469 1.469q0 0.829-0.719 1.282-0.063 0.313-0.031 0.5 2.642 3.127 2.298 7.222-0.109 1.172-0.36 2.314-0.25 1.126-0.875 2.126-0.235 0.532-0.735 1.204-0.485 0.657-0.844 1.235l1.235 4.158q-0.016 0.5-1.032 0.875t-2.564 0.516q0.078 1.938 2.439 1.938 0.766 0 1.516-0.25 1.86-1.579 4.205-1.579 1.595 0 3.033 0.766 0.188 0.094 0.328 0.156t0.281 0.109q0.703 0.36 0.969 0.797 0.047 0.141 0.141 0.36t-0.016 0.344q-0.047 0.063-0.547-0.016-0.156 0-0.625-0.141-0.578-0.156-0.782-0.188 1.157 1.172 1.094 1.892-0.031 0.36-0.344 0.532-0.391-0.063-1.016-0.735-0.313-0.313-0.563-0.453-0.875-0.532-1.954-0.532-1.501 0-2.439 0.829-1.079 0.547-1.954 0.703-0.875 0.141-1.313 0.156-0.188 0.016-0.391 0.047-0.203 0.016-0.391 0.016-2.017 0-3.142-1.673z"></path>
<path fill="#000" d="M18.071 27.638q-0.25-0.156-0.703-0.657-0.078-0.078-0.156-0.141-0.078-0.078-0.156-0.172-0.125-0.078-0.25-0.078-0.813 0-0.61 0.61 0.094 0.141 0.078 0.125 0.109 0.109 0.75 0.703 0.297 0.281 0.563 0.406 0.141 0.094 0.281 0.094 0.469 0 0.469-0.469 0-0.188-0.266-0.422zM19.259 19.681l-0.281-1.079q-1.235-0.344-2.955-0.344-1.579 0-2.829 0.313l-0.313 1.079q1.36-0.36 3.142-0.36 1.907 0 3.236 0.391zM17.555 21.385l-1.516 0.625-1.501-0.625 1.501-0.625zM19.322 20.572q-1.329-0.36-3.252-0.36-1.798 0-3.173 0.328l-0.219 0.61 1.329 0.297-1.376 0.875-0.297-0.063-0.375 1.126q0.328-0.344 1.485-0.578t2.673-0.235q1.485 0 2.626 0.235 1.157 0.235 1.501 0.563l-0.391-1.126-0.391 0.078-1.376-0.875 1.407-0.297zM18.806 12.396v-1.751h-1.876v-2.439h-1.735v2.439h-1.907v1.751h1.907v3.486h1.735v-3.486zM13.944 27.638q-0.172 0.172-0.172 0.391 0 0.469 0.469 0.469 0.141 0 0.25-0.078 0.266-0.141 0.516-0.391 0.563-0.532 0.782-0.719 0.031-0.031 0.031-0.109 0-0.61-0.61-0.61-0.109 0-0.203 0.094-0.141 0.141-0.344 0.297-0.188 0.141-0.344 0.328-0.141 0.172-0.375 0.328zM21.901 13.381q0.219-0.844-0.485-3.142t-2.189-3.846q-0.188-0.141-0.391-0.125-0.266 0.016-0.5 0.219t-0.063 0.485q1.829 1.204 2.736 3.345 0.907 2.126 0.891 3.064zM16.023 28.217q-1.157 1.673-3.127 1.673-0.203 0-0.406-0.016-0.188-0.031-0.375-0.047-0.453-0.016-1.329-0.156-0.875-0.156-1.954-0.703-0.954-0.829-2.423-0.829-1.126 0-1.954 0.532-0.234 0.109-0.578 0.453-0.625 0.672-1.016 0.735-0.313-0.156-0.328-0.532-0.078-0.735 1.079-1.892-0.203 0.031-0.766 0.188-0.469 0.141-0.625 0.141-0.516 0.078-0.547 0.016-0.172-0.172 0.125-0.703 0.25-0.453 0.969-0.797 0.094-0.047 0.594-0.266 1.454-0.766 3.048-0.766 2.329 0 4.205 1.579 0.75 0.25 1.516 0.25 2.345 0 2.423-1.938-1.516-0.141-2.533-0.516-1.001-0.375-1.001-0.875l1.251-4.158q-1.094-1.72-1.813-3.502t-0.719-3.377q0-4.784 5.19-7.347 0-0.203 0.047-0.61-0.531-0.438-0.531-1.11 0-1.438 1.454-1.438 1.438 0 1.438 1.438 0 0.625-0.453 1.047 0 0.485 0.125 0.657 0.266 0.375 0.703 0.391 0.453-0.016 0.75-0.406 0.063-0.094 0.125-0.578-0.406-0.422-0.406-1.047 0-1.469 1.469-1.469t1.469 1.469q0 0.829-0.719 1.282-0.063 0.313-0.031 0.5 2.642 3.127 2.298 7.222-0.109 1.172-0.36 2.314-0.25 1.126-0.875 2.126-0.235 0.532-0.735 1.204-0.485 0.657-0.844 1.235l1.235 4.158q-0.016 0.5-1.032 0.875t-2.564 0.516q0.078 1.938 2.439 1.938 0.766 0 1.516-0.25 1.86-1.579 4.205-1.579 1.595 0 3.033 0.766 0.188 0.094 0.328 0.156t0.281 0.109q0.703 0.36 0.969 0.797 0.047 0.141 0.141 0.36t-0.016 0.344q-0.047 0.063-0.547-0.016-0.156 0-0.625-0.141-0.578-0.156-0.782-0.188 1.157 1.172 1.094 1.892-0.031 0.36-0.344 0.532-0.391-0.063-1.016-0.735-0.313-0.313-0.563-0.453-0.875-0.532-1.954-0.532-1.501 0-2.439 0.829-1.079 0.547-1.954 0.703-0.875 0.141-1.313 0.156-0.188 0.016-0.391 0.047-0.203 0.016-0.391 0.016-2.017 0-3.142-1.673z"></path>
</svg>
