<!-- Generated by IcoMoon.io -->
<svg version="1.1" xmlns="http://www.w3.org/2000/svg" width="32" height="32" viewBox="0 0 32 32">
<title>maya-wq</title>
<path fill="#000" d="M16 4.781q-1.234 0-1.234 1.219 0 1.234 1.234 1.234 1.219 0 1.219-1.234 0-1.219-1.219-1.219zM19.563 11.547q-0.094-1.344-1.125-2.273t-2.438-0.93q-1.422 0-2.414 0.93t-0.883 2.273q1.328 0.031 2.039-0.523t1.258-1.445q0.516 0.922 1.453 1.492t2.109 0.477zM17.813 7.5q1.281 0.516 2.094 1.578t0.828 2.391q0.719-0.234 1.219-0.734t0.969-1.156q0.531 2.063 2.344 2.063 0.844 0 1.781-0.531t1.5-1.422l-6.109 11.703q0.828 0.063 1.469 0.664t0.641 1.461v0q0 0.484-0.281 1.016h0.828q1.094 0 1.883 0.789t0.789 1.883v0q0 1.109-0.789 1.891t-1.883 0.781h-18.188q-1.125 0-1.906-0.781t-0.781-1.891v0q0-1.094 0.781-1.883t1.906-0.789h0.766q-0.234-0.313-0.234-1.016v0q0-0.859 0.641-1.461t1.484-0.648l-6.109-11.719q1.328 1.953 3.234 1.953 1.844 0 2.391-2.047 0.828 1.313 2.25 1.859-0.031-1.313 0.766-2.375t2.078-1.578q-0.516-0.688-0.516-1.5 0-0.969 0.68-1.656t1.664-0.688q0.969 0 1.656 0.688t0.688 1.656q0 0.828-0.531 1.5zM9.656 16.578l2.109-1.063 2.156 1.063-2.156 1.063zM18.063 16.578l2.109-1.063 2.172 1.063-2.172 1.063zM13.891 17.75l2.109-1.063 2.156 1.063-2.156 1.063zM13.891 15.188l2.109-1.063 2.156 1.063-2.156 1.063zM6.953 25.641q-1.625 0-1.625 1.609v0.016q0 1.609 1.625 1.609h18.094q1.609 0 1.609-1.609v-0.016q0-1.609-1.609-1.609h-18.094zM21.328 21.406l4.781-8.984q-0.547 0.266-1.141 0.281-1.141 0.078-2.031-1.344-0.375 0.609-1.547 1.063t-2.313 0.281q-0.984-0.125-1.797-0.422t-1.281-0.906q-1.094 1.359-3.094 1.328-2.891 0-3.797-1.453-0.781 1.281-2.078 1.453-0.422 0.078-1.141-0.281l4.781 8.984h10.656zM9.609 22.406q-1.047 0-1.047 1.063v0q0 1.063 1.047 1.063h12.766q1.063 0 1.063-1.063v0q0-1.063-1.063-1.063h-12.766z"></path>
<path fill="#f9f9f9" d="M6.273 28.678c-0.726-0.213-1.071-1.284-0.714-2.221 0.285-0.751 0.246-0.748 10.417-0.748 6.486 0 9.472 0.046 9.771 0.15 0.716 0.25 1.018 1.168 0.692 2.103-0.289 0.83 0.152 0.795-10.235 0.821-5.66 0.014-9.669-0.028-9.931-0.105z"></path>
<path fill="#f9f9f9" d="M9.22 24.394c-0.532-0.19-0.728-1.092-0.35-1.609 0.186-0.255 0.419-0.263 7.13-0.263s6.943 0.009 7.13 0.263c0.204 0.279 0.255 0.993 0.089 1.242-0.291 0.435-0.706 0.461-7.243 0.45-3.603-0.006-6.643-0.043-6.755-0.083z"></path>
<path fill="#f9f9f9" d="M8.453 17.075c-1.256-2.362-2.303-4.342-2.326-4.4s0.14-0.052 0.364 0.012c0.624 0.179 1.465-0.098 2.084-0.687l0.542-0.516 0.507 0.408c0.65 0.523 1.687 0.799 3.055 0.816 1.322 0.016 2.021-0.159 2.755-0.692l0.56-0.405 0.486 0.33c0.755 0.512 1.892 0.801 3.182 0.807 0.982 0.005 1.272-0.050 1.962-0.37 0.445-0.207 0.92-0.476 1.054-0.597 0.229-0.207 0.278-0.189 0.766 0.288 0.586 0.572 1.265 0.785 1.987 0.622 0.265-0.060 0.463-0.064 0.441-0.009s-1.069 2.032-2.325 4.394l-2.284 4.295h-10.527l-2.284-4.295zM17.088 18.385c0.595-0.299 1.082-0.594 1.082-0.655s-0.493-0.333-1.097-0.604l-1.097-0.493-1.073 0.539c-0.59 0.297-1.073 0.569-1.073 0.604 0 0.051 1.993 1.119 2.139 1.146 0.020 0.004 0.524-0.238 1.119-0.537zM12.884 17.165c0.595-0.299 1.082-0.576 1.082-0.615s-0.495-0.31-1.099-0.603l-1.099-0.532-1.084 0.545c-0.596 0.3-1.047 0.582-1.003 0.627 0.129 0.129 1.901 1.11 2.017 1.116 0.058 0.003 0.591-0.239 1.186-0.538v0zM21.291 17.165c0.595-0.299 1.082-0.576 1.082-0.615s-0.495-0.31-1.099-0.603l-1.099-0.532-1.084 0.545c-0.596 0.3-1.047 0.582-1.003 0.627 0.129 0.129 1.901 1.11 2.017 1.116 0.058 0.003 0.591-0.239 1.186-0.538zM17.088 15.809c0.595-0.299 1.082-0.573 1.082-0.609s-0.488-0.31-1.085-0.61l-1.085-0.545-1.085 0.545c-0.597 0.3-1.085 0.575-1.085 0.61 0 0.051 1.994 1.119 2.139 1.146 0.020 0.004 0.524-0.238 1.119-0.537z"></path>
<path fill="#f9f9f9" d="M12.749 11.166c0.004-0.453 0.447-1.336 0.893-1.783 1.733-1.735 4.97-0.905 5.681 1.457l0.19 0.631-0.502-0.003c-0.734-0.004-1.561-0.433-2.34-1.212l-0.686-0.686-0.772 0.803c-0.539 0.561-0.935 0.847-1.314 0.95-0.867 0.234-1.153 0.195-1.15-0.157z"></path>
<path fill="#f9f9f9" d="M15.186 6.861c-0.413-0.413-0.408-1.262 0.011-1.692 0.345-0.354 1.22-0.361 1.605-0.013 0.203 0.184 0.282 0.42 0.282 0.844 0 0.773-0.344 1.132-1.085 1.132-0.362 0-0.633-0.090-0.814-0.271z"></path>
</svg>
