<!-- Generated by IcoMoon.io -->
<svg version="1.1" xmlns="http://www.w3.org/2000/svg" width="32" height="32" viewBox="0 0 32 32">
<title>maya-wb</title>
<path fill="#000" d="M16 6.344q1.563 0 1.563-1.563 0-1.578-1.563-1.578t-1.563 1.578q0 1.563 1.563 1.563zM9.609 22.406q-1.047 0-1.047 1.063v0q0 1.063 1.047 1.063h12.766q1.063 0 1.063-1.063v0q0-1.063-1.063-1.063h-12.766zM6.891 25.641q-1.563 0-1.563 1.563v0q0 1.563 1.563 1.563h18.203q1.563 0 1.563-1.563v0q0-1.563-1.563-1.563h-18.203zM17.391 14.328l3.031-3.453q0.5 0.484 1.031 1.375 0.438 0.703 0.844 1.563 0.406 0.875 0.625 1.672-0.141 1.656-1.031 3.25t-2.297 2.578l2.813 0.031q0.891 0 1.516 0.633t0.625 1.508v0.016q0 0.406-0.281 1.031h0.828q1.094 0 1.883 0.789t0.789 1.883v0q0 1.109-0.789 1.891t-1.883 0.781h-18.188q-1.125 0-1.906-0.781t-0.781-1.891v0q0-1.094 0.781-1.883t1.906-0.789h0.875q-0.328-0.391-0.328-1.031v-0.016q0-0.875 0.625-1.508t1.516-0.633h2.734q-1.469-0.891-2.359-2.438t-0.875-3.422q0.922-2.922 2.336-5.070t1.961-2.852q0.203-0.625 0.734-0.953-0.813-0.688-0.813-1.828 0-1.109 0.781-1.898t1.906-0.789q1.094 0 1.883 0.789t0.789 1.898q0 1.016-0.766 2 0.313 0.625 0.375 0.734 0.484 0.688 1.266 2.188l-3.313 3.672q-0.531 0.531 0.109 1.031 0.578 0.516 1.047-0.078zM17.984 15.047q-0.453 0.469-1.195 0.461t-1.070-0.32-0.477-0.961 0.273-1.195l2.984-3.516q0.047-0.047-0.18-0.242t-0.336-0.352q-0.203-0.328-0.461-0.789t-0.539-0.836q-0.531 0.156-0.984 0.156-0.547 0-1.016-0.203-0.75 0.5-1.375 1.766-2.469 3.172-3.375 6.516-0.406 2.156 1.648 4t4.117 1.844 4.039-1.961 1.82-3.992q-0.234-0.703-0.656-1.555t-0.766-1.508z"></path>
<path fill="#f9f9f9" d="M6.508 28.628c-0.774-0.195-1.085-0.629-1.085-1.511 0-0.44 0.086-0.648 0.396-0.958l0.396-0.396h19.531l0.364 0.313c0.278 0.239 0.379 0.471 0.428 0.983 0.078 0.823-0.26 1.335-1.020 1.546-0.548 0.152-18.414 0.174-19.011 0.023z"></path>
<path fill="#f9f9f9" d="M8.902 24.159c-0.303-0.335-0.29-1.142 0.024-1.426 0.224-0.203 0.914-0.224 7.098-0.224 6.464 0 6.862 0.014 7.074 0.248 0.303 0.335 0.29 1.142-0.024 1.426-0.224 0.203-0.914 0.224-7.098 0.224-6.464 0-6.862-0.014-7.074-0.248z"></path>
<path fill="#f9f9f9" d="M14.575 21.044c-1.055-0.365-1.958-0.949-2.852-1.848-1.819-1.827-1.873-3.358-0.233-6.654 0.53-1.065 2.895-4.67 3.258-4.967 0.17-0.139 0.519-0.179 1.264-0.145l1.028 0.047 0.503 0.838c0.276 0.461 0.57 0.934 0.652 1.052 0.122 0.176-0.139 0.554-1.445 2.089l-1.593 1.874 0.060 0.726c0.071 0.859 0.438 1.332 1.132 1.463 0.947 0.178 1.412-0.090 2.783-1.603l1.276-1.408 0.299 0.56c0.165 0.308 0.488 1.006 0.72 1.552 0.4 0.944 0.413 1.030 0.264 1.763-0.203 0.999-0.75 1.947-1.647 2.856-1.764 1.788-3.685 2.422-5.468 1.806z"></path>
<path fill="#f9f9f9" d="M15.008 5.91c-0.88-0.816-0.527-2.345 0.594-2.569 0.927-0.185 1.677 0.251 1.83 1.065 0.203 1.081-0.385 1.832-1.432 1.832-0.487 0-0.722-0.078-0.992-0.327z"></path>
</svg>
