<!-- Generated by IcoMoon.io -->
<svg version="1.1" xmlns="http://www.w3.org/2000/svg" width="32" height="32" viewBox="0 0 32 32">
<title>maya-wp</title>
<path fill="#000" d="M6.953 25.641q-1.625 0-1.625 1.609v0.016q0 1.609 1.625 1.609h18.094q1.609 0 1.609-1.609v-0.016q0-1.609-1.609-1.609h-18.094zM19.109 14.922h-6.328q-0.313 3.313-1.156 5.883t-1.969 3.727h12.734q-1.203-1.172-2.133-3.742t-1.148-5.867zM9.609 11.813q-1.047 0-1.047 1.047v0q0 1.063 1.047 1.063h12.766q1.063 0 1.063-1.063v0q0-1.047-1.063-1.047h-12.766zM20.281 14.922q0.109 4.031 1.406 6.82t3 2.789h0.406q1.094 0 1.883 0.789t0.789 1.883v0q0 1.109-0.789 1.891t-1.883 0.781h-18.188q-1.125 0-1.906-0.781t-0.781-1.891v0q0-1.094 0.781-1.883t1.906-0.789h0.453q1.656 0 2.961-2.789t1.461-6.82h-2.219q-0.891 0-1.508-0.609t-0.617-1.5v0q0-0.875 0.617-1.5t1.508-0.625h3.359q-1.781-1.438-1.781-3.734 0-2 1.422-3.43t3.438-1.43q2 0 3.422 1.43t1.422 3.43q0 2.281-1.75 3.734h3.344q0.859 0 1.484 0.625t0.625 1.5v0q0 0.891-0.625 1.5t-1.484 0.609h-2.156zM16 3.219q-1.547 0-2.641 1.094t-1.094 2.641 1.094 2.641 2.641 1.094q1.531 0 2.633-1.094t1.102-2.641-1.102-2.641-2.633-1.094z"></path>
<path fill="#f9f9f9" d="M5.82 28.377c-0.333-0.333-0.396-0.505-0.396-1.077 0-0.845 0.372-1.333 1.153-1.513 0.702-0.162 18.136-0.165 18.834-0.003 0.843 0.195 1.098 0.548 1.098 1.513 0 0.732-0.041 0.857-0.38 1.149l-0.38 0.327h-19.531l-0.396-0.396z"></path>
<path fill="#f9f9f9" d="M10.321 23.801c0.953-1.386 1.923-4.373 2.282-7.028 0.091-0.671 0.192-1.358 0.224-1.525l0.060-0.305h3.053c2.326 0 3.064 0.040 3.1 0.169 0.026 0.093 0.118 0.786 0.203 1.539 0.317 2.79 1.326 5.615 2.672 7.478l0.22 0.305h-12.249l0.435-0.633z"></path>
<path fill="#f9f9f9" d="M8.949 13.586c-0.273-0.273-0.364-0.999-0.165-1.314 0.258-0.405 0.953-0.449 7.124-0.449 6.117 0 7.058 0.056 7.301 0.438 0.206 0.324 0.119 1.047-0.158 1.325-0.264 0.264-0.452 0.271-7.051 0.271s-6.787-0.007-7.051-0.271z"></path>
<path fill="#f9f9f9" d="M14.573 10.284c-0.805-0.375-1.454-0.989-1.864-1.764-0.393-0.743-0.419-2.364-0.048-3.069 0.649-1.236 2.086-2.17 3.338-2.17s2.689 0.934 3.338 2.17c0.367 0.699 0.345 2.328-0.042 3.051-0.966 1.806-3.013 2.579-4.724 1.782z"></path>
</svg>
