<!-- Generated by IcoMoon.io -->
<svg version="1.1" xmlns="http://www.w3.org/2000/svg" width="32" height="32" viewBox="0 0 32 32">
<title>maya-br</title>
<path fill="#000" d="M23.719 24.016l1.375 0.516q1.094 0 1.883 0.789t0.789 1.883v0q0 1.109-0.789 1.891t-1.883 0.781h-18.188q-1.125 0-1.906-0.781t-0.781-1.891v0q0-1.094 0.781-1.883t1.906-0.789l1.438-0.516q0.656-3.625 0.852-6.797t0.414-6.531v-2.125h-2.156v-6.359h4.266v3.125h2.172v-3.125h4.219v3.125h2.172v-3.125h4.266v6.359h-2.156v2.125q0.188 3.516 0.406 6.609t0.922 6.719zM14.391 21.375h3.219v2.484h-3.219v-2.484zM14.391 14.453h3.219v2.406h-3.219v-2.406zM16.547 17.906h3.172v2.406h-3.172v-2.406zM12.281 17.906h3.156v2.406h-3.156v-2.406zM16.547 10.969h3.172v2.391h-3.172v-2.391zM12.281 10.969h3.156v2.391h-3.156v-2.391zM21.391 10.969v-1.063h-10.719l-0.031 1.063h0.578v2.391h-0.797l-0.031 1.094h2.938v2.406h-3.109l-0.078 1.047h1.078v2.406h-1.297l-0.063 1.063h3.469v2.484h-4.328v1.219h14v-1.219h-4.344v-2.484h3.594l-0.109-1.063h-1.359v-2.406h1.125l-0.078-1.047h-3.172v-2.406h2.953v-1.094h-0.828v-2.391h0.609z"></path>
<path fill="#ececec" d="M9.085 24.515v-0.542h4.339v-2.712h-1.763c-1.859 0-1.851 0.003-1.677-0.644 0.069-0.258 0.174-0.305 0.676-0.305h0.594v-2.441h-0.558c-0.513 0-0.552-0.025-0.476-0.305 0.045-0.168 0.083-0.381 0.084-0.475 0.001-0.126 0.405-0.169 1.561-0.169h1.559v-2.576h-2.983v-0.475c0-0.437 0.032-0.475 0.407-0.475h0.407v-1.22c0-1.13-0.020-1.22-0.271-1.22-0.22 0-0.271-0.090-0.271-0.475v-0.475h10.576v0.475c0 0.384-0.052 0.475-0.271 0.475-0.251 0-0.271 0.090-0.271 1.22v1.22h0.407c0.375 0 0.407 0.038 0.407 0.475v0.475h-2.983v2.576h3.254v0.475c0 0.463-0.013 0.475-0.542 0.475h-0.542v2.441h1.356v0.949h-3.525v2.712h4.339v1.085h-13.831v-0.542zM17.627 22.617v-1.356h-3.254v2.712h3.254v-1.356zM15.458 19.092v-1.22h-3.254v2.441h3.254v-1.22zM19.797 19.092v-1.22h-3.254v2.441h3.254v-1.22zM17.627 15.634v-1.288h-3.254v2.576h3.254v-1.288zM15.458 12.176v-1.22h-3.254v2.441h3.254v-1.22zM19.797 12.176v-1.22h-3.254v2.441h3.254v-1.22z"></path>
</svg>
