<!-- Generated by IcoMoon.io -->
<svg version="1.1" xmlns="http://www.w3.org/2000/svg" width="32" height="32" viewBox="0 0 32 32">
<title>maya-bp</title>
<path fill="#000" d="M15.906 10.469q-1.25 0-2.125 0.18t-0.875 0.43q0 0.266 0.875 0.438t2.125 0.172q1.219 0 2.109-0.172t0.891-0.438q0-0.25-0.891-0.43t-2.109-0.18zM20.281 14.922q0.109 4.031 1.406 6.82t3 2.789h0.406q1.094 0 1.883 0.789t0.789 1.883v0q0 1.109-0.789 1.891t-1.883 0.781h-18.188q-1.125 0-1.906-0.781t-0.781-1.891v0q0-1.094 0.781-1.883t1.906-0.789h0.453q1.656 0 2.961-2.789t1.461-6.82h-2.219q-0.891 0-1.508-0.609t-0.617-1.5v0q0-0.875 0.617-1.5t1.508-0.625h3.359q-1.781-1.438-1.781-3.734 0-2 1.422-3.43t3.438-1.43q2 0 3.422 1.43t1.422 3.43q0 2.281-1.75 3.734h3.344q0.859 0 1.484 0.625t0.625 1.5v0q0 0.891-0.625 1.5t-1.484 0.609h-2.156zM12.813 14.688q-0.531 0-0.531 0.594v0q0 0.578 0.531 0.578h6.375q0.531 0 0.531-0.578v0q0-0.594-0.531-0.594h-6.375zM9.609 23.969q-0.547 0-0.547 0.609v0q0 0.609 0.547 0.609h12.781q0.547 0 0.547-0.609v0q0-0.609-0.547-0.609h-12.781z"></path>
<path fill="#ececec" d="M9.22 24.841c-0.103-0.193-0.103-0.35 0-0.542 0.142-0.265 0.284-0.271 6.78-0.271s6.638 0.006 6.78 0.271c0.103 0.193 0.103 0.35 0 0.542-0.142 0.265-0.284 0.271-6.78 0.271s-6.638-0.006-6.78-0.271z"></path>
<path fill="#ececec" d="M12.418 15.533c-0.047-0.122-0.049-0.336-0.005-0.475 0.075-0.237 0.288-0.252 3.582-0.252 3.121 0 3.511 0.024 3.587 0.223 0.047 0.122 0.049 0.336 0.005 0.475-0.075 0.237-0.288 0.252-3.582 0.252-3.121 0-3.511-0.024-3.587-0.223z"></path>
<path fill="#ececec" d="M13.716 11.418c-0.69-0.163-0.816-0.367-0.348-0.563 0.576-0.242 3.897-0.303 4.734-0.087 1.462 0.377 0.352 0.766-2.169 0.761-0.97-0.002-1.967-0.052-2.216-0.111z"></path>
</svg>
