<!-- Generated by IcoMoon.io -->
<svg version="1.1" xmlns="http://www.w3.org/2000/svg" width="32" height="32" viewBox="0 0 32 32">
<title>maya-bb</title>
<path fill="#000" d="M16.266 13.313q-0.656 0.641-0.016 1.266 0.594 0.641 1.344-0.047l3.063-3.453q0.313 0.297 0.438 0.547t0.359 0.625q0.438 0.703 0.844 1.563 0.406 0.875 0.625 1.672-0.141 1.656-1.031 3.25t-2.297 2.578l2.813 0.031q0.891 0 1.516 0.633t0.625 1.508v0.016q0 0.406-0.281 1.031h0.828q1.094 0 1.883 0.789t0.789 1.883v0q0 1.109-0.789 1.891t-1.883 0.781h-18.188q-1.125 0-1.906-0.781t-0.781-1.891v0q0-1.094 0.781-1.883t1.906-0.789h0.875q-0.328-0.391-0.328-1.031v-0.016q0-0.875 0.625-1.508t1.516-0.633h2.734q-1.469-0.891-2.359-2.438t-0.875-3.422q0.922-2.922 2.336-5.070t1.961-2.852q0.203-0.625 0.734-0.953-0.813-0.688-0.813-1.828 0-1.109 0.781-1.898t1.906-0.789q1.094 0 1.883 0.789t0.789 1.898q0 1.016-0.766 2 0.313 0.625 0.375 0.734 0.484 0.688 1.266 2.188zM17.438 7.656l-0.547-1.094q-0.328 0.281-0.891 0.281-0.453 0-0.813-0.234l-0.688 1.047q0.719 0.422 1.5 0.422 0.813 0 1.438-0.422zM13.313 20.734q-0.531 0-0.531 0.578v0q0 0.594 0.531 0.594h5.375q0.531 0 0.531-0.594v0q0-0.578-0.531-0.578h-5.375zM9.078 24.297q-0.516 0-0.516 0.578v0q0 0.578 0.516 0.578h13.828q0.531 0 0.531-0.578v0q0-0.578-0.531-0.578h-13.828z"></path>
<path fill="#ececec" d="M15.227 7.884c-0.577-0.176-0.612-0.268-0.295-0.769 0.247-0.39 0.302-0.414 0.669-0.286 0.279 0.097 0.529 0.094 0.828-0.010 0.236-0.082 0.442-0.134 0.457-0.115s0.128 0.23 0.25 0.47c0.211 0.414 0.209 0.442-0.045 0.578-0.398 0.213-1.372 0.282-1.864 0.131z"></path>
<path fill="#ececec" d="M13.047 21.698c-0.22-0.22-0.21-0.583 0.021-0.775 0.13-0.108 1.040-0.144 3.002-0.118 2.51 0.033 2.832 0.062 2.965 0.274 0.109 0.173 0.109 0.302 0 0.475-0.133 0.212-0.456 0.241-2.987 0.274-2.092 0.027-2.88-0.007-3.002-0.129z"></path>
<path fill="#ececec" d="M8.77 25.294c-0.188-0.188-0.082-0.72 0.171-0.855 0.171-0.091 2.644-0.14 7.093-0.14 7.351 0 7.365 0.001 7.268 0.686l-0.047 0.331-7.197 0.035c-3.958 0.019-7.238-0.006-7.288-0.056z"></path>
</svg>
