<!-- Generated by IcoMoon.io -->
<svg version="1.1" xmlns="http://www.w3.org/2000/svg" width="32" height="32" viewBox="0 0 32 32">
<title>maya-wn</title>
<path fill="#000" d="M13.297 6.516q1-0.578 1.297-0.109 0.281 0.484-0.734 1.078-1 0.578-1.281 0.094-0.297-0.484 0.719-1.063zM13.469 20.109q-0.922-1.531 0.719-4.359 0.625-1.063 1.234-1.625-0.281 0.203 0.172 0.031t0.453 0.547q-0.156 0.172-0.422 0.625t-0.406 0.703q-0.609 1.047-0.602 2.109t0.336 1.813q-0.25 0.406-0.688 0.352t-0.797-0.195zM18.141 9.781q0.219 0.438-0.484 1.18t-1.828 0.898q-0.328 0.047-0.508 0.141t-0.383 0.109q-0.125 0.094-0.367 0.195t-0.57 0.273q-0.859 0.453-1.555 1.234t-1.211 1.672q-0.359 1.109-0.508 2.953t-0.055 2.969h10.656q-0.063-0.344-0.117-0.695t-0.102-0.711q-0.672-0.75-1.102-2.078t-0.414-2.438q0.188-1.156 0.883-2.664t1.070-2.352q0.047-0.625 0-1.344t-0.656-1.391q-0.344-0.625-1.398-1.547t-2.555-1.016q0.219-1.047-0.547-1.625-0.109 0.688-1.094 1.313t-2.016 0.703q-0.891 1.047-2.43 1.422t-3.070 0.75q-0.469 0.797 0.023 1.125t0.586 0.828q0.406 0.297 0.336 0.508t1.273-0.008q0.891-0.406 1.359-0.313t1.469 0.25q0.313 0.234 0.516 0.281 0.828 0.703 2.203 0.453 1.688-0.281 1.922-1.625 0.578 0 0.672 0.547zM9.609 22.406q-1.047 0-1.047 1.063v0q0 1.063 1.047 1.063h12.766q1.063 0 1.063-1.063v0q0-1.063-1.063-1.063h-12.766zM20.297 25.641h-13.344q-1.625 0-1.625 1.609v0q0 1.625 1.625 1.625h18.094q1.609 0 1.609-1.625v0q0-1.609-1.609-1.609h-4.75zM22.547 21.406q0.734 0.109 1.367 0.68t0.633 1.43v0q0 0.531-0.234 1.016h0.719q1.109 0 1.898 0.789t0.789 1.883v0q0 1.109-0.789 1.891t-1.898 0.781h-18.078q-1.109 0-1.891-0.781t-0.781-1.891v0q0-1.094 0.781-1.883t1.891-0.789h0.734q-0.25-0.516-0.25-1.016v0q0-0.859 0.633-1.5t1.57-0.734q-0.078-1.453-0.047-2.906t0.484-2.813q0.891-1.891 1.859-2.75t2.234-1.281q-1.047-0.047-1.18-0.063t-0.883-0.438q-0.75-0.203-1-0.219t-1.328 0.313q-1.172 0.188-1.734 0.125t-0.594-1.125q-0.469-0.656-0.977-1.414t0.414-1.82q2.484-0.781 3.602-0.859t2.336-1.25q1.547-0.328 2.188-0.836t0.641-1.852q0.844 0.172 1.484 0.742t0.641 1.492q1.734 0.422 2.32 1.023t1.445 1.32q1.078 1.422 1.117 2.484t-0.117 2.141q-0.484 1.047-0.984 1.945t-0.75 2.305q0 1.359 0.422 2.453t1.109 2z"></path>
<path fill="#f9f9f9" d="M6.479 28.758c-0.604-0.092-1.056-0.756-1.056-1.551 0-0.57 0.064-0.742 0.399-1.077l0.399-0.399 19.669 0.073 0.309 0.309c0.251 0.251 0.309 0.457 0.309 1.104 0 0.928-0.241 1.289-1.003 1.5-0.468 0.13-18.19 0.168-19.026 0.040v0z"></path>
<path fill="#f9f9f9" d="M9.224 24.364c-0.184-0.074-0.382-0.207-0.439-0.296-0.201-0.316-0.11-1.041 0.164-1.315 0.264-0.264 0.452-0.271 7.051-0.271s6.787 0.007 7.051 0.271c0.273 0.273 0.364 0.999 0.165 1.314-0.056 0.089-0.273 0.226-0.481 0.305-0.497 0.189-13.035 0.183-13.51-0.007v0z"></path>
<path fill="#f9f9f9" d="M10.714 20.21c0.004-1.826 0.341-4.037 0.738-4.85 0.776-1.587 2.478-2.891 4.507-3.453 1.357-0.376 2.255-1.139 2.255-1.915 0-0.752-0.771-1.13-0.939-0.46-0.111 0.442-0.747 0.97-1.382 1.146-0.893 0.248-1.564 0.171-2.403-0.277-0.887-0.473-2.388-0.672-3.197-0.424-0.813 0.25-1.48 0.324-1.48 0.166 0-0.175-0.485-0.863-0.924-1.312-0.278-0.284-0.316-0.712-0.086-0.972 0.023-0.026 0.878-0.258 1.902-0.515 2.008-0.506 2.385-0.661 3.298-1.357 0.328-0.25 0.694-0.454 0.814-0.454 0.459-0 1.88-0.798 2.274-1.276 0.373-0.453 0.426-0.477 0.597-0.271 0.103 0.124 0.187 0.462 0.187 0.751 0 0.453 0.042 0.525 0.303 0.525 1.093 0 2.699 1.13 3.676 2.584 0.529 0.787 0.569 0.913 0.569 1.764 0 0.805-0.080 1.094-0.662 2.386-1.227 2.723-1.36 3.352-1.044 4.91 0.239 1.179 0.595 2.121 1.038 2.742 0.152 0.214 0.326 0.695 0.385 1.069l0.107 0.68h-10.536l0.003-1.186zM14.91 20.114c0.090-0.109 0.125-0.261 0.077-0.338s-0.145-0.504-0.217-0.949c-0.175-1.089 0.011-1.859 0.767-3.168 0.661-1.145 0.696-1.585 0.125-1.585-0.667 0-2.016 2.117-2.419 3.797-0.244 1.013-0.133 1.975 0.261 2.263 0.326 0.238 1.202 0.226 1.406-0.020zM13.827 7.568c0.622-0.318 0.949-0.733 0.856-1.088-0.129-0.494-0.957-0.397-1.748 0.206-0.432 0.329-0.605 0.826-0.37 1.061 0.17 0.17 0.734 0.090 1.262-0.179v0z"></path>
</svg>
