<!-- Generated by IcoMoon.io -->
<svg version="1.1" xmlns="http://www.w3.org/2000/svg" width="32" height="32" viewBox="0 0 32 32">
<title>maya-bq</title>
<path fill="#000" d="M11.969 11.094l-0.203 1.219q0.641 0.078 1.141 0.078 2.031 0 3.094-1.344 0.469 0.609 1.281 0.914t1.797 0.43q0.625 0.094 1.188-0.047l-0.266-1.25q-1.172 0.297-2.328-0.305t-1.672-1.523q-0.547 0.875-1.609 1.477t-2.422 0.352zM13.688 15l2.313 1.219 2.375-1.219-2.375-1.219zM13.688 17.938l2.313 1.219 2.375-1.219-2.375-1.219zM18.281 16.609l2.313 1.203 2.391-1.203-2.391-1.234zM9.016 16.609l2.328 1.203 2.375-1.203-2.375-1.234zM17.813 7.5q1.281 0.516 2.094 1.578t0.828 2.391q0.719-0.234 1.219-0.734t0.969-1.156q0.531 2.063 2.344 2.063 0.844 0 1.781-0.531t1.5-1.422l-6.109 11.703q0.828 0.063 1.469 0.664t0.641 1.461v0q0 0.484-0.281 1.016h0.828q1.094 0 1.883 0.789t0.789 1.883v0q0 1.109-0.789 1.891t-1.883 0.781h-18.188q-1.125 0-1.906-0.781t-0.781-1.891v0q0-1.094 0.781-1.883t1.906-0.789h0.766q-0.234-0.313-0.234-1.016v0q0-0.859 0.641-1.461t1.484-0.648l-6.109-11.719q1.328 1.953 3.234 1.953 1.844 0 2.391-2.047 0.828 1.313 2.25 1.859-0.031-1.313 0.766-2.375t2.078-1.578q-0.516-0.688-0.516-1.5 0-0.969 0.68-1.656t1.664-0.688q0.969 0 1.656 0.688t0.688 1.656q0 0.828-0.531 1.5zM17.734 8.047l-0.516-0.844q-0.531 0.469-1.219 0.469-0.641 0-1.109-0.422l-0.672 0.797q0.734 0.688 1.781 0.688t1.734-0.688zM10.375 20.469q-0.547 0-0.547 0.578v0q0 0.578 0.547 0.578h11.25q0.547 0 0.547-0.578v0q0-0.578-0.547-0.578h-11.25zM8.578 24.281q-0.578 0-0.578 0.641v0q0 0.656 0.578 0.656h14.828q0.594 0 0.594-0.656v0q0-0.641-0.594-0.641h-14.828z"></path>
<path fill="#ececec" d="M8.353 25.397c-0.16-0.117-0.226-0.31-0.195-0.576l0.046-0.4h15.593l0.046 0.4c0.087 0.767 0.235 0.752-7.842 0.752-5.861 0-7.456-0.037-7.647-0.176z"></path>
<path fill="#ececec" d="M9.94 21.283c-0.047-0.122-0.023-0.32 0.053-0.441 0.124-0.196 0.753-0.219 6.007-0.219s5.883 0.023 6.007 0.219c0.076 0.12 0.1 0.319 0.053 0.441-0.077 0.201-0.653 0.222-6.060 0.222s-5.983-0.021-6.060-0.222z"></path>
<path fill="#ececec" d="M19.559 17.196c-0.541-0.273-0.983-0.533-0.983-0.577s0.456-0.321 1.014-0.614l1.014-0.533 1.019 0.522c0.561 0.287 1.019 0.563 1.019 0.614 0 0.077-1.972 1.118-2.070 1.093-0.017-0.004-0.474-0.231-1.015-0.504z"></path>
<path fill="#ececec" d="M14.945 18.514c-0.543-0.301-0.96-0.591-0.927-0.644s0.494-0.307 1.025-0.564l0.965-0.467 2.228 1.105-1.115 0.561c-0.613 0.308-1.132 0.56-1.152 0.559s-0.481-0.248-1.024-0.549v0z"></path>
<path fill="#ececec" d="M14.882 15.555c-0.503-0.27-0.915-0.521-0.915-0.558s0.463-0.305 1.027-0.595l1.027-0.527 1.005 0.527c0.552 0.29 1.004 0.558 1.004 0.595-0.001 0.115-1.875 1.086-2.059 1.067-0.096-0.010-0.586-0.239-1.089-0.508v0z"></path>
<path fill="#ececec" d="M10.272 17.182c-0.503-0.27-0.915-0.537-0.915-0.593s0.459-0.33 1.020-0.607l1.020-0.505 1.013 0.54c0.557 0.297 1.013 0.572 1.014 0.612 0.001 0.091-2.002 1.087-2.137 1.063-0.055-0.010-0.511-0.239-1.014-0.508v0z"></path>
<path fill="#ececec" d="M11.922 11.776l0.082-0.508 0.879-0.077c1.066-0.094 1.762-0.409 2.531-1.146l0.58-0.556 0.508 0.52c0.746 0.764 1.691 1.192 2.634 1.192 0.625 0 0.791 0.047 0.844 0.237 0.036 0.13 0.109 0.384 0.16 0.563l0.094 0.326-1.083-0.074c-1.193-0.082-2.177-0.44-2.771-1.009l-0.365-0.35-0.619 0.545c-0.709 0.624-1.419 0.848-2.689 0.848h-0.868l0.082-0.508z"></path>
<path fill="#ececec" d="M14.965 8.436c-0.565-0.256-0.616-0.371-0.332-0.747 0.208-0.276 0.279-0.296 0.546-0.154 0.271 0.145 1.015 0.139 1.817-0.016 0.145-0.028 0.335 0.076 0.451 0.247 0.186 0.274 0.174 0.313-0.165 0.535-0.477 0.312-1.759 0.387-2.316 0.134z"></path>
</svg>
