<!-- Generated by IcoMoon.io -->
<svg version="1.1" xmlns="http://www.w3.org/2000/svg" width="32" height="32" viewBox="0 0 32 32">
<title>maya-wr</title>
<path fill="#000" d="M6.953 25.641q-1.625 0-1.625 1.609v0.016q0 1.609 1.625 1.609h18.094q1.609 0 1.609-1.609v-0.016q0-1.609-1.609-1.609h-18.094zM23.75 24.016l1.344 0.516q1.094 0 1.883 0.789t0.789 1.883v0q0 1.109-0.789 1.891t-1.883 0.781h-18.188q-1.125 0-1.906-0.781t-0.781-1.891v0q0-1.094 0.781-1.883t1.906-0.789l1.406-0.516q0.672-3.625 0.875-6.797t0.422-6.531v-2.125h-2.156v-6.359h4.266v3.125h2.172v-3.125h4.219v3.125h2.172v-3.125h4.266v6.359h-2.156v2.125q0.109 3.516 0.367 6.609t0.992 6.719zM10.484 13.766l0.734-0.016v-2.391h-0.547zM10.188 17.391l3.141-0.016v-2.438l-2.938 0.016zM9.922 20.953h1.297v-2.375h-1.109zM9.609 24.531h3.719v-2.391l-3.516 0.016zM21.516 13.75l-0.172-2.391h-0.563v2.391h0.734zM21.859 17.375l-0.219-2.438h-2.984v2.438h3.203zM22.141 20.953l-0.234-2.375h-1.125v2.375h1.359zM22.391 24.531l-0.203-2.391h-3.531v2.391h3.734zM12.281 11.359v2.391h3.156v-2.391h-3.156zM16.547 11.359v2.391h3.172v-2.391h-3.172zM12.281 18.578v2.375h3.156v-2.375h-3.156zM16.547 18.578v2.375h3.172v-2.375h-3.172zM14.391 14.938v2.438h3.219v-2.438h-3.219zM14.391 22.141v2.391h3.219v-2.391h-3.219zM10.672 10.188h10.656v-2.625h2.109v-4.344h-2.109v3.234h-4.281v-3.234h-2.109v3.234h-4.266v-3.234h-2.109v4.344h2.109v2.625z"></path>
<path fill="#f9f9f9" d="M5.82 28.377c-0.333-0.333-0.396-0.505-0.396-1.077 0-0.845 0.372-1.333 1.153-1.513 0.702-0.162 18.136-0.165 18.834-0.003 0.843 0.195 1.098 0.548 1.098 1.513 0 0.732-0.041 0.857-0.38 1.149l-0.38 0.327h-19.531l-0.396-0.396z"></path>
<path fill="#f9f9f9" d="M9.726 23.925c0.025-0.28 0.077-0.768 0.117-1.085l0.072-0.576h3.373v2.169h-3.607l0.045-0.508z"></path>
<path fill="#f9f9f9" d="M14.508 23.349v-1.085h2.983v2.169h-2.983v-1.085z"></path>
<path fill="#f9f9f9" d="M18.712 23.349v-1.085h3.373l0.072 0.576c0.040 0.317 0.092 0.805 0.117 1.085l0.045 0.508h-3.607v-1.085z"></path>
<path fill="#f9f9f9" d="M20.881 19.756v-1.153h0.466c0.511 0 0.474-0.096 0.667 1.729l0.061 0.576h-1.195v-1.153z"></path>
<path fill="#f9f9f9" d="M16.678 19.756v-1.153h2.983v2.305h-2.983v-1.153z"></path>
<path fill="#f9f9f9" d="M12.339 19.756v-1.153h2.983v2.305h-2.983v-1.153z"></path>
<path fill="#f9f9f9" d="M10.035 20.468c0.001-0.242 0.040-0.761 0.087-1.153 0.084-0.701 0.093-0.712 0.541-0.712h0.456v2.305h-0.542c-0.522 0-0.542-0.017-0.541-0.441z"></path>
<path fill="#f9f9f9" d="M10.359 16.27c0.051-0.612 0.106-1.122 0.121-1.134s0.654-0.057 1.418-0.102l1.39-0.081v2.254l-1.037 0.088c-0.571 0.048-1.251 0.088-1.511 0.088h-0.474l0.093-1.113z"></path>
<path fill="#f9f9f9" d="M14.508 16.095v-1.153h2.983v2.305h-2.983v-1.153z"></path>
<path fill="#f9f9f9" d="M18.712 16.095v-1.153h1.424c1.044 0 1.426 0.045 1.432 0.169 0.005 0.093 0.053 0.612 0.107 1.153l0.099 0.983h-3.061v-1.153z"></path>
<path fill="#f9f9f9" d="M20.881 12.569c0-0.88 0.043-1.153 0.184-1.153 0.126 0 0.212 0.265 0.271 0.833 0.139 1.329 0.121 1.472-0.184 1.472-0.25 0-0.271-0.090-0.271-1.153z"></path>
<path fill="#f9f9f9" d="M16.678 12.569v-1.153h2.983v2.305h-2.983v-1.153z"></path>
<path fill="#f9f9f9" d="M12.339 12.569v-1.153h2.983v2.305h-2.983v-1.153z"></path>
<path fill="#f9f9f9" d="M10.625 12.889c0.048-0.458 0.087-0.977 0.087-1.153 0-0.193 0.080-0.319 0.203-0.319 0.165 0 0.203 0.218 0.203 1.153 0 1.088-0.016 1.153-0.29 1.153s-0.286-0.045-0.203-0.833z"></path>
<path fill="#f9f9f9" d="M10.712 8.773v-1.288h-2.034v-4.203h1.898v3.254h4.475v-3.254h1.898v3.254h4.475v-3.254h1.898v4.203h-2.034v2.576h-10.576v-1.288z"></path>
</svg>
