<!-- Generated by IcoMoon.io -->
<svg version="1.1" xmlns="http://www.w3.org/2000/svg" width="32" height="32" viewBox="0 0 32 32">
<title>maya-wk</title>
<path fill="#000" d="M18.5 19.203l-2.438 1.219-2.5-1.219 2.5-1.234zM21.781 20.281l-2.141-1.078 2.5-1.234 0.344 0.203q0.109-0.281 0.227-0.563t0.211-0.516l-13.703 0.016q0.203 0.766 0.344 1.109l0.422-0.25 2.438 1.234-2.141 1.063q0.078 0.281 0.164 0.57t0.18 0.586l10.797-0.016q0.203-0.719 0.359-1.125zM23.531 16.031q0.484-0.844 1-1.422t1.078-1.188q0.375-0.453 0.711-0.82t0.336-0.82v0q0-1.094-1.078-1.094h-19.156q-1.094 0-1.094 1.094v0q0 0.453 0.32 0.82t0.789 0.82q0.578 0.609 1.117 1.18t1.008 1.445zM15.969 8.578q-0.891 0-1.516 0.172t-0.625 0.406q0 0.25 0.625 0.422t1.516 0.172q0.875 0 1.508-0.172t0.633-0.422q0-0.234-0.633-0.406t-1.508-0.172zM13.328 5.922v-2.141l1.859 0.266-0.25-1.891h2.109l-0.25 1.891 1.859-0.266v2.141l-1.859-0.281v1.922h-1.609v-1.922zM9.594 22.453q-1.031 0-1.031 1.031v0.016q0 1.031 1.031 1.031h12.813q1.031 0 1.031-1.031v-0.016q0-1.031-1.031-1.031h-12.813zM6.953 25.641q-1.625 0-1.625 1.609v0.016q0 1.609 1.625 1.609h18.094q1.609 0 1.609-1.609v-0.016q0-1.609-1.609-1.609h-18.094zM7.719 24.531q-0.281-0.484-0.281-1.016v0q0-0.859 0.625-1.477t1.516-0.57q-0.859-2.859-1.391-4.016t-1.75-2.469q-1-1.125-1.609-1.711t-0.609-1.461v-0.016q0-0.859 0.617-1.484t1.508-0.625h6.703q-0.266-0.313-0.266-0.563v0q0-1.563 1.563-1.563h3.313q1.563 0 1.563 1.563v0q0 0.266-0.281 0.563h6.719q0.859 0 1.484 0.625t0.625 1.484v0.016q0 0.875-0.648 1.43t-1.68 1.68q-1.125 1.391-1.688 2.609t-1.313 3.938q0.859-0.047 1.484 0.57t0.625 1.477v0q0 0.531-0.234 1.016h0.781q1.094 0 1.883 0.789t0.789 1.883v0q0 1.109-0.789 1.891t-1.883 0.781h-18.188q-1.125 0-1.906-0.781t-0.781-1.891v0q0-1.094 0.781-1.883t1.906-0.789h0.813z"></path>
<path fill="#f9f9f9" d="M6.479 28.758c-0.604-0.092-1.056-0.756-1.056-1.551 0-0.57 0.064-0.742 0.399-1.077l0.399-0.399 19.669 0.073 0.309 0.309c0.251 0.251 0.309 0.457 0.309 1.104 0 0.928-0.241 1.289-1.003 1.5-0.468 0.13-18.19 0.168-19.026 0.040v0z"></path>
<path fill="#f9f9f9" d="M9.224 24.364c-0.425-0.169-0.542-0.357-0.542-0.866 0-1.027-0.073-1.017 7.318-1.017s7.318-0.010 7.318 1.017c0 0.521-0.116 0.695-0.584 0.873-0.497 0.189-13.035 0.183-13.51-0.007v0z"></path>
<path fill="#f9f9f9" d="M10.664 21.294c-0.035-0.056-0.104-0.318-0.153-0.581l-0.090-0.479 1.027-0.451c0.565-0.248 1.027-0.492 1.027-0.541 0-0.176-2.378-1.295-2.678-1.26-0.193 0.023-0.305-0.037-0.305-0.162 0-0.109-0.037-0.294-0.082-0.412-0.074-0.194 0.566-0.214 6.644-0.214 3.7 0 6.726 0.028 6.726 0.061 0 0.285-0.353 0.746-0.531 0.694-0.118-0.034-0.793 0.232-1.5 0.591l-1.285 0.653 2.205 1.109-0.278 1.095h-5.331c-2.932 0-5.36-0.046-5.395-0.103zM17.373 19.829c0.677-0.34 1.21-0.638 1.184-0.662s-0.598-0.319-1.269-0.654l-1.221-0.611-1.253 0.586c-0.689 0.322-1.253 0.637-1.253 0.701 0 0.128 2.139 1.239 2.409 1.252 0.095 0.004 0.726-0.27 1.404-0.611v0z"></path>
<path fill="#f9f9f9" d="M8.343 15.536c-0.142-0.24-0.857-1.097-1.589-1.903-1.409-1.552-1.558-1.886-1.119-2.511l0.211-0.301h20.308l0.211 0.301c0.454 0.648 0.239 1.107-1.282 2.749-0.415 0.447-0.953 1.103-1.196 1.458l-0.442 0.644h-14.844l-0.258-0.437z"></path>
<path fill="#f9f9f9" d="M15.39 9.645c-0.664-0.077-1.424-0.318-1.424-0.452 0-0.624 3.899-0.69 3.976-0.067 0.040 0.324-1.51 0.64-2.552 0.52z"></path>
</svg>
