<!-- Generated by IcoMoon.io -->
<svg version="1.1" xmlns="http://www.w3.org/2000/svg" width="32" height="32" viewBox="0 0 32 32">
<title>maya-bn</title>
<path fill="#000" d="M13.016 19.25q0.406 0.141 0.914 0.203t0.789-0.359q-0.375-0.797-0.391-1.883t0.688-2.164q0.156-0.281 0.469-0.742t0.484-0.648q0-0.75-0.516-0.563t-0.203-0.031q-0.719 0.609-1.406 1.688-0.938 1.438-1.195 2.508t0.367 1.992zM12.938 6.125q-1.172 0.656-0.828 1.219 0.313 0.563 1.469-0.109 1.141-0.672 0.844-1.234-0.344-0.563-1.484 0.125zM10.641 20.469q-0.531 0-0.531 0.578v0q0 0.578 0.531 0.578h10.719q0.531 0 0.531-0.578v0q0-0.578-0.531-0.578h-10.719zM8.563 24.281q-0.563 0-0.563 0.625v0q0 0.609 0.563 0.609h14.875q0.563 0 0.563-0.609v0q0-0.625-0.563-0.625h-14.875zM22.547 21.406q0.734 0.109 1.367 0.68t0.633 1.43v0q0 0.531-0.234 1.016h0.719q1.109 0 1.898 0.789t0.789 1.883v0q0 1.109-0.789 1.891t-1.898 0.781h-18.078q-1.109 0-1.891-0.781t-0.781-1.891v0q0-1.094 0.781-1.883t1.891-0.789h0.734q-0.25-0.516-0.25-1.016v0q0-0.859 0.633-1.5t1.57-0.734q-0.078-1.453-0.047-2.906t0.484-2.813q0.891-1.891 1.859-2.75t2.234-1.281q-1.047-0.047-1.18-0.063t-0.883-0.438q-0.75-0.203-1-0.219t-1.328 0.313q-1.172 0.188-1.734 0.125t-0.594-1.125q-0.469-0.656-0.977-1.414t0.414-1.82q2.484-0.781 3.602-0.859t2.336-1.25q1.547-0.328 2.188-0.836t0.641-1.852q0.844 0.172 1.484 0.742t0.641 1.492q1.734 0.422 2.32 1.023t1.445 1.32q1.078 1.422 1.117 2.484t-0.117 2.141q-0.484 1.047-0.984 1.945t-0.75 2.305q0 1.359 0.422 2.453t1.109 2zM15 11.859q0.188 0 0.344 0.023t0.484-0.023q1.125-0.156 1.867-0.906t0.523-1.188q-0.094-0.578-0.797-0.578-0.266 1.531-1.813 1.781-0.25 0.047-0.391 0.078t-0.438 0.125q-0.703 0.469 0.219 0.688z"></path>
<path fill="#ececec" d="M8.189 25.245c-0.041-0.107-0.055-0.336-0.030-0.51l0.045-0.315h15.593v0.949l-7.767 0.035c-6.646 0.030-7.777 0.007-7.841-0.16z"></path>
<path fill="#ececec" d="M10.211 21.283c-0.047-0.122-0.023-0.32 0.053-0.441 0.123-0.196 0.732-0.219 5.736-0.219s5.612 0.023 5.736 0.219c0.076 0.12 0.1 0.319 0.053 0.441-0.077 0.201-0.633 0.222-5.789 0.222s-5.712-0.021-5.789-0.222z"></path>
<path fill="#ececec" d="M13.262 19.244c-0.126-0.033-0.332-0.33-0.458-0.659-0.194-0.508-0.204-0.695-0.066-1.243 0.445-1.768 2.417-4.53 2.984-4.179 0.247 0.153 0.157 0.414-0.474 1.373-0.788 1.197-1.071 2.138-0.945 3.144 0.052 0.416 0.145 0.89 0.207 1.053 0.071 0.186 0.056 0.354-0.040 0.45-0.15 0.15-0.756 0.18-1.209 0.061v0z"></path>
<path fill="#ececec" d="M15.119 11.774c-0.86-0.152-0.694-0.464 0.38-0.716 1.002-0.235 1.416-0.516 1.737-1.178 0.154-0.319 0.364-0.579 0.467-0.579 0.206 0 0.467 0.409 0.467 0.732 0 0.283-0.766 1.135-1.242 1.381-0.456 0.236-1.422 0.428-1.809 0.36z"></path>
<path fill="#ececec" d="M12.203 7.267c-0.12-0.223-0.084-0.334 0.199-0.617 0.5-0.5 1.422-0.886 1.726-0.723 0.509 0.272 0.163 0.83-0.829 1.336-0.681 0.347-0.912 0.348-1.096 0.005v0z"></path>
</svg>
