<!-- Generated by IcoMoon.io -->
<svg version="1.1" xmlns="http://www.w3.org/2000/svg" width="32" height="32" viewBox="0 0 32 32">
<title>maya-bk</title>
<path fill="#000" d="M18.5 19.203l-2.438-1.234-2.5 1.234 2.5 1.219zM10.219 20.313l2.203-1.109-2.438-1.234-0.484 0.25zM21.938 20.344l0.672-2.047-0.469-0.328-2.5 1.234zM10.641 21.391q-0.531 0-0.531 0.531v0q0 0.531 0.531 0.531h10.719q0.531 0 0.531-0.531v0q0-0.531-0.531-0.531h-10.719zM8.531 24.547q-0.531 0-0.531 0.563v0q0 0.578 0.531 0.578h14.938q0.531 0 0.531-0.578v0q0-0.563-0.531-0.563h-14.938zM13.859 9.625q-0.531 0-0.531 0.531v0q0 0.531 0.531 0.531h4.281q0.516 0 0.516-0.531v0q0-0.531-0.516-0.531h-4.281zM13.328 5.922v-2.141l1.859 0.266-0.25-1.891h2.109l-0.25 1.891 1.859-0.266v2.141l-1.859-0.281v1.922h-1.609v-1.922zM7.719 24.531q-0.281-0.484-0.281-1.016v0q0-0.859 0.625-1.477t1.516-0.57q-0.859-2.859-1.391-4.016t-1.75-2.469q-1-1.125-1.609-1.711t-0.609-1.461v-0.016q0-0.859 0.617-1.484t1.508-0.625h6.703q-0.266-0.313-0.266-0.563v0q0-1.563 1.563-1.563h3.313q1.563 0 1.563 1.563v0q0 0.266-0.281 0.563h6.719q0.859 0 1.484 0.625t0.625 1.484v0.016q0 0.875-0.648 1.43t-1.68 1.68q-1.125 1.391-1.688 2.609t-1.313 3.938q0.859-0.047 1.484 0.57t0.625 1.477v0q0 0.531-0.234 1.016h0.781q1.094 0 1.883 0.789t0.789 1.883v0q0 1.109-0.789 1.891t-1.883 0.781h-18.188q-1.125 0-1.906-0.781t-0.781-1.891v0q0-1.094 0.781-1.883t1.906-0.789h0.813zM9.078 16.047q-0.516 0-0.516 0.531v0q0 0.531 0.516 0.531h13.828q0.531 0 0.531-0.531v0q0-0.531-0.531-0.531h-13.828z"></path>
<path fill="#ececec" d="M13.638 10.506c-0.134-0.098-0.221-0.296-0.194-0.441 0.048-0.248 0.187-0.262 2.555-0.262s2.508 0.014 2.555 0.262c0.1 0.519-0.312 0.619-2.555 0.619-1.537 0-2.185-0.049-2.362-0.178z"></path>
<path fill="#ececec" d="M8.73 16.863c-0.041-0.108-0.054-0.307-0.028-0.442 0.045-0.233 0.411-0.245 7.3-0.245h7.252v0.814l-7.224 0.035c-6.209 0.030-7.235 0.007-7.3-0.162z"></path>
<path fill="#ececec" d="M14.851 19.746l-1.081-0.553 2.298-1.155 1.085 0.543c0.597 0.299 1.107 0.562 1.133 0.586 0.059 0.053-2.102 1.148-2.248 1.139-0.058-0.004-0.591-0.255-1.186-0.559v0z"></path>
<path fill="#ececec" d="M9.912 19.21c-0.41-1.274-0.287-1.343 1.13-0.634 0.602 0.301 1.116 0.567 1.142 0.591 0.042 0.038-1.802 1.010-1.916 1.010-0.024 0-0.185-0.435-0.356-0.967z"></path>
<path fill="#ececec" d="M20.817 19.678l-0.945-0.485 1.013-0.519c1.020-0.522 1.412-0.628 1.542-0.418 0.079 0.128-0.475 1.924-0.591 1.913-0.041-0.004-0.499-0.225-1.019-0.492z"></path>
<path fill="#ececec" d="M10.261 22.257c-0.182-0.182-0.087-0.582 0.17-0.72 0.168-0.090 2.18-0.14 5.601-0.14 5.644 0 5.891 0.026 5.777 0.619-0.049 0.254-0.238 0.263-5.753 0.298-3.137 0.019-5.744-0.006-5.795-0.056z"></path>
<path fill="#ececec" d="M8.188 25.406c-0.041-0.108-0.054-0.307-0.028-0.442 0.045-0.233 0.43-0.245 7.842-0.245h7.795v0.814l-7.767 0.035c-6.681 0.030-7.777 0.008-7.842-0.162z"></path>
</svg>
